<svg xmlns="http://www.w3.org/2000/svg" xmlns:xlink="http://www.w3.org/1999/xlink" width="1128" zoomAndPan="magnify" viewBox="0 0 846 143.249994" height="191" preserveAspectRatio="xMidYMid meet" version="1.0"><metadata/><defs><g/><clipPath id="c05153d777"><rect x="0" width="443" y="0" height="43"/></clipPath><clipPath id="6ff7aa85f3"><rect x="0" width="181" y="0" height="29"/></clipPath><clipPath id="a18c9aba28"><rect x="0" width="264" y="0" height="27"/></clipPath><clipPath id="bf5ea3ca02"><path d="M 163.511719 6.660156 L 330.636719 6.660156 L 330.636719 123.050781 L 163.511719 123.050781 Z M 163.511719 6.660156 " clip-rule="nonzero"/></clipPath></defs><g transform="matrix(1, 0, 0, 1, 260, 94)"><g clip-path="url(#c05153d777)"><g fill="#ffffff" fill-opacity="1"><g transform="translate(0.455691, 34.817534)"><g><path d="M 9 0.28125 C 7.46875 0.28125 6.125 0.0078125 4.96875 -0.53125 C 3.8125 -1.082031 2.910156 -1.859375 2.265625 -2.859375 C 1.628906 -3.867188 1.3125 -5.035156 1.3125 -6.359375 L 1.3125 -7.265625 C 1.3125 -7.378906 1.351562 -7.472656 1.4375 -7.546875 C 1.519531 -7.628906 1.617188 -7.671875 1.734375 -7.671875 L 4.859375 -7.671875 C 4.972656 -7.671875 5.070312 -7.628906 5.15625 -7.546875 C 5.238281 -7.472656 5.28125 -7.378906 5.28125 -7.265625 L 5.28125 -6.5625 C 5.28125 -5.570312 5.625 -4.765625 6.3125 -4.140625 C 7.007812 -3.515625 7.953125 -3.203125 9.140625 -3.203125 C 10.222656 -3.203125 11.050781 -3.476562 11.625 -4.03125 C 12.207031 -4.582031 12.5 -5.3125 12.5 -6.21875 C 12.5 -6.84375 12.335938 -7.378906 12.015625 -7.828125 C 11.691406 -8.285156 11.234375 -8.703125 10.640625 -9.078125 C 10.054688 -9.460938 9.148438 -9.976562 7.921875 -10.625 C 6.503906 -11.363281 5.367188 -12.023438 4.515625 -12.609375 C 3.660156 -13.191406 2.9375 -13.929688 2.34375 -14.828125 C 1.75 -15.734375 1.453125 -16.832031 1.453125 -18.125 C 1.453125 -20.125 2.117188 -21.703125 3.453125 -22.859375 C 4.785156 -24.015625 6.539062 -24.59375 8.71875 -24.59375 C 10.21875 -24.59375 11.546875 -24.304688 12.703125 -23.734375 C 13.867188 -23.171875 14.765625 -22.367188 15.390625 -21.328125 C 16.015625 -20.285156 16.328125 -19.09375 16.328125 -17.75 L 16.328125 -17.015625 C 16.328125 -16.898438 16.285156 -16.800781 16.203125 -16.71875 C 16.117188 -16.644531 16.019531 -16.609375 15.90625 -16.609375 L 12.78125 -16.609375 C 12.664062 -16.609375 12.566406 -16.644531 12.484375 -16.71875 C 12.398438 -16.800781 12.359375 -16.898438 12.359375 -17.015625 L 12.359375 -17.6875 C 12.359375 -18.675781 12.019531 -19.492188 11.34375 -20.140625 C 10.675781 -20.796875 9.78125 -21.125 8.65625 -21.125 C 7.65625 -21.125 6.863281 -20.863281 6.28125 -20.34375 C 5.707031 -19.820312 5.421875 -19.097656 5.421875 -18.171875 C 5.421875 -17.546875 5.570312 -17.007812 5.875 -16.5625 C 6.175781 -16.125 6.628906 -15.707031 7.234375 -15.3125 C 7.847656 -14.925781 8.78125 -14.421875 10.03125 -13.796875 C 11.707031 -12.835938 12.9375 -12.09375 13.71875 -11.5625 C 14.507812 -11.03125 15.175781 -10.34375 15.71875 -9.5 C 16.257812 -8.65625 16.53125 -7.617188 16.53125 -6.390625 C 16.53125 -4.347656 15.847656 -2.722656 14.484375 -1.515625 C 13.117188 -0.316406 11.289062 0.28125 9 0.28125 Z M 9 0.28125 "/></g></g></g><g fill="#ffffff" fill-opacity="1"><g transform="translate(20.186292, 34.817534)"><g><path d="M 2.640625 0 C 2.523438 0 2.425781 -0.0390625 2.34375 -0.125 C 2.257812 -0.207031 2.21875 -0.304688 2.21875 -0.421875 L 2.21875 -23.890625 C 2.21875 -24.015625 2.257812 -24.113281 2.34375 -24.1875 C 2.425781 -24.269531 2.523438 -24.3125 2.640625 -24.3125 L 5.828125 -24.3125 C 5.953125 -24.3125 6.050781 -24.269531 6.125 -24.1875 C 6.207031 -24.113281 6.25 -24.015625 6.25 -23.890625 L 6.25 -0.421875 C 6.25 -0.304688 6.207031 -0.207031 6.125 -0.125 C 6.050781 -0.0390625 5.953125 0 5.828125 0 Z M 2.640625 0 "/></g></g></g><g fill="#ffffff" fill-opacity="1"><g transform="translate(30.537947, 34.817534)"><g><path d="M 14.203125 -23.890625 C 14.203125 -24.015625 14.242188 -24.113281 14.328125 -24.1875 C 14.410156 -24.269531 14.507812 -24.3125 14.625 -24.3125 L 17.8125 -24.3125 C 17.9375 -24.3125 18.035156 -24.269531 18.109375 -24.1875 C 18.191406 -24.113281 18.234375 -24.015625 18.234375 -23.890625 L 18.234375 -0.421875 C 18.234375 -0.304688 18.191406 -0.207031 18.109375 -0.125 C 18.035156 -0.0390625 17.9375 0 17.8125 0 L 14.453125 0 C 14.242188 0 14.082031 -0.101562 13.96875 -0.3125 L 6.390625 -15.875 C 6.347656 -15.945312 6.300781 -15.972656 6.25 -15.953125 C 6.207031 -15.941406 6.1875 -15.890625 6.1875 -15.796875 L 6.21875 -0.421875 C 6.21875 -0.304688 6.175781 -0.207031 6.09375 -0.125 C 6.007812 -0.0390625 5.910156 0 5.796875 0 L 2.609375 0 C 2.492188 0 2.394531 -0.0390625 2.3125 -0.125 C 2.226562 -0.207031 2.1875 -0.304688 2.1875 -0.421875 L 2.1875 -23.890625 C 2.1875 -24.015625 2.226562 -24.113281 2.3125 -24.1875 C 2.394531 -24.269531 2.492188 -24.3125 2.609375 -24.3125 L 5.9375 -24.3125 C 6.164062 -24.3125 6.328125 -24.207031 6.421875 -24 L 14.03125 -8.375 C 14.082031 -8.300781 14.128906 -8.269531 14.171875 -8.28125 C 14.210938 -8.289062 14.234375 -8.34375 14.234375 -8.4375 Z M 14.203125 -23.890625 "/></g></g></g><g fill="#ffffff" fill-opacity="1"><g transform="translate(52.873814, 34.817534)"><g><path d="M 9.40625 0.3125 C 7.882812 0.3125 6.535156 0 5.359375 -0.625 C 4.191406 -1.25 3.289062 -2.132812 2.65625 -3.28125 C 2.019531 -4.425781 1.703125 -5.753906 1.703125 -7.265625 L 1.703125 -17.046875 C 1.703125 -18.535156 2.019531 -19.851562 2.65625 -21 C 3.289062 -22.144531 4.191406 -23.03125 5.359375 -23.65625 C 6.535156 -24.28125 7.882812 -24.59375 9.40625 -24.59375 C 10.957031 -24.59375 12.316406 -24.28125 13.484375 -23.65625 C 14.660156 -23.03125 15.570312 -22.144531 16.21875 -21 C 16.863281 -19.851562 17.1875 -18.535156 17.1875 -17.046875 L 17.1875 -7.265625 C 17.1875 -5.753906 16.863281 -4.425781 16.21875 -3.28125 C 15.570312 -2.132812 14.660156 -1.25 13.484375 -0.625 C 12.316406 0 10.957031 0.3125 9.40625 0.3125 Z M 9.40625 -3.15625 C 10.539062 -3.15625 11.453125 -3.519531 12.140625 -4.25 C 12.828125 -4.976562 13.171875 -5.921875 13.171875 -7.078125 L 13.171875 -17.15625 C 13.171875 -18.34375 12.828125 -19.300781 12.140625 -20.03125 C 11.453125 -20.757812 10.539062 -21.125 9.40625 -21.125 C 8.300781 -21.125 7.410156 -20.757812 6.734375 -20.03125 C 6.066406 -19.300781 5.734375 -18.34375 5.734375 -17.15625 L 5.734375 -7.078125 C 5.734375 -5.921875 6.066406 -4.976562 6.734375 -4.25 C 7.410156 -3.519531 8.300781 -3.15625 9.40625 -3.15625 Z M 9.40625 -3.15625 "/></g></g></g><g fill="#ffffff" fill-opacity="1"><g transform="translate(73.681262, 34.817534)"><g><path d="M 1.453125 -8.71875 C 1.335938 -8.71875 1.238281 -8.757812 1.15625 -8.84375 C 1.082031 -8.925781 1.046875 -9.023438 1.046875 -9.140625 L 1.046875 -11.78125 C 1.046875 -11.894531 1.082031 -11.988281 1.15625 -12.0625 C 1.238281 -12.144531 1.335938 -12.1875 1.453125 -12.1875 L 11.21875 -12.1875 C 11.332031 -12.1875 11.429688 -12.144531 11.515625 -12.0625 C 11.597656 -11.988281 11.640625 -11.894531 11.640625 -11.78125 L 11.640625 -9.140625 C 11.640625 -9.023438 11.597656 -8.925781 11.515625 -8.84375 C 11.429688 -8.757812 11.332031 -8.71875 11.21875 -8.71875 Z M 1.453125 -8.71875 "/></g></g></g><g fill="#ffffff" fill-opacity="1"><g transform="translate(88.236072, 34.817534)"><g><path d="M 9.3125 0.28125 C 7.800781 0.28125 6.472656 -0.0195312 5.328125 -0.625 C 4.179688 -1.226562 3.289062 -2.078125 2.65625 -3.171875 C 2.019531 -4.273438 1.703125 -5.546875 1.703125 -6.984375 L 1.703125 -17.328125 C 1.703125 -18.765625 2.019531 -20.03125 2.65625 -21.125 C 3.289062 -22.226562 4.179688 -23.082031 5.328125 -23.6875 C 6.472656 -24.289062 7.800781 -24.59375 9.3125 -24.59375 C 10.8125 -24.59375 12.140625 -24.296875 13.296875 -23.703125 C 14.460938 -23.117188 15.363281 -22.289062 16 -21.21875 C 16.632812 -20.15625 16.953125 -18.941406 16.953125 -17.578125 L 16.953125 -16.78125 C 16.953125 -16.664062 16.910156 -16.566406 16.828125 -16.484375 C 16.742188 -16.398438 16.644531 -16.359375 16.53125 -16.359375 L 13.34375 -16.359375 C 13.226562 -16.359375 13.128906 -16.398438 13.046875 -16.484375 C 12.960938 -16.566406 12.921875 -16.664062 12.921875 -16.78125 L 12.921875 -17.578125 C 12.921875 -18.617188 12.585938 -19.46875 11.921875 -20.125 C 11.265625 -20.789062 10.394531 -21.125 9.3125 -21.125 C 8.25 -21.125 7.382812 -20.78125 6.71875 -20.09375 C 6.0625 -19.40625 5.734375 -18.507812 5.734375 -17.40625 L 5.734375 -6.90625 C 5.734375 -5.800781 6.070312 -4.90625 6.75 -4.21875 C 7.4375 -3.539062 8.320312 -3.203125 9.40625 -3.203125 C 10.476562 -3.203125 11.332031 -3.503906 11.96875 -4.109375 C 12.601562 -4.722656 12.921875 -5.566406 12.921875 -6.640625 L 12.921875 -9.375 C 12.921875 -9.488281 12.863281 -9.546875 12.75 -9.546875 L 9.59375 -9.546875 C 9.46875 -9.546875 9.363281 -9.585938 9.28125 -9.671875 C 9.207031 -9.753906 9.171875 -9.851562 9.171875 -9.96875 L 9.171875 -12.5 C 9.171875 -12.613281 9.207031 -12.710938 9.28125 -12.796875 C 9.363281 -12.878906 9.46875 -12.921875 9.59375 -12.921875 L 16.53125 -12.921875 C 16.644531 -12.921875 16.742188 -12.878906 16.828125 -12.796875 C 16.910156 -12.710938 16.953125 -12.613281 16.953125 -12.5 L 16.953125 -7.078125 C 16.953125 -4.785156 16.253906 -2.984375 14.859375 -1.671875 C 13.472656 -0.367188 11.625 0.28125 9.3125 0.28125 Z M 9.3125 0.28125 "/></g></g></g><g fill="#ffffff" fill-opacity="1"><g transform="translate(108.800358, 34.817534)"><g><path d="M 9.65625 0.28125 C 8.15625 0.28125 6.820312 -0.03125 5.65625 -0.65625 C 4.5 -1.28125 3.601562 -2.164062 2.96875 -3.3125 C 2.332031 -4.457031 2.015625 -5.785156 2.015625 -7.296875 L 2.015625 -23.890625 C 2.015625 -24.015625 2.050781 -24.113281 2.125 -24.1875 C 2.207031 -24.269531 2.3125 -24.3125 2.4375 -24.3125 L 5.625 -24.3125 C 5.738281 -24.3125 5.835938 -24.269531 5.921875 -24.1875 C 6.003906 -24.113281 6.046875 -24.015625 6.046875 -23.890625 L 6.046875 -7.078125 C 6.046875 -5.921875 6.375 -4.984375 7.03125 -4.265625 C 7.695312 -3.554688 8.570312 -3.203125 9.65625 -3.203125 C 10.738281 -3.203125 11.613281 -3.554688 12.28125 -4.265625 C 12.957031 -4.984375 13.296875 -5.921875 13.296875 -7.078125 L 13.296875 -23.890625 C 13.296875 -24.015625 13.335938 -24.113281 13.421875 -24.1875 C 13.503906 -24.269531 13.601562 -24.3125 13.71875 -24.3125 L 16.921875 -24.3125 C 17.035156 -24.3125 17.128906 -24.269531 17.203125 -24.1875 C 17.285156 -24.113281 17.328125 -24.015625 17.328125 -23.890625 L 17.328125 -7.296875 C 17.328125 -5.785156 17.007812 -4.457031 16.375 -3.3125 C 15.738281 -2.164062 14.84375 -1.28125 13.6875 -0.65625 C 12.53125 -0.03125 11.1875 0.28125 9.65625 0.28125 Z M 9.65625 0.28125 "/></g></g></g><g fill="#ffffff" fill-opacity="1"><g transform="translate(130.059389, 34.817534)"><g><path d="M 2.640625 0 C 2.523438 0 2.425781 -0.0390625 2.34375 -0.125 C 2.257812 -0.207031 2.21875 -0.304688 2.21875 -0.421875 L 2.21875 -23.890625 C 2.21875 -24.015625 2.257812 -24.113281 2.34375 -24.1875 C 2.425781 -24.269531 2.523438 -24.3125 2.640625 -24.3125 L 5.828125 -24.3125 C 5.953125 -24.3125 6.050781 -24.269531 6.125 -24.1875 C 6.207031 -24.113281 6.25 -24.015625 6.25 -23.890625 L 6.25 -3.640625 C 6.25 -3.523438 6.304688 -3.46875 6.421875 -3.46875 L 15.984375 -3.46875 C 16.097656 -3.46875 16.191406 -3.425781 16.265625 -3.34375 C 16.347656 -3.269531 16.390625 -3.175781 16.390625 -3.0625 L 16.390625 -0.421875 C 16.390625 -0.304688 16.347656 -0.207031 16.265625 -0.125 C 16.191406 -0.0390625 16.097656 0 15.984375 0 Z M 2.640625 0 "/></g></g></g><g fill="#ffffff" fill-opacity="1"><g transform="translate(149.095246, 34.817534)"><g><path d="M 16.46875 -21.25 C 16.46875 -21.132812 16.425781 -21.035156 16.34375 -20.953125 C 16.257812 -20.878906 16.160156 -20.84375 16.046875 -20.84375 L 6.421875 -20.84375 C 6.304688 -20.84375 6.25 -20.785156 6.25 -20.671875 L 6.25 -14.140625 C 6.25 -14.023438 6.304688 -13.96875 6.421875 -13.96875 L 12.609375 -13.96875 C 12.722656 -13.96875 12.820312 -13.925781 12.90625 -13.84375 C 12.988281 -13.757812 13.03125 -13.660156 13.03125 -13.546875 L 13.03125 -10.90625 C 13.03125 -10.789062 12.988281 -10.691406 12.90625 -10.609375 C 12.820312 -10.523438 12.722656 -10.484375 12.609375 -10.484375 L 6.421875 -10.484375 C 6.304688 -10.484375 6.25 -10.425781 6.25 -10.3125 L 6.25 -0.421875 C 6.25 -0.304688 6.207031 -0.207031 6.125 -0.125 C 6.050781 -0.0390625 5.953125 0 5.828125 0 L 2.640625 0 C 2.523438 0 2.425781 -0.0390625 2.34375 -0.125 C 2.257812 -0.207031 2.21875 -0.304688 2.21875 -0.421875 L 2.21875 -23.890625 C 2.21875 -24.015625 2.257812 -24.113281 2.34375 -24.1875 C 2.425781 -24.269531 2.523438 -24.3125 2.640625 -24.3125 L 16.046875 -24.3125 C 16.160156 -24.3125 16.257812 -24.269531 16.34375 -24.1875 C 16.425781 -24.113281 16.46875 -24.015625 16.46875 -23.890625 Z M 16.46875 -21.25 "/></g></g></g><g fill="#ffffff" fill-opacity="1"><g transform="translate(167.992162, 34.817534)"><g/></g></g><g fill="#e4ab55" fill-opacity="1"><g transform="translate(176.851701, 34.817534)"><g><path d="M 7.578125 -0.03125 C 7.460938 -0.03125 7.363281 -0.0703125 7.28125 -0.15625 C 7.195312 -0.238281 7.15625 -0.335938 7.15625 -0.453125 L 7.15625 -9.828125 L 7.125 -10.03125 L 1.109375 -23.828125 C 1.085938 -23.867188 1.078125 -23.9375 1.078125 -24.03125 C 1.078125 -24.21875 1.191406 -24.3125 1.421875 -24.3125 L 4.828125 -24.3125 C 5.078125 -24.3125 5.238281 -24.207031 5.3125 -24 L 9.0625 -14.625 C 9.132812 -14.457031 9.207031 -14.457031 9.28125 -14.625 L 12.984375 -24 C 13.054688 -24.207031 13.222656 -24.3125 13.484375 -24.3125 L 16.921875 -24.3125 C 17.078125 -24.3125 17.175781 -24.265625 17.21875 -24.171875 C 17.269531 -24.078125 17.273438 -23.960938 17.234375 -23.828125 L 11.1875 -10.03125 L 11.15625 -9.828125 L 11.15625 -0.453125 C 11.15625 -0.335938 11.113281 -0.238281 11.03125 -0.15625 C 10.945312 -0.0703125 10.847656 -0.03125 10.734375 -0.03125 Z M 7.578125 -0.03125 "/></g></g></g><g fill="#e4ab55" fill-opacity="1"><g transform="translate(197.103356, 34.817534)"><g><path d="M 9.40625 0.3125 C 7.882812 0.3125 6.535156 0 5.359375 -0.625 C 4.191406 -1.25 3.289062 -2.132812 2.65625 -3.28125 C 2.019531 -4.425781 1.703125 -5.753906 1.703125 -7.265625 L 1.703125 -17.046875 C 1.703125 -18.535156 2.019531 -19.851562 2.65625 -21 C 3.289062 -22.144531 4.191406 -23.03125 5.359375 -23.65625 C 6.535156 -24.28125 7.882812 -24.59375 9.40625 -24.59375 C 10.957031 -24.59375 12.316406 -24.28125 13.484375 -23.65625 C 14.660156 -23.03125 15.570312 -22.144531 16.21875 -21 C 16.863281 -19.851562 17.1875 -18.535156 17.1875 -17.046875 L 17.1875 -7.265625 C 17.1875 -5.753906 16.863281 -4.425781 16.21875 -3.28125 C 15.570312 -2.132812 14.660156 -1.25 13.484375 -0.625 C 12.316406 0 10.957031 0.3125 9.40625 0.3125 Z M 9.40625 -3.15625 C 10.539062 -3.15625 11.453125 -3.519531 12.140625 -4.25 C 12.828125 -4.976562 13.171875 -5.921875 13.171875 -7.078125 L 13.171875 -17.15625 C 13.171875 -18.34375 12.828125 -19.300781 12.140625 -20.03125 C 11.453125 -20.757812 10.539062 -21.125 9.40625 -21.125 C 8.300781 -21.125 7.410156 -20.757812 6.734375 -20.03125 C 6.066406 -19.300781 5.734375 -18.34375 5.734375 -17.15625 L 5.734375 -7.078125 C 5.734375 -5.921875 6.066406 -4.976562 6.734375 -4.25 C 7.410156 -3.519531 8.300781 -3.15625 9.40625 -3.15625 Z M 9.40625 -3.15625 "/></g></g></g><g fill="#e4ab55" fill-opacity="1"><g transform="translate(217.910804, 34.817534)"><g><path d="M 9.65625 0.28125 C 8.15625 0.28125 6.820312 -0.03125 5.65625 -0.65625 C 4.5 -1.28125 3.601562 -2.164062 2.96875 -3.3125 C 2.332031 -4.457031 2.015625 -5.785156 2.015625 -7.296875 L 2.015625 -23.890625 C 2.015625 -24.015625 2.050781 -24.113281 2.125 -24.1875 C 2.207031 -24.269531 2.3125 -24.3125 2.4375 -24.3125 L 5.625 -24.3125 C 5.738281 -24.3125 5.835938 -24.269531 5.921875 -24.1875 C 6.003906 -24.113281 6.046875 -24.015625 6.046875 -23.890625 L 6.046875 -7.078125 C 6.046875 -5.921875 6.375 -4.984375 7.03125 -4.265625 C 7.695312 -3.554688 8.570312 -3.203125 9.65625 -3.203125 C 10.738281 -3.203125 11.613281 -3.554688 12.28125 -4.265625 C 12.957031 -4.984375 13.296875 -5.921875 13.296875 -7.078125 L 13.296875 -23.890625 C 13.296875 -24.015625 13.335938 -24.113281 13.421875 -24.1875 C 13.503906 -24.269531 13.601562 -24.3125 13.71875 -24.3125 L 16.921875 -24.3125 C 17.035156 -24.3125 17.128906 -24.269531 17.203125 -24.1875 C 17.285156 -24.113281 17.328125 -24.015625 17.328125 -23.890625 L 17.328125 -7.296875 C 17.328125 -5.785156 17.007812 -4.457031 16.375 -3.3125 C 15.738281 -2.164062 14.84375 -1.28125 13.6875 -0.65625 C 12.53125 -0.03125 11.1875 0.28125 9.65625 0.28125 Z M 9.65625 0.28125 "/></g></g></g><g fill="#e4ab55" fill-opacity="1"><g transform="translate(239.16983, 34.817534)"><g><path d="M 16.421875 -24.3125 C 16.546875 -24.3125 16.644531 -24.269531 16.71875 -24.1875 C 16.800781 -24.113281 16.84375 -24.015625 16.84375 -23.890625 L 16.84375 -21.21875 C 16.84375 -21.101562 16.800781 -21.003906 16.71875 -20.921875 C 16.644531 -20.847656 16.546875 -20.8125 16.421875 -20.8125 L 11.046875 -20.8125 C 10.929688 -20.8125 10.875 -20.75 10.875 -20.625 L 10.875 -0.421875 C 10.875 -0.304688 10.832031 -0.207031 10.75 -0.125 C 10.664062 -0.0390625 10.566406 0 10.453125 0 L 7.265625 0 C 7.140625 0 7.035156 -0.0390625 6.953125 -0.125 C 6.878906 -0.207031 6.84375 -0.304688 6.84375 -0.421875 L 6.84375 -20.625 C 6.84375 -20.75 6.785156 -20.8125 6.671875 -20.8125 L 1.5 -20.8125 C 1.375 -20.8125 1.269531 -20.847656 1.1875 -20.921875 C 1.113281 -21.003906 1.078125 -21.101562 1.078125 -21.21875 L 1.078125 -23.890625 C 1.078125 -24.015625 1.113281 -24.113281 1.1875 -24.1875 C 1.269531 -24.269531 1.375 -24.3125 1.5 -24.3125 Z M 16.421875 -24.3125 "/></g></g></g><g fill="#e4ab55" fill-opacity="1"><g transform="translate(259.004642, 34.817534)"><g><path d="M 13.203125 -23.890625 C 13.203125 -24.015625 13.238281 -24.113281 13.3125 -24.1875 C 13.394531 -24.269531 13.492188 -24.3125 13.609375 -24.3125 L 16.8125 -24.3125 C 16.925781 -24.3125 17.023438 -24.269531 17.109375 -24.1875 C 17.191406 -24.113281 17.234375 -24.015625 17.234375 -23.890625 L 17.234375 -0.421875 C 17.234375 -0.304688 17.191406 -0.207031 17.109375 -0.125 C 17.023438 -0.0390625 16.925781 0 16.8125 0 L 13.609375 0 C 13.492188 0 13.394531 -0.0390625 13.3125 -0.125 C 13.238281 -0.207031 13.203125 -0.304688 13.203125 -0.421875 L 13.203125 -10.28125 C 13.203125 -10.394531 13.144531 -10.453125 13.03125 -10.453125 L 6.421875 -10.453125 C 6.304688 -10.453125 6.25 -10.394531 6.25 -10.28125 L 6.25 -0.421875 C 6.25 -0.304688 6.207031 -0.207031 6.125 -0.125 C 6.050781 -0.0390625 5.953125 0 5.828125 0 L 2.640625 0 C 2.523438 0 2.425781 -0.0390625 2.34375 -0.125 C 2.257812 -0.207031 2.21875 -0.304688 2.21875 -0.421875 L 2.21875 -23.890625 C 2.21875 -24.015625 2.257812 -24.113281 2.34375 -24.1875 C 2.425781 -24.269531 2.523438 -24.3125 2.640625 -24.3125 L 5.828125 -24.3125 C 5.953125 -24.3125 6.050781 -24.269531 6.125 -24.1875 C 6.207031 -24.113281 6.25 -24.015625 6.25 -23.890625 L 6.25 -14.140625 C 6.25 -14.023438 6.304688 -13.96875 6.421875 -13.96875 L 13.03125 -13.96875 C 13.144531 -13.96875 13.203125 -14.023438 13.203125 -14.140625 Z M 13.203125 -23.890625 "/></g></g></g><g fill="#e4ab55" fill-opacity="1"><g transform="translate(280.263667, 34.817534)"><g/></g></g><g fill="#e4ab55" fill-opacity="1"><g transform="translate(289.121633, 34.817534)"><g><path d="M 14.203125 -23.890625 C 14.203125 -24.015625 14.242188 -24.113281 14.328125 -24.1875 C 14.410156 -24.269531 14.507812 -24.3125 14.625 -24.3125 L 17.8125 -24.3125 C 17.9375 -24.3125 18.035156 -24.269531 18.109375 -24.1875 C 18.191406 -24.113281 18.234375 -24.015625 18.234375 -23.890625 L 18.234375 -0.421875 C 18.234375 -0.304688 18.191406 -0.207031 18.109375 -0.125 C 18.035156 -0.0390625 17.9375 0 17.8125 0 L 14.453125 0 C 14.242188 0 14.082031 -0.101562 13.96875 -0.3125 L 6.390625 -15.875 C 6.347656 -15.945312 6.300781 -15.972656 6.25 -15.953125 C 6.207031 -15.941406 6.1875 -15.890625 6.1875 -15.796875 L 6.21875 -0.421875 C 6.21875 -0.304688 6.175781 -0.207031 6.09375 -0.125 C 6.007812 -0.0390625 5.910156 0 5.796875 0 L 2.609375 0 C 2.492188 0 2.394531 -0.0390625 2.3125 -0.125 C 2.226562 -0.207031 2.1875 -0.304688 2.1875 -0.421875 L 2.1875 -23.890625 C 2.1875 -24.015625 2.226562 -24.113281 2.3125 -24.1875 C 2.394531 -24.269531 2.492188 -24.3125 2.609375 -24.3125 L 5.9375 -24.3125 C 6.164062 -24.3125 6.328125 -24.207031 6.421875 -24 L 14.03125 -8.375 C 14.082031 -8.300781 14.128906 -8.269531 14.171875 -8.28125 C 14.210938 -8.289062 14.234375 -8.34375 14.234375 -8.4375 Z M 14.203125 -23.890625 "/></g></g></g><g fill="#e4ab55" fill-opacity="1"><g transform="translate(311.45751, 34.817534)"><g><path d="M 16.5 -21.25 C 16.5 -21.132812 16.457031 -21.035156 16.375 -20.953125 C 16.289062 -20.878906 16.191406 -20.84375 16.078125 -20.84375 L 6.421875 -20.84375 C 6.304688 -20.84375 6.25 -20.785156 6.25 -20.671875 L 6.25 -14.140625 C 6.25 -14.023438 6.304688 -13.96875 6.421875 -13.96875 L 12.609375 -13.96875 C 12.722656 -13.96875 12.820312 -13.925781 12.90625 -13.84375 C 12.988281 -13.757812 13.03125 -13.660156 13.03125 -13.546875 L 13.03125 -10.90625 C 13.03125 -10.789062 12.988281 -10.691406 12.90625 -10.609375 C 12.820312 -10.523438 12.722656 -10.484375 12.609375 -10.484375 L 6.421875 -10.484375 C 6.304688 -10.484375 6.25 -10.425781 6.25 -10.3125 L 6.25 -3.640625 C 6.25 -3.523438 6.304688 -3.46875 6.421875 -3.46875 L 16.078125 -3.46875 C 16.191406 -3.46875 16.289062 -3.425781 16.375 -3.34375 C 16.457031 -3.269531 16.5 -3.175781 16.5 -3.0625 L 16.5 -0.421875 C 16.5 -0.304688 16.457031 -0.207031 16.375 -0.125 C 16.289062 -0.0390625 16.191406 0 16.078125 0 L 2.640625 0 C 2.523438 0 2.425781 -0.0390625 2.34375 -0.125 C 2.257812 -0.207031 2.21875 -0.304688 2.21875 -0.421875 L 2.21875 -23.890625 C 2.21875 -24.015625 2.257812 -24.113281 2.34375 -24.1875 C 2.425781 -24.269531 2.523438 -24.3125 2.640625 -24.3125 L 16.078125 -24.3125 C 16.191406 -24.3125 16.289062 -24.269531 16.375 -24.1875 C 16.457031 -24.113281 16.5 -24.015625 16.5 -23.890625 Z M 16.5 -21.25 "/></g></g></g><g fill="#e4ab55" fill-opacity="1"><g transform="translate(331.188112, 34.817534)"><g><path d="M 16.421875 -24.3125 C 16.546875 -24.3125 16.644531 -24.269531 16.71875 -24.1875 C 16.800781 -24.113281 16.84375 -24.015625 16.84375 -23.890625 L 16.84375 -21.21875 C 16.84375 -21.101562 16.800781 -21.003906 16.71875 -20.921875 C 16.644531 -20.847656 16.546875 -20.8125 16.421875 -20.8125 L 11.046875 -20.8125 C 10.929688 -20.8125 10.875 -20.75 10.875 -20.625 L 10.875 -0.421875 C 10.875 -0.304688 10.832031 -0.207031 10.75 -0.125 C 10.664062 -0.0390625 10.566406 0 10.453125 0 L 7.265625 0 C 7.140625 0 7.035156 -0.0390625 6.953125 -0.125 C 6.878906 -0.207031 6.84375 -0.304688 6.84375 -0.421875 L 6.84375 -20.625 C 6.84375 -20.75 6.785156 -20.8125 6.671875 -20.8125 L 1.5 -20.8125 C 1.375 -20.8125 1.269531 -20.847656 1.1875 -20.921875 C 1.113281 -21.003906 1.078125 -21.101562 1.078125 -21.21875 L 1.078125 -23.890625 C 1.078125 -24.015625 1.113281 -24.113281 1.1875 -24.1875 C 1.269531 -24.269531 1.375 -24.3125 1.5 -24.3125 Z M 16.421875 -24.3125 "/></g></g></g><g fill="#e4ab55" fill-opacity="1"><g transform="translate(351.022913, 34.817534)"><g><path d="M 6.8125 0 C 6.570312 0 6.421875 -0.113281 6.359375 -0.34375 L 0.875 -23.859375 L 0.875 -24 C 0.875 -24.207031 1 -24.3125 1.25 -24.3125 L 4.578125 -24.3125 C 4.835938 -24.3125 4.988281 -24.1875 5.03125 -23.9375 L 8.265625 -8.75 C 8.285156 -8.6875 8.316406 -8.65625 8.359375 -8.65625 C 8.410156 -8.65625 8.445312 -8.695312 8.46875 -8.78125 L 11.46875 -23.9375 C 11.488281 -24.1875 11.632812 -24.3125 11.90625 -24.3125 L 14.9375 -24.3125 C 15.1875 -24.3125 15.335938 -24.1875 15.390625 -23.9375 L 18.625 -8.75 C 18.644531 -8.65625 18.675781 -8.609375 18.71875 -8.609375 C 18.769531 -8.609375 18.804688 -8.65625 18.828125 -8.75 L 21.875 -23.9375 C 21.925781 -24.1875 22.078125 -24.3125 22.328125 -24.3125 L 25.53125 -24.3125 C 25.851562 -24.3125 25.976562 -24.160156 25.90625 -23.859375 L 20.734375 -0.375 C 20.691406 -0.125 20.539062 0 20.28125 0 L 17.15625 0 C 16.90625 0 16.753906 -0.125 16.703125 -0.375 L 13.515625 -16.046875 C 13.492188 -16.117188 13.457031 -16.15625 13.40625 -16.15625 C 13.363281 -16.15625 13.328125 -16.117188 13.296875 -16.046875 L 10.28125 -0.375 C 10.257812 -0.125 10.109375 0 9.828125 0 Z M 6.8125 0 "/></g></g></g><g fill="#e4ab55" fill-opacity="1"><g transform="translate(379.715629, 34.817534)"><g><path d="M 9.40625 0.3125 C 7.882812 0.3125 6.535156 0 5.359375 -0.625 C 4.191406 -1.25 3.289062 -2.132812 2.65625 -3.28125 C 2.019531 -4.425781 1.703125 -5.753906 1.703125 -7.265625 L 1.703125 -17.046875 C 1.703125 -18.535156 2.019531 -19.851562 2.65625 -21 C 3.289062 -22.144531 4.191406 -23.03125 5.359375 -23.65625 C 6.535156 -24.28125 7.882812 -24.59375 9.40625 -24.59375 C 10.957031 -24.59375 12.316406 -24.28125 13.484375 -23.65625 C 14.660156 -23.03125 15.570312 -22.144531 16.21875 -21 C 16.863281 -19.851562 17.1875 -18.535156 17.1875 -17.046875 L 17.1875 -7.265625 C 17.1875 -5.753906 16.863281 -4.425781 16.21875 -3.28125 C 15.570312 -2.132812 14.660156 -1.25 13.484375 -0.625 C 12.316406 0 10.957031 0.3125 9.40625 0.3125 Z M 9.40625 -3.15625 C 10.539062 -3.15625 11.453125 -3.519531 12.140625 -4.25 C 12.828125 -4.976562 13.171875 -5.921875 13.171875 -7.078125 L 13.171875 -17.15625 C 13.171875 -18.34375 12.828125 -19.300781 12.140625 -20.03125 C 11.453125 -20.757812 10.539062 -21.125 9.40625 -21.125 C 8.300781 -21.125 7.410156 -20.757812 6.734375 -20.03125 C 6.066406 -19.300781 5.734375 -18.34375 5.734375 -17.15625 L 5.734375 -7.078125 C 5.734375 -5.921875 6.066406 -4.976562 6.734375 -4.25 C 7.410156 -3.519531 8.300781 -3.15625 9.40625 -3.15625 Z M 9.40625 -3.15625 "/></g></g></g><g fill="#e4ab55" fill-opacity="1"><g transform="translate(400.523077, 34.817534)"><g><path d="M 13.828125 0 C 13.566406 0 13.40625 -0.113281 13.34375 -0.34375 L 9.59375 -10.3125 C 9.539062 -10.40625 9.476562 -10.453125 9.40625 -10.453125 L 6.421875 -10.453125 C 6.304688 -10.453125 6.25 -10.394531 6.25 -10.28125 L 6.25 -0.421875 C 6.25 -0.304688 6.207031 -0.207031 6.125 -0.125 C 6.050781 -0.0390625 5.953125 0 5.828125 0 L 2.640625 0 C 2.523438 0 2.425781 -0.0390625 2.34375 -0.125 C 2.257812 -0.207031 2.21875 -0.304688 2.21875 -0.421875 L 2.21875 -23.890625 C 2.21875 -24.015625 2.257812 -24.113281 2.34375 -24.1875 C 2.425781 -24.269531 2.523438 -24.3125 2.640625 -24.3125 L 10.65625 -24.3125 C 11.976562 -24.3125 13.148438 -24.015625 14.171875 -23.421875 C 15.191406 -22.835938 15.976562 -22.003906 16.53125 -20.921875 C 17.09375 -19.847656 17.375 -18.617188 17.375 -17.234375 C 17.375 -15.722656 17.023438 -14.410156 16.328125 -13.296875 C 15.628906 -12.191406 14.679688 -11.40625 13.484375 -10.9375 C 13.359375 -10.894531 13.320312 -10.816406 13.375 -10.703125 L 17.46875 -0.484375 C 17.488281 -0.441406 17.5 -0.375 17.5 -0.28125 C 17.5 -0.09375 17.382812 0 17.15625 0 Z M 6.421875 -20.84375 C 6.304688 -20.84375 6.25 -20.785156 6.25 -20.671875 L 6.25 -13.75 C 6.25 -13.632812 6.304688 -13.578125 6.421875 -13.578125 L 10.078125 -13.578125 C 11.046875 -13.578125 11.832031 -13.90625 12.4375 -14.5625 C 13.039062 -15.226562 13.34375 -16.101562 13.34375 -17.1875 C 13.34375 -18.300781 13.039062 -19.1875 12.4375 -19.84375 C 11.832031 -20.507812 11.046875 -20.84375 10.078125 -20.84375 Z M 6.421875 -20.84375 "/></g></g></g><g fill="#e4ab55" fill-opacity="1"><g transform="translate(421.087364, 34.817534)"><g><path d="M 2.640625 0 C 2.523438 0 2.425781 -0.0390625 2.34375 -0.125 C 2.257812 -0.207031 2.21875 -0.304688 2.21875 -0.421875 L 2.21875 -23.890625 C 2.21875 -24.015625 2.257812 -24.113281 2.34375 -24.1875 C 2.425781 -24.269531 2.523438 -24.3125 2.640625 -24.3125 L 5.828125 -24.3125 C 5.953125 -24.3125 6.050781 -24.269531 6.125 -24.1875 C 6.207031 -24.113281 6.25 -24.015625 6.25 -23.890625 L 6.25 -13.890625 C 6.25 -13.828125 6.269531 -13.78125 6.3125 -13.75 C 6.363281 -13.726562 6.410156 -13.753906 6.453125 -13.828125 L 13.578125 -24.03125 C 13.691406 -24.21875 13.851562 -24.3125 14.0625 -24.3125 L 17.578125 -24.3125 C 17.734375 -24.3125 17.84375 -24.257812 17.90625 -24.15625 C 17.96875 -24.050781 17.953125 -23.929688 17.859375 -23.796875 L 11.28125 -14.03125 C 11.257812 -13.957031 11.257812 -13.878906 11.28125 -13.796875 L 18.34375 -0.484375 C 18.382812 -0.390625 18.40625 -0.320312 18.40625 -0.28125 C 18.40625 -0.09375 18.289062 0 18.0625 0 L 14.515625 0 C 14.285156 0 14.113281 -0.101562 14 -0.3125 L 8.515625 -10.65625 C 8.484375 -10.726562 8.445312 -10.765625 8.40625 -10.765625 C 8.363281 -10.765625 8.316406 -10.742188 8.265625 -10.703125 L 6.328125 -8.03125 C 6.273438 -7.9375 6.25 -7.863281 6.25 -7.8125 L 6.25 -0.421875 C 6.25 -0.304688 6.207031 -0.207031 6.125 -0.125 C 6.050781 -0.0390625 5.953125 0 5.828125 0 Z M 2.640625 0 "/></g></g></g></g></g><g transform="matrix(1, 0, 0, 1, 260, 64)"><g clip-path="url(#6ff7aa85f3)"><g fill="#ffffff" fill-opacity="1"><g transform="translate(0.455691, 23.436453)"><g><path d="M 12.214844 -7.316406 L 12.214844 -13.351562 L 18.753906 -13.351562 L 18.753906 -7.316406 Z M 3.941406 -7.316406 L 3.941406 -13.351562 L 10.460938 -13.351562 L 10.460938 -7.316406 Z M 12.214844 -15.015625 L 12.214844 -19.074219 L 10.460938 -19.074219 L 10.460938 -15.015625 L 2.277344 -15.015625 L 2.277344 -4.238281 L 3.941406 -4.238281 L 3.941406 -5.652344 L 10.460938 -5.652344 L 10.460938 1.730469 L 12.214844 1.730469 L 12.214844 -5.652344 L 18.753906 -5.652344 L 18.753906 -4.351562 L 20.484375 -4.351562 L 20.484375 -15.015625 Z M 12.214844 -15.015625 "/></g></g></g><g fill="#ffffff" fill-opacity="1"><g transform="translate(24.49537, 23.436453)"><g><path d="M 5.695312 -9.957031 C 4.875 -10.640625 3.257812 -11.574219 1.960938 -12.144531 L 1.027344 -10.984375 C 2.324219 -10.367188 3.917969 -9.367188 4.738281 -8.636719 Z M 3.167969 1.367188 C 4.148438 -0.753906 5.285156 -3.625 6.128906 -5.992188 L 4.832031 -6.949219 C 3.898438 -4.351562 2.597656 -1.34375 1.6875 0.433594 Z M 2.234375 -17.589844 C 3.601562 -16.953125 5.308594 -15.90625 6.128906 -15.175781 L 7.132812 -16.476562 C 6.265625 -17.179688 4.535156 -18.183594 3.191406 -18.753906 Z M 21.304688 -14.949219 L 21.304688 -16.496094 L 10.890625 -16.496094 C 11.1875 -17.203125 11.484375 -17.933594 11.734375 -18.664062 L 10.070312 -19.074219 C 9.25 -16.429688 7.863281 -13.785156 6.242188 -12.054688 C 6.675781 -11.847656 7.382812 -11.394531 7.726562 -11.121094 C 8.566406 -12.144531 9.433594 -13.46875 10.164062 -14.949219 Z M 12.101562 -5.878906 C 13.101562 -5.035156 14.265625 -3.828125 14.789062 -3.054688 L 15.835938 -3.761719 C 15.265625 -4.582031 14.082031 -5.71875 13.078125 -6.496094 Z M 9.683594 -3.054688 C 9.84375 -4.101562 10.027344 -5.308594 10.1875 -6.5625 L 18.410156 -6.5625 C 18.320312 -5.105469 18.207031 -3.964844 18.09375 -3.054688 Z M 18.640625 -11.28125 C 18.59375 -10.09375 18.546875 -9.070312 18.480469 -8.113281 L 15.246094 -8.113281 L 16.203125 -8.773438 C 15.699219 -9.503906 14.582031 -10.574219 13.625 -11.28125 L 12.691406 -10.664062 C 13.648438 -9.933594 14.71875 -8.863281 15.199219 -8.113281 L 10.414062 -8.113281 C 10.550781 -9.183594 10.6875 -10.253906 10.824219 -11.28125 Z M 21.875 -6.5625 L 21.875 -8.113281 L 20.074219 -8.113281 C 20.121094 -9.25 20.1875 -10.527344 20.257812 -11.964844 C 20.257812 -12.167969 20.28125 -12.761719 20.28125 -12.761719 L 9.386719 -12.761719 C 9.25 -11.347656 9.046875 -9.730469 8.839844 -8.113281 L 6.515625 -8.113281 L 6.515625 -6.5625 L 8.613281 -6.5625 C 8.363281 -4.695312 8.066406 -2.894531 7.792969 -1.550781 L 17.863281 -1.550781 C 17.707031 -0.820312 17.546875 -0.363281 17.339844 -0.160156 C 17.136719 0.113281 16.90625 0.160156 16.496094 0.160156 C 16.085938 0.160156 15.015625 0.136719 13.855469 0.046875 C 14.082031 0.457031 14.242188 1.046875 14.289062 1.480469 C 15.382812 1.550781 16.519531 1.59375 17.160156 1.527344 C 17.84375 1.457031 18.320312 1.277344 18.730469 0.730469 C 19.050781 0.34375 19.277344 -0.320312 19.503906 -1.550781 L 21.238281 -1.550781 L 21.238281 -3.054688 L 19.710938 -3.054688 C 19.800781 -3.988281 19.894531 -5.148438 20.007812 -6.5625 Z M 21.875 -6.5625 "/></g></g></g><g fill="#ffffff" fill-opacity="1"><g transform="translate(48.53505, 23.436453)"><g><path d="M 11.234375 -10.09375 L 12.785156 -10.09375 L 12.785156 -15.539062 L 15.265625 -15.539062 L 15.265625 -10.09375 L 16.816406 -10.09375 L 16.816406 -15.539062 L 21.691406 -15.539062 L 21.691406 -16.976562 L 15.382812 -16.976562 C 15.152344 -17.707031 14.765625 -18.640625 14.332031 -19.347656 L 12.804688 -18.9375 C 13.125 -18.34375 13.421875 -17.613281 13.625 -16.976562 L 7.199219 -16.976562 L 7.199219 -15.539062 L 11.234375 -15.539062 Z M 17.613281 -14.128906 C 18.730469 -13.101562 19.984375 -11.644531 20.507812 -10.640625 L 21.785156 -11.4375 C 21.238281 -12.441406 19.984375 -13.808594 18.84375 -14.835938 Z M 3.007812 1.117188 C 3.828125 -0.957031 4.738281 -3.761719 5.402344 -6.085938 L 4.035156 -7.042969 C 3.28125 -4.535156 2.257812 -1.574219 1.503906 0.160156 Z M 4.808594 -9 C 4.308594 -10.003906 3.191406 -11.4375 2.234375 -12.488281 L 0.910156 -11.734375 C 1.847656 -10.664062 2.917969 -9.136719 3.394531 -8.179688 Z M 1.867188 -17.933594 C 2.847656 -16.816406 3.988281 -15.246094 4.488281 -14.242188 L 5.902344 -15.152344 C 5.355469 -16.15625 4.171875 -17.660156 3.191406 -18.730469 Z M 9.046875 -14.8125 C 8.410156 -13.558594 7.335938 -12.328125 6.175781 -11.4375 C 6.515625 -11.257812 7.132812 -10.800781 7.382812 -10.550781 C 8.5 -11.507812 9.730469 -12.964844 10.480469 -14.402344 Z M 9.617188 -3.53125 C 9.753906 -4.035156 9.890625 -4.582031 10.027344 -5.105469 L 20.007812 -5.105469 L 20.007812 -9.410156 L 7.542969 -9.410156 L 7.542969 -8.089844 L 18.410156 -8.089844 L 18.410156 -6.425781 L 8.683594 -6.425781 C 8.410156 -5.035156 7.953125 -3.351562 7.542969 -2.1875 L 19.027344 -2.1875 C 18.707031 -0.773438 18.367188 -0.0898438 17.980469 0.207031 C 17.796875 0.363281 17.570312 0.386719 17.160156 0.386719 C 16.703125 0.386719 15.519531 0.363281 14.355469 0.25 C 14.605469 0.660156 14.789062 1.253906 14.8125 1.6875 C 16.042969 1.777344 17.179688 1.777344 17.75 1.730469 C 18.410156 1.710938 18.84375 1.617188 19.253906 1.253906 C 19.914062 0.753906 20.371094 -0.386719 20.828125 -2.824219 C 20.894531 -3.054688 20.941406 -3.53125 20.941406 -3.53125 Z M 9.617188 -3.53125 "/></g></g></g><g fill="#ffffff" fill-opacity="1"><g transform="translate(72.57473, 23.436453)"><g><path d="M 6.265625 -3.191406 L 6.265625 -4.832031 L 16.679688 -4.832031 L 16.679688 -3.191406 Z M 16.679688 -7.679688 L 16.679688 -6.039062 L 6.265625 -6.039062 L 6.265625 -7.679688 Z M 18.367188 -8.976562 L 4.601562 -8.976562 L 4.601562 1.800781 L 6.265625 1.800781 L 6.265625 -1.960938 L 16.679688 -1.960938 L 16.679688 -0.113281 C 16.679688 0.226562 16.566406 0.320312 16.179688 0.34375 C 15.835938 0.34375 14.445312 0.34375 13.058594 0.320312 C 13.285156 0.730469 13.535156 1.277344 13.625 1.710938 C 15.496094 1.710938 16.726562 1.710938 17.433594 1.457031 C 18.136719 1.230469 18.367188 0.820312 18.367188 -0.113281 Z M 12.191406 -11.734375 L 12.191406 -13.398438 L 19.1875 -13.398438 L 19.1875 -14.699219 L 12.191406 -14.699219 L 12.191406 -16.203125 L 20.144531 -16.203125 L 20.144531 -17.546875 L 12.191406 -17.546875 L 12.191406 -19.074219 L 10.503906 -19.074219 L 10.503906 -17.546875 L 2.894531 -17.546875 L 2.894531 -16.203125 L 10.503906 -16.203125 L 10.503906 -14.699219 L 3.667969 -14.699219 L 3.667969 -13.398438 L 10.503906 -13.398438 L 10.503906 -11.734375 L 1.4375 -11.734375 L 1.4375 -10.390625 L 21.351562 -10.390625 L 21.351562 -11.734375 Z M 12.191406 -11.734375 "/></g></g></g><g fill="#ffffff" fill-opacity="1"><g transform="translate(96.614409, 23.436453)"><g><path d="M 6.585938 -5.105469 L 6.585938 -9.617188 L 11.691406 -9.617188 L 11.691406 -5.105469 Z M 21.648438 -5.105469 L 13.398438 -5.105469 L 13.398438 -9.617188 L 20.074219 -9.617188 L 20.074219 -11.210938 L 13.398438 -11.210938 L 13.398438 -14.675781 L 20.597656 -14.675781 L 20.597656 -16.316406 L 7.019531 -16.316406 C 7.382812 -17.089844 7.746094 -17.910156 8.066406 -18.707031 L 6.359375 -19.117188 C 5.285156 -16.066406 3.371094 -13.125 1.230469 -11.257812 C 1.664062 -11.027344 2.371094 -10.460938 2.6875 -10.1875 C 3.917969 -11.371094 5.128906 -12.921875 6.152344 -14.675781 L 11.691406 -14.675781 L 11.691406 -11.210938 L 4.898438 -11.210938 L 4.898438 -5.105469 L 1.164062 -5.105469 L 1.164062 -3.464844 L 11.691406 -3.464844 L 11.691406 1.753906 L 13.398438 1.753906 L 13.398438 -3.464844 L 21.648438 -3.464844 Z M 21.648438 -5.105469 "/></g></g></g><g fill="#ffffff" fill-opacity="1"><g transform="translate(120.654089, 23.436453)"><g><path d="M 11.53125 -4.71875 C 10.984375 -5.695312 10.1875 -6.925781 9.296875 -8.203125 C 9.914062 -10.070312 10.390625 -12.144531 10.753906 -14.355469 L 9.207031 -14.515625 C 8.933594 -12.828125 8.613281 -11.257812 8.179688 -9.753906 C 7.316406 -10.914062 6.402344 -12.101562 5.515625 -13.125 L 4.464844 -12.191406 C 5.492188 -10.9375 6.609375 -9.457031 7.609375 -8.019531 C 6.746094 -5.605469 5.539062 -3.578125 3.964844 -2.050781 C 4.328125 -1.824219 5.035156 -1.34375 5.285156 -1.117188 C 6.652344 -2.574219 7.769531 -4.375 8.683594 -6.515625 C 9.367188 -5.445312 9.980469 -4.445312 10.414062 -3.625 Z M 18.160156 -3.917969 C 17.613281 -5.128906 16.75 -6.632812 15.746094 -8.15625 C 16.359375 -10.027344 16.816406 -12.078125 17.160156 -14.308594 L 15.632812 -14.46875 C 15.382812 -12.804688 15.085938 -11.234375 14.652344 -9.753906 C 13.832031 -10.890625 12.964844 -12.03125 12.101562 -13.035156 L 11.007812 -12.191406 C 12.03125 -10.914062 13.125 -9.433594 14.105469 -8 C 13.195312 -5.492188 11.984375 -3.394531 10.300781 -1.867188 C 10.6875 -1.664062 11.347656 -1.183594 11.644531 -0.933594 C 13.078125 -2.414062 14.195312 -4.238281 15.109375 -6.402344 C 15.882812 -5.128906 16.519531 -3.917969 16.976562 -2.941406 Z M 20.757812 -17.683594 L 2.097656 -17.683594 L 2.097656 1.710938 L 3.78125 1.710938 L 3.78125 -16.085938 L 19.09375 -16.085938 L 19.09375 -0.5 C 19.09375 -0.113281 18.914062 0.0234375 18.503906 0.046875 C 18.070312 0.046875 16.589844 0.0703125 15.085938 0 C 15.3125 0.480469 15.632812 1.207031 15.722656 1.6875 C 17.773438 1.710938 19.003906 1.664062 19.734375 1.390625 C 20.460938 1.09375 20.757812 0.570312 20.757812 -0.5 Z M 20.757812 -17.683594 "/></g></g></g><g fill="#ffffff" fill-opacity="1"><g transform="translate(144.693768, 23.436453)"><g><path d="M 1.390625 0.5 C 3.488281 -0.183594 6.265625 -1.027344 8.933594 -1.824219 L 8.660156 -3.304688 C 5.8125 -2.484375 2.917969 -1.640625 1.027344 -1.183594 Z M 18.617188 -5.242188 L 18.617188 -1.09375 L 12.191406 -1.09375 L 12.191406 -5.242188 Z M 10.617188 1.527344 L 12.191406 1.527344 L 12.191406 0.410156 L 18.617188 0.410156 L 18.617188 1.503906 L 20.257812 1.503906 L 20.257812 -6.769531 L 10.617188 -6.769531 Z M 12.738281 -15.359375 L 18.707031 -15.359375 C 17.886719 -13.898438 16.726562 -12.667969 15.382812 -11.597656 C 14.195312 -12.601562 13.238281 -13.761719 12.578125 -15.085938 Z M 19.960938 -16.953125 L 19.640625 -16.90625 L 13.605469 -16.90625 C 13.921875 -17.546875 14.242188 -18.253906 14.515625 -18.914062 L 12.988281 -19.367188 C 12.03125 -16.863281 10.4375 -14.46875 8.683594 -12.875 L 8.933594 -13.308594 L 7.453125 -14.195312 C 7.042969 -13.421875 6.585938 -12.625 6.085938 -11.847656 L 3.214844 -11.554688 C 4.535156 -13.445312 5.878906 -15.882812 6.882812 -18.207031 L 5.285156 -18.980469 C 4.351562 -16.269531 2.667969 -13.398438 2.164062 -12.648438 C 1.664062 -11.871094 1.253906 -11.371094 0.867188 -11.257812 C 1.070312 -10.800781 1.320312 -9.980469 1.414062 -9.617188 C 1.730469 -9.777344 2.277344 -9.914062 5.082031 -10.300781 C 4.078125 -8.863281 3.167969 -7.703125 2.734375 -7.292969 C 2.050781 -6.449219 1.503906 -5.902344 1.027344 -5.8125 C 1.207031 -5.355469 1.480469 -4.535156 1.574219 -4.191406 C 2.050781 -4.488281 2.804688 -4.71875 8.410156 -6.085938 C 8.339844 -6.449219 8.316406 -7.132812 8.363281 -7.566406 L 4.191406 -6.652344 C 5.71875 -8.410156 7.246094 -10.527344 8.566406 -12.691406 C 8.886719 -12.375 9.367188 -11.710938 9.59375 -11.417969 C 10.300781 -12.078125 11.007812 -12.851562 11.644531 -13.742188 C 12.328125 -12.648438 13.171875 -11.597656 14.171875 -10.6875 C 12.464844 -9.570312 10.527344 -8.703125 8.546875 -8.136719 C 8.796875 -7.769531 9.136719 -7.019531 9.273438 -6.5625 C 11.417969 -7.292969 13.558594 -8.316406 15.425781 -9.660156 C 17.089844 -8.386719 19.09375 -7.382812 21.214844 -6.699219 C 21.328125 -7.15625 21.601562 -7.839844 21.898438 -8.25 C 19.960938 -8.75 18.160156 -9.570312 16.65625 -10.597656 C 18.457031 -12.167969 19.984375 -14.058594 20.941406 -16.316406 Z M 19.960938 -16.953125 "/></g></g></g><g fill="#ffffff" fill-opacity="1"><g transform="translate(168.733446, 23.436453)"><g/></g></g><g fill="#ffffff" fill-opacity="1"><g transform="translate(174.543985, 23.436453)"><g><path d="M 1.1875 1.828125 C 1.03125 1.828125 0.953125 1.75 0.953125 1.59375 L 0.953125 -17.078125 C 0.953125 -17.234375 1.03125 -17.3125 1.1875 -17.3125 L 2.34375 -17.3125 C 2.5 -17.3125 2.578125 -17.234375 2.578125 -17.078125 L 2.578125 1.59375 C 2.578125 1.75 2.5 1.828125 2.34375 1.828125 Z M 1.1875 1.828125 "/></g></g></g></g></g><g transform="matrix(1, 0, 0, 1, 447, 66)"><g clip-path="url(#a18c9aba28)"><g fill="#ffffff" fill-opacity="1"><g transform="translate(1.089394, 16.753419)"><g><path d="M 0.640625 0.015625 C 0.640625 -0.492188 0.707031 -1.0625 0.84375 -1.6875 C 0.988281 -2.320312 1.222656 -3.015625 1.546875 -3.765625 L 3.078125 -3.171875 C 2.847656 -2.566406 2.675781 -2.015625 2.5625 -1.515625 C 2.445312 -1.015625 2.390625 -0.550781 2.390625 -0.125 C 2.390625 0.664062 2.617188 1.304688 3.078125 1.796875 C 3.546875 2.296875 4.160156 2.660156 4.921875 2.890625 C 5.691406 3.117188 6.535156 3.234375 7.453125 3.234375 C 8.546875 3.234375 9.546875 3.109375 10.453125 2.859375 C 11.359375 2.609375 12.082031 2.269531 12.625 1.84375 C 13.164062 1.414062 13.4375 0.941406 13.4375 0.421875 C 13.4375 0.0546875 13.148438 -0.257812 12.578125 -0.53125 C 12.015625 -0.800781 11.21875 -1.082031 10.1875 -1.375 L 10.59375 -3.140625 C 12.0625 -2.554688 13.210938 -2.160156 14.046875 -1.953125 C 14.890625 -1.742188 15.53125 -1.640625 15.96875 -1.640625 C 16.269531 -1.640625 16.488281 -1.554688 16.625 -1.390625 C 16.757812 -1.234375 16.828125 -1.039062 16.828125 -0.8125 C 16.828125 -0.582031 16.722656 -0.367188 16.515625 -0.171875 C 16.316406 0.015625 16.0625 0.109375 15.75 0.109375 L 14.96875 0.109375 C 14.976562 0.234375 14.992188 0.332031 15.015625 0.40625 C 15.035156 0.488281 15.046875 0.597656 15.046875 0.734375 C 15.046875 1.429688 14.722656 2.101562 14.078125 2.75 C 13.441406 3.394531 12.519531 3.925781 11.3125 4.34375 C 10.101562 4.757812 8.660156 4.96875 6.984375 4.96875 C 5.835938 4.96875 4.785156 4.785156 3.828125 4.421875 C 2.867188 4.066406 2.097656 3.519531 1.515625 2.78125 C 0.929688 2.050781 0.640625 1.128906 0.640625 0.015625 Z M 8.515625 9.015625 C 8.210938 9.015625 7.957031 8.910156 7.75 8.703125 C 7.539062 8.492188 7.4375 8.25 7.4375 7.96875 C 7.4375 7.675781 7.539062 7.421875 7.75 7.203125 C 7.957031 6.992188 8.210938 6.890625 8.515625 6.890625 C 8.796875 6.890625 9.039062 6.992188 9.25 7.203125 C 9.457031 7.421875 9.5625 7.675781 9.5625 7.96875 C 9.5625 8.25 9.457031 8.492188 9.25 8.703125 C 9.039062 8.910156 8.796875 9.015625 8.515625 9.015625 Z M 5.578125 9.015625 C 5.273438 9.015625 5.019531 8.910156 4.8125 8.703125 C 4.613281 8.492188 4.515625 8.25 4.515625 7.96875 C 4.515625 7.675781 4.613281 7.421875 4.8125 7.203125 C 5.019531 6.992188 5.273438 6.890625 5.578125 6.890625 C 5.867188 6.890625 6.113281 6.992188 6.3125 7.203125 C 6.519531 7.421875 6.625 7.675781 6.625 7.96875 C 6.625 8.25 6.519531 8.492188 6.3125 8.703125 C 6.113281 8.910156 5.867188 9.015625 5.578125 9.015625 Z M 5.578125 9.015625 "/></g></g></g><g fill="#ffffff" fill-opacity="1"><g transform="translate(16.844761, 16.753419)"><g><path d="M 0 0.109375 L 0.21875 -1.640625 C 0.8125 -1.640625 1.28125 -1.691406 1.625 -1.796875 C 1.96875 -1.910156 2.226562 -2.117188 2.40625 -2.421875 C 2.582031 -2.734375 2.734375 -3.179688 2.859375 -3.765625 C 2.992188 -4.347656 3.15625 -5.113281 3.34375 -6.0625 L 5.015625 -5.734375 C 4.921875 -5.347656 4.820312 -4.90625 4.71875 -4.40625 C 4.613281 -3.90625 4.5625 -3.484375 4.5625 -3.140625 C 4.5625 -2.859375 4.625 -2.601562 4.75 -2.375 C 4.875 -2.144531 5.144531 -1.960938 5.5625 -1.828125 C 5.988281 -1.703125 6.65625 -1.640625 7.5625 -1.640625 C 7.851562 -1.640625 8.066406 -1.554688 8.203125 -1.390625 C 8.335938 -1.234375 8.40625 -1.039062 8.40625 -0.8125 C 8.40625 -0.582031 8.304688 -0.367188 8.109375 -0.171875 C 7.910156 0.015625 7.65625 0.109375 7.34375 0.109375 C 6.21875 0.109375 5.382812 -0.0078125 4.84375 -0.25 C 4.300781 -0.5 3.925781 -0.863281 3.71875 -1.34375 C 3.289062 -0.75 2.796875 -0.359375 2.234375 -0.171875 C 1.679688 0.015625 0.9375 0.109375 0 0.109375 Z M 4 -8.25 C 3.695312 -8.25 3.441406 -8.351562 3.234375 -8.5625 C 3.035156 -8.769531 2.9375 -9.019531 2.9375 -9.3125 C 2.9375 -9.59375 3.035156 -9.835938 3.234375 -10.046875 C 3.441406 -10.265625 3.695312 -10.375 4 -10.375 C 4.289062 -10.375 4.535156 -10.265625 4.734375 -10.046875 C 4.941406 -9.835938 5.046875 -9.59375 5.046875 -9.3125 C 5.046875 -9.019531 4.941406 -8.769531 4.734375 -8.5625 C 4.535156 -8.351562 4.289062 -8.25 4 -8.25 Z M 4 -8.25 "/></g></g></g><g fill="#ffffff" fill-opacity="1"><g transform="translate(24.18727, 16.753419)"><g><path d="M 0 0.109375 L 0.21875 -1.640625 C 0.925781 -1.640625 1.476562 -1.691406 1.875 -1.796875 C 2.28125 -1.910156 2.585938 -2.117188 2.796875 -2.421875 C 3.003906 -2.734375 3.171875 -3.179688 3.296875 -3.765625 C 3.421875 -4.347656 3.578125 -5.113281 3.765625 -6.0625 L 5.4375 -5.734375 C 5.351562 -5.347656 5.253906 -4.90625 5.140625 -4.40625 C 5.035156 -3.90625 4.984375 -3.484375 4.984375 -3.140625 C 4.984375 -2.929688 5 -2.734375 5.03125 -2.546875 C 5.0625 -2.359375 5.164062 -2.203125 5.34375 -2.078125 C 5.53125 -1.953125 5.84375 -1.847656 6.28125 -1.765625 C 6.726562 -1.679688 7.367188 -1.640625 8.203125 -1.640625 C 8.492188 -1.640625 8.707031 -1.554688 8.84375 -1.390625 C 8.988281 -1.234375 9.0625 -1.039062 9.0625 -0.8125 C 9.0625 -0.582031 8.957031 -0.367188 8.75 -0.171875 C 8.550781 0.015625 8.296875 0.109375 7.984375 0.109375 C 7.054688 0.109375 6.332031 0.0546875 5.8125 -0.046875 C 5.289062 -0.160156 4.90625 -0.316406 4.65625 -0.515625 C 4.40625 -0.722656 4.222656 -0.988281 4.109375 -1.3125 C 3.691406 -0.71875 3.179688 -0.332031 2.578125 -0.15625 C 1.972656 0.0195312 1.113281 0.109375 0 0.109375 Z M 5.390625 4.15625 C 5.085938 4.15625 4.832031 4.050781 4.625 3.84375 C 4.414062 3.632812 4.3125 3.390625 4.3125 3.109375 C 4.3125 2.816406 4.414062 2.5625 4.625 2.34375 C 4.832031 2.132812 5.085938 2.03125 5.390625 2.03125 C 5.671875 2.03125 5.914062 2.132812 6.125 2.34375 C 6.332031 2.5625 6.4375 2.816406 6.4375 3.109375 C 6.4375 3.390625 6.332031 3.632812 6.125 3.84375 C 5.914062 4.050781 5.671875 4.15625 5.390625 4.15625 Z M 2.453125 4.15625 C 2.148438 4.15625 1.894531 4.050781 1.6875 3.84375 C 1.488281 3.632812 1.390625 3.390625 1.390625 3.109375 C 1.390625 2.816406 1.488281 2.5625 1.6875 2.34375 C 1.894531 2.132812 2.148438 2.03125 2.453125 2.03125 C 2.742188 2.03125 2.988281 2.132812 3.1875 2.34375 C 3.394531 2.5625 3.5 2.816406 3.5 3.109375 C 3.5 3.390625 3.394531 3.632812 3.1875 3.84375 C 2.988281 4.050781 2.742188 4.15625 2.453125 4.15625 Z M 2.453125 4.15625 "/></g></g></g><g fill="#ffffff" fill-opacity="1"><g transform="translate(32.171986, 16.753419)"><g><path d="M 10.359375 0.390625 C 8.828125 0.390625 7.59375 0.320312 6.65625 0.1875 C 5.726562 0.0507812 5.019531 -0.15625 4.53125 -0.4375 C 4.050781 -0.71875 3.71875 -1.070312 3.53125 -1.5 C 3.1875 -1 2.828125 -0.632812 2.453125 -0.40625 C 2.078125 -0.1875 1.679688 -0.046875 1.265625 0.015625 C 0.859375 0.078125 0.4375 0.109375 0 0.109375 L 0.21875 -1.640625 C 0.882812 -1.640625 1.394531 -1.769531 1.75 -2.03125 C 2.113281 -2.300781 2.394531 -2.742188 2.59375 -3.359375 C 2.800781 -3.972656 3.035156 -4.816406 3.296875 -5.890625 L 4.859375 -5.484375 C 4.710938 -4.984375 4.597656 -4.53125 4.515625 -4.125 C 4.441406 -3.71875 4.40625 -3.421875 4.40625 -3.234375 C 4.40625 -2.835938 4.515625 -2.503906 4.734375 -2.234375 C 4.960938 -1.972656 5.425781 -1.773438 6.125 -1.640625 C 6.582031 -2.359375 7.125 -3.082031 7.75 -3.8125 C 8.375 -4.550781 9.054688 -5.226562 9.796875 -5.84375 C 10.546875 -6.457031 11.320312 -6.953125 12.125 -7.328125 C 12.9375 -7.710938 13.753906 -7.90625 14.578125 -7.90625 C 15.359375 -7.90625 16.03125 -7.742188 16.59375 -7.421875 C 17.164062 -7.097656 17.601562 -6.664062 17.90625 -6.125 C 18.207031 -5.582031 18.359375 -4.96875 18.359375 -4.28125 C 18.359375 -3.4375 18.109375 -2.660156 17.609375 -1.953125 C 17.117188 -1.253906 16.289062 -0.6875 15.125 -0.25 C 13.957031 0.175781 12.367188 0.390625 10.359375 0.390625 Z M 14.453125 -6.140625 C 13.804688 -6.140625 13.15625 -5.976562 12.5 -5.65625 C 11.851562 -5.34375 11.238281 -4.9375 10.65625 -4.4375 C 10.070312 -3.9375 9.546875 -3.414062 9.078125 -2.875 C 8.609375 -2.34375 8.21875 -1.863281 7.90625 -1.4375 C 8.65625 -1.394531 9.601562 -1.375 10.75 -1.375 C 12.632812 -1.375 14.097656 -1.601562 15.140625 -2.0625 C 16.191406 -2.53125 16.71875 -3.210938 16.71875 -4.109375 C 16.71875 -4.421875 16.640625 -4.726562 16.484375 -5.03125 C 16.328125 -5.34375 16.078125 -5.601562 15.734375 -5.8125 C 15.398438 -6.03125 14.972656 -6.140625 14.453125 -6.140625 Z M 20.3125 0.109375 C 19.9375 0.109375 19.46875 0.0703125 18.90625 0 C 18.34375 -0.0820312 17.769531 -0.222656 17.1875 -0.421875 C 16.613281 -0.628906 16.128906 -0.910156 15.734375 -1.265625 L 17.484375 -2.140625 C 17.984375 -1.941406 18.5 -1.804688 19.03125 -1.734375 C 19.570312 -1.671875 20.070312 -1.640625 20.53125 -1.640625 C 20.820312 -1.640625 21.035156 -1.554688 21.171875 -1.390625 C 21.316406 -1.234375 21.390625 -1.039062 21.390625 -0.8125 C 21.390625 -0.582031 21.285156 -0.367188 21.078125 -0.171875 C 20.878906 0.015625 20.625 0.109375 20.3125 0.109375 Z M 20.3125 0.109375 "/></g></g></g><g fill="#ffffff" fill-opacity="1"><g transform="translate(52.486989, 16.753419)"><g><path d="M 0 0.109375 L 0.1875 -1.640625 C 1 -1.640625 1.566406 -1.71875 1.890625 -1.875 C 2.222656 -2.039062 2.414062 -2.316406 2.46875 -2.703125 C 2.519531 -3.097656 2.53125 -3.660156 2.5 -4.390625 L 2.09375 -15.28125 L 3.828125 -15.28125 L 4.265625 -4.578125 C 4.304688 -3.566406 4.234375 -2.710938 4.046875 -2.015625 C 3.867188 -1.316406 3.46875 -0.785156 2.84375 -0.421875 C 2.226562 -0.0664062 1.28125 0.109375 0 0.109375 Z M 0 0.109375 "/></g></g></g><g fill="#ffffff" fill-opacity="1"><g transform="translate(58.052751, 16.753419)"><g><path d="M 1.96875 0 L 1.546875 -15.28125 L 3.28125 -15.28125 L 3.703125 0 Z M 1.96875 0 "/></g></g></g><g fill="#ffffff" fill-opacity="1"><g transform="translate(63.147561, 16.753419)"><g/></g></g><g fill="#ffffff" fill-opacity="1"><g transform="translate(70.433004, 16.753419)"><g><path d="M 0.640625 0.015625 C 0.640625 -0.492188 0.707031 -1.0625 0.84375 -1.6875 C 0.988281 -2.320312 1.222656 -3.015625 1.546875 -3.765625 L 3.078125 -3.171875 C 2.847656 -2.566406 2.675781 -2.015625 2.5625 -1.515625 C 2.445312 -1.015625 2.390625 -0.550781 2.390625 -0.125 C 2.390625 0.664062 2.617188 1.304688 3.078125 1.796875 C 3.546875 2.296875 4.160156 2.660156 4.921875 2.890625 C 5.691406 3.117188 6.535156 3.234375 7.453125 3.234375 C 8.546875 3.234375 9.546875 3.109375 10.453125 2.859375 C 11.359375 2.609375 12.082031 2.269531 12.625 1.84375 C 13.164062 1.414062 13.4375 0.941406 13.4375 0.421875 C 13.4375 0.0546875 13.148438 -0.257812 12.578125 -0.53125 C 12.015625 -0.800781 11.21875 -1.082031 10.1875 -1.375 L 10.59375 -3.140625 C 12.0625 -2.554688 13.210938 -2.160156 14.046875 -1.953125 C 14.890625 -1.742188 15.53125 -1.640625 15.96875 -1.640625 C 16.269531 -1.640625 16.488281 -1.554688 16.625 -1.390625 C 16.757812 -1.234375 16.828125 -1.039062 16.828125 -0.8125 C 16.828125 -0.582031 16.722656 -0.367188 16.515625 -0.171875 C 16.316406 0.015625 16.0625 0.109375 15.75 0.109375 L 14.96875 0.109375 C 14.976562 0.234375 14.992188 0.332031 15.015625 0.40625 C 15.035156 0.488281 15.046875 0.597656 15.046875 0.734375 C 15.046875 1.429688 14.722656 2.101562 14.078125 2.75 C 13.441406 3.394531 12.519531 3.925781 11.3125 4.34375 C 10.101562 4.757812 8.660156 4.96875 6.984375 4.96875 C 5.835938 4.96875 4.785156 4.785156 3.828125 4.421875 C 2.867188 4.066406 2.097656 3.519531 1.515625 2.78125 C 0.929688 2.050781 0.640625 1.128906 0.640625 0.015625 Z M 8.515625 9.015625 C 8.210938 9.015625 7.957031 8.910156 7.75 8.703125 C 7.539062 8.492188 7.4375 8.25 7.4375 7.96875 C 7.4375 7.675781 7.539062 7.421875 7.75 7.203125 C 7.957031 6.992188 8.210938 6.890625 8.515625 6.890625 C 8.796875 6.890625 9.039062 6.992188 9.25 7.203125 C 9.457031 7.421875 9.5625 7.675781 9.5625 7.96875 C 9.5625 8.25 9.457031 8.492188 9.25 8.703125 C 9.039062 8.910156 8.796875 9.015625 8.515625 9.015625 Z M 5.578125 9.015625 C 5.273438 9.015625 5.019531 8.910156 4.8125 8.703125 C 4.613281 8.492188 4.515625 8.25 4.515625 7.96875 C 4.515625 7.675781 4.613281 7.421875 4.8125 7.203125 C 5.019531 6.992188 5.273438 6.890625 5.578125 6.890625 C 5.867188 6.890625 6.113281 6.992188 6.3125 7.203125 C 6.519531 7.421875 6.625 7.675781 6.625 7.96875 C 6.625 8.25 6.519531 8.492188 6.3125 8.703125 C 6.113281 8.910156 5.867188 9.015625 5.578125 9.015625 Z M 5.578125 9.015625 "/></g></g></g><g fill="#ffffff" fill-opacity="1"><g transform="translate(86.188371, 16.753419)"><g><path d="M 0 0.109375 L 0.1875 -1.640625 C 1.65625 -1.640625 3.082031 -1.859375 4.46875 -2.296875 C 5.851562 -2.734375 7.117188 -3.351562 8.265625 -4.15625 C 7.703125 -4.632812 7.019531 -5.023438 6.21875 -5.328125 C 5.414062 -5.628906 4.523438 -5.78125 3.546875 -5.78125 C 3.191406 -5.78125 2.878906 -5.757812 2.609375 -5.71875 C 2.335938 -5.6875 2.007812 -5.628906 1.625 -5.546875 L 1.28125 -7.171875 C 2.082031 -7.410156 2.835938 -7.53125 3.546875 -7.53125 C 4.296875 -7.53125 4.96875 -7.441406 5.5625 -7.265625 C 6.164062 -7.085938 6.710938 -6.867188 7.203125 -6.609375 C 7.691406 -6.359375 8.15625 -6.101562 8.59375 -5.84375 C 9.03125 -5.582031 9.453125 -5.363281 9.859375 -5.1875 C 10.273438 -5.007812 10.707031 -4.921875 11.15625 -4.921875 L 11.609375 -4.921875 L 11.75 -3.375 C 11.3125 -3.375 10.882812 -3.328125 10.46875 -3.234375 C 10.738281 -2.585938 11.125 -2.160156 11.625 -1.953125 C 12.125 -1.742188 12.863281 -1.640625 13.84375 -1.640625 C 14.144531 -1.640625 14.363281 -1.554688 14.5 -1.390625 C 14.632812 -1.234375 14.703125 -1.039062 14.703125 -0.8125 C 14.703125 -0.582031 14.601562 -0.367188 14.40625 -0.171875 C 14.207031 0.015625 13.953125 0.109375 13.640625 0.109375 C 12.867188 0.109375 12.175781 0.0390625 11.5625 -0.09375 C 10.957031 -0.226562 10.441406 -0.5 10.015625 -0.90625 C 9.585938 -1.3125 9.273438 -1.921875 9.078125 -2.734375 C 8.535156 -2.484375 7.984375 -2.195312 7.421875 -1.875 C 6.859375 -1.550781 6.234375 -1.238281 5.546875 -0.9375 C 4.859375 -0.644531 4.0625 -0.394531 3.15625 -0.1875 C 2.257812 0.0078125 1.207031 0.109375 0 0.109375 Z M 5.578125 3.984375 C 5.273438 3.984375 5.019531 3.878906 4.8125 3.671875 C 4.613281 3.460938 4.515625 3.210938 4.515625 2.921875 C 4.515625 2.640625 4.613281 2.390625 4.8125 2.171875 C 5.019531 1.960938 5.273438 1.859375 5.578125 1.859375 C 5.867188 1.859375 6.113281 1.960938 6.3125 2.171875 C 6.519531 2.390625 6.625 2.640625 6.625 2.921875 C 6.625 3.210938 6.519531 3.460938 6.3125 3.671875 C 6.113281 3.878906 5.867188 3.984375 5.578125 3.984375 Z M 5.578125 3.984375 "/></g></g></g><g fill="#ffffff" fill-opacity="1"><g transform="translate(99.824469, 16.753419)"><g><path d="M 0 0.109375 L 0.21875 -1.640625 C 0.925781 -1.640625 1.476562 -1.691406 1.875 -1.796875 C 2.28125 -1.910156 2.585938 -2.117188 2.796875 -2.421875 C 3.003906 -2.734375 3.171875 -3.179688 3.296875 -3.765625 C 3.421875 -4.347656 3.578125 -5.113281 3.765625 -6.0625 L 5.4375 -5.734375 C 5.351562 -5.347656 5.253906 -4.90625 5.140625 -4.40625 C 5.035156 -3.90625 4.984375 -3.484375 4.984375 -3.140625 C 4.984375 -2.929688 5 -2.734375 5.03125 -2.546875 C 5.0625 -2.359375 5.164062 -2.203125 5.34375 -2.078125 C 5.53125 -1.953125 5.84375 -1.847656 6.28125 -1.765625 C 6.726562 -1.679688 7.367188 -1.640625 8.203125 -1.640625 C 8.492188 -1.640625 8.707031 -1.554688 8.84375 -1.390625 C 8.988281 -1.234375 9.0625 -1.039062 9.0625 -0.8125 C 9.0625 -0.582031 8.957031 -0.367188 8.75 -0.171875 C 8.550781 0.015625 8.296875 0.109375 7.984375 0.109375 C 7.054688 0.109375 6.332031 0.0546875 5.8125 -0.046875 C 5.289062 -0.160156 4.90625 -0.316406 4.65625 -0.515625 C 4.40625 -0.722656 4.222656 -0.988281 4.109375 -1.3125 C 3.691406 -0.71875 3.179688 -0.332031 2.578125 -0.15625 C 1.972656 0.0195312 1.113281 0.109375 0 0.109375 Z M 5.390625 4.15625 C 5.085938 4.15625 4.832031 4.050781 4.625 3.84375 C 4.414062 3.632812 4.3125 3.390625 4.3125 3.109375 C 4.3125 2.816406 4.414062 2.5625 4.625 2.34375 C 4.832031 2.132812 5.085938 2.03125 5.390625 2.03125 C 5.671875 2.03125 5.914062 2.132812 6.125 2.34375 C 6.332031 2.5625 6.4375 2.816406 6.4375 3.109375 C 6.4375 3.390625 6.332031 3.632812 6.125 3.84375 C 5.914062 4.050781 5.671875 4.15625 5.390625 4.15625 Z M 2.453125 4.15625 C 2.148438 4.15625 1.894531 4.050781 1.6875 3.84375 C 1.488281 3.632812 1.390625 3.390625 1.390625 3.109375 C 1.390625 2.816406 1.488281 2.5625 1.6875 2.34375 C 1.894531 2.132812 2.148438 2.03125 2.453125 2.03125 C 2.742188 2.03125 2.988281 2.132812 3.1875 2.34375 C 3.394531 2.5625 3.5 2.816406 3.5 3.109375 C 3.5 3.390625 3.394531 3.632812 3.1875 3.84375 C 2.988281 4.050781 2.742188 4.15625 2.453125 4.15625 Z M 2.453125 4.15625 "/></g></g></g><g fill="#ffffff" fill-opacity="1"><g transform="translate(107.809184, 16.753419)"><g><path d="M 0 0.109375 L 0.1875 -1.640625 C 1 -1.640625 1.566406 -1.71875 1.890625 -1.875 C 2.222656 -2.039062 2.414062 -2.316406 2.46875 -2.703125 C 2.519531 -3.097656 2.53125 -3.660156 2.5 -4.390625 L 2.140625 -15.28125 L 3.921875 -15.28125 L 4.265625 -4.4375 C 4.273438 -3.707031 4.382812 -3.140625 4.59375 -2.734375 C 4.8125 -2.328125 5.097656 -2.039062 5.453125 -1.875 C 5.816406 -1.71875 6.210938 -1.640625 6.640625 -1.640625 C 6.929688 -1.640625 7.144531 -1.554688 7.28125 -1.390625 C 7.414062 -1.234375 7.484375 -1.039062 7.484375 -0.8125 C 7.484375 -0.582031 7.382812 -0.367188 7.1875 -0.171875 C 6.988281 0.015625 6.734375 0.109375 6.421875 0.109375 C 5.691406 0.109375 5.113281 -0.03125 4.6875 -0.3125 C 4.257812 -0.59375 3.953125 -0.929688 3.765625 -1.328125 C 3.484375 -0.859375 3.046875 -0.5 2.453125 -0.25 C 1.859375 -0.0078125 1.039062 0.109375 0 0.109375 Z M 0 0.109375 "/></g></g></g><g fill="#ffffff" fill-opacity="1"><g transform="translate(114.231216, 16.753419)"><g><path d="M 0 0.109375 L 0.1875 -1.640625 C 1.65625 -1.640625 3.082031 -1.859375 4.46875 -2.296875 C 5.851562 -2.734375 7.117188 -3.351562 8.265625 -4.15625 C 7.703125 -4.632812 7.019531 -5.023438 6.21875 -5.328125 C 5.414062 -5.628906 4.523438 -5.78125 3.546875 -5.78125 C 3.191406 -5.78125 2.878906 -5.757812 2.609375 -5.71875 C 2.335938 -5.6875 2.007812 -5.628906 1.625 -5.546875 L 1.28125 -7.171875 C 2.082031 -7.410156 2.835938 -7.53125 3.546875 -7.53125 C 4.296875 -7.53125 4.96875 -7.441406 5.5625 -7.265625 C 6.164062 -7.085938 6.710938 -6.867188 7.203125 -6.609375 C 7.691406 -6.359375 8.15625 -6.101562 8.59375 -5.84375 C 9.03125 -5.582031 9.453125 -5.363281 9.859375 -5.1875 C 10.273438 -5.007812 10.707031 -4.921875 11.15625 -4.921875 L 11.609375 -4.921875 L 11.75 -3.375 C 11.3125 -3.375 10.882812 -3.328125 10.46875 -3.234375 C 10.738281 -2.585938 11.125 -2.160156 11.625 -1.953125 C 12.125 -1.742188 12.863281 -1.640625 13.84375 -1.640625 C 14.144531 -1.640625 14.363281 -1.554688 14.5 -1.390625 C 14.632812 -1.234375 14.703125 -1.039062 14.703125 -0.8125 C 14.703125 -0.582031 14.601562 -0.367188 14.40625 -0.171875 C 14.207031 0.015625 13.953125 0.109375 13.640625 0.109375 C 12.867188 0.109375 12.175781 0.0390625 11.5625 -0.09375 C 10.957031 -0.226562 10.441406 -0.5 10.015625 -0.90625 C 9.585938 -1.3125 9.273438 -1.921875 9.078125 -2.734375 C 8.535156 -2.484375 7.984375 -2.195312 7.421875 -1.875 C 6.859375 -1.550781 6.234375 -1.238281 5.546875 -0.9375 C 4.859375 -0.644531 4.0625 -0.394531 3.15625 -0.1875 C 2.257812 0.0078125 1.207031 0.109375 0 0.109375 Z M 3.359375 -9.734375 C 3.054688 -9.734375 2.800781 -9.835938 2.59375 -10.046875 C 2.394531 -10.253906 2.296875 -10.503906 2.296875 -10.796875 C 2.296875 -11.078125 2.394531 -11.320312 2.59375 -11.53125 C 2.800781 -11.75 3.054688 -11.859375 3.359375 -11.859375 C 3.648438 -11.859375 3.894531 -11.75 4.09375 -11.53125 C 4.300781 -11.320312 4.40625 -11.078125 4.40625 -10.796875 C 4.40625 -10.503906 4.300781 -10.253906 4.09375 -10.046875 C 3.894531 -9.835938 3.648438 -9.734375 3.359375 -9.734375 Z M 3.359375 -9.734375 "/></g></g></g><g fill="#ffffff" fill-opacity="1"><g transform="translate(127.867313, 16.753419)"><g><path d="M 0 0.109375 L 0.1875 -1.640625 C 1 -1.640625 1.566406 -1.71875 1.890625 -1.875 C 2.222656 -2.039062 2.414062 -2.316406 2.46875 -2.703125 C 2.519531 -3.097656 2.53125 -3.660156 2.5 -4.390625 L 2.09375 -15.28125 L 3.828125 -15.28125 L 4.265625 -4.578125 C 4.304688 -3.566406 4.234375 -2.710938 4.046875 -2.015625 C 3.867188 -1.316406 3.46875 -0.785156 2.84375 -0.421875 C 2.226562 -0.0664062 1.28125 0.109375 0 0.109375 Z M 0 0.109375 "/></g></g></g><g fill="#ffffff" fill-opacity="1"><g transform="translate(133.433075, 16.753419)"><g><path d="M 1.96875 0 L 1.546875 -15.28125 L 3.28125 -15.28125 L 3.703125 0 Z M 1.96875 0 "/></g></g></g><g fill="#ffffff" fill-opacity="1"><g transform="translate(138.527885, 16.753419)"><g/></g></g><g fill="#ffffff" fill-opacity="1"><g transform="translate(145.81333, 16.753419)"><g><path d="M 8.34375 0.453125 C 5.800781 0.453125 3.878906 0.117188 2.578125 -0.546875 C 1.285156 -1.210938 0.640625 -2.328125 0.640625 -3.890625 C 0.640625 -4.421875 0.703125 -4.984375 0.828125 -5.578125 C 0.960938 -6.171875 1.097656 -6.726562 1.234375 -7.25 L 2.84375 -6.84375 C 2.757812 -6.53125 2.660156 -6.128906 2.546875 -5.640625 C 2.441406 -5.160156 2.390625 -4.742188 2.390625 -4.390625 C 2.390625 -3.648438 2.578125 -3.050781 2.953125 -2.59375 C 3.335938 -2.144531 4 -1.816406 4.9375 -1.609375 C 5.882812 -1.410156 7.207031 -1.3125 8.90625 -1.3125 C 12.226562 -1.3125 14.65625 -1.488281 16.1875 -1.84375 C 17.726562 -2.207031 18.5 -2.882812 18.5 -3.875 C 18.5 -4.40625 18.394531 -5.03125 18.1875 -5.75 C 17.988281 -6.46875 17.734375 -7.234375 17.421875 -8.046875 L 19.078125 -8.625 C 19.347656 -7.925781 19.597656 -7.175781 19.828125 -6.375 C 20.066406 -5.582031 20.1875 -4.863281 20.1875 -4.21875 C 20.1875 -3.375 19.992188 -2.65625 19.609375 -2.0625 C 19.222656 -1.46875 18.578125 -0.984375 17.671875 -0.609375 C 16.773438 -0.242188 15.566406 0.0195312 14.046875 0.1875 C 12.523438 0.363281 10.625 0.453125 8.34375 0.453125 Z M 10.40625 4.53125 C 10.101562 4.53125 9.847656 4.425781 9.640625 4.21875 C 9.441406 4.007812 9.34375 3.757812 9.34375 3.46875 C 9.34375 3.1875 9.441406 2.9375 9.640625 2.71875 C 9.847656 2.507812 10.101562 2.40625 10.40625 2.40625 C 10.695312 2.40625 10.941406 2.507812 11.140625 2.71875 C 11.347656 2.9375 11.453125 3.1875 11.453125 3.46875 C 11.453125 3.757812 11.347656 4.007812 11.140625 4.21875 C 10.941406 4.425781 10.695312 4.53125 10.40625 4.53125 Z M 10.40625 4.53125 "/></g></g></g><g fill="#ffffff" fill-opacity="1"><g transform="translate(167.070237, 16.753419)"><g><path d="M 6.234375 0.109375 C 5.078125 0.109375 4.195312 -0.015625 3.59375 -0.265625 C 3 -0.523438 2.585938 -0.925781 2.359375 -1.46875 C 2.128906 -2.019531 2 -2.722656 1.96875 -3.578125 L 1.546875 -15.28125 L 3.296875 -15.28125 L 3.71875 -4.265625 C 3.75 -3.554688 3.816406 -3.015625 3.921875 -2.640625 C 4.035156 -2.265625 4.28125 -2.003906 4.65625 -1.859375 C 5.03125 -1.710938 5.625 -1.640625 6.4375 -1.640625 C 6.738281 -1.640625 6.957031 -1.554688 7.09375 -1.390625 C 7.226562 -1.234375 7.296875 -1.039062 7.296875 -0.8125 C 7.296875 -0.582031 7.195312 -0.367188 7 -0.171875 C 6.800781 0.015625 6.546875 0.109375 6.234375 0.109375 Z M 6.234375 0.109375 "/></g></g></g><g fill="#ffffff" fill-opacity="1"><g transform="translate(173.299603, 16.753419)"><g><path d="M 0 0.109375 L 0.21875 -1.640625 C 0.8125 -1.640625 1.28125 -1.691406 1.625 -1.796875 C 1.96875 -1.910156 2.226562 -2.117188 2.40625 -2.421875 C 2.582031 -2.734375 2.734375 -3.179688 2.859375 -3.765625 C 2.992188 -4.347656 3.15625 -5.113281 3.34375 -6.0625 L 5.015625 -5.734375 C 4.921875 -5.347656 4.820312 -4.90625 4.71875 -4.40625 C 4.613281 -3.90625 4.5625 -3.484375 4.5625 -3.140625 C 4.5625 -2.859375 4.625 -2.601562 4.75 -2.375 C 4.875 -2.144531 5.144531 -1.960938 5.5625 -1.828125 C 5.988281 -1.703125 6.65625 -1.640625 7.5625 -1.640625 C 7.851562 -1.640625 8.066406 -1.554688 8.203125 -1.390625 C 8.335938 -1.234375 8.40625 -1.039062 8.40625 -0.8125 C 8.40625 -0.582031 8.304688 -0.367188 8.109375 -0.171875 C 7.910156 0.015625 7.65625 0.109375 7.34375 0.109375 C 6.21875 0.109375 5.382812 -0.0078125 4.84375 -0.25 C 4.300781 -0.5 3.925781 -0.863281 3.71875 -1.34375 C 3.289062 -0.75 2.796875 -0.359375 2.234375 -0.171875 C 1.679688 0.015625 0.9375 0.109375 0 0.109375 Z M 3.640625 4.09375 C 3.335938 4.09375 3.082031 3.988281 2.875 3.78125 C 2.675781 3.570312 2.578125 3.320312 2.578125 3.03125 C 2.578125 2.75 2.675781 2.5 2.875 2.28125 C 3.082031 2.070312 3.335938 1.96875 3.640625 1.96875 C 3.929688 1.96875 4.175781 2.070312 4.375 2.28125 C 4.582031 2.5 4.6875 2.75 4.6875 3.03125 C 4.6875 3.320312 4.582031 3.570312 4.375 3.78125 C 4.175781 3.988281 3.929688 4.09375 3.640625 4.09375 Z M 3.640625 4.09375 "/></g></g></g><g fill="#ffffff" fill-opacity="1"><g transform="translate(180.642113, 16.753419)"><g><path d="M 0 0.109375 L 0.21875 -1.640625 C 0.675781 -1.640625 1.046875 -1.671875 1.328125 -1.734375 C 1.609375 -1.804688 1.84375 -1.972656 2.03125 -2.234375 C 2.226562 -2.503906 2.410156 -2.921875 2.578125 -3.484375 C 2.753906 -4.054688 2.957031 -4.859375 3.1875 -5.890625 L 4.796875 -5.4375 C 4.710938 -5.0625 4.613281 -4.625 4.5 -4.125 C 4.382812 -3.625 4.328125 -3.175781 4.328125 -2.78125 C 4.328125 -2.425781 4.460938 -2.144531 4.734375 -1.9375 C 5.003906 -1.738281 5.492188 -1.640625 6.203125 -1.640625 C 6.628906 -1.640625 6.976562 -1.675781 7.25 -1.75 C 7.519531 -1.820312 7.742188 -1.992188 7.921875 -2.265625 C 8.109375 -2.535156 8.269531 -2.96875 8.40625 -3.5625 C 8.550781 -4.15625 8.703125 -4.976562 8.859375 -6.03125 L 10.484375 -5.734375 C 10.441406 -5.472656 10.390625 -5.15625 10.328125 -4.78125 C 10.265625 -4.414062 10.210938 -4.050781 10.171875 -3.6875 C 10.128906 -3.320312 10.109375 -3.019531 10.109375 -2.78125 C 10.109375 -2.582031 10.148438 -2.394531 10.234375 -2.21875 C 10.328125 -2.039062 10.515625 -1.898438 10.796875 -1.796875 C 11.078125 -1.691406 11.492188 -1.640625 12.046875 -1.640625 C 12.765625 -1.640625 13.28125 -1.785156 13.59375 -2.078125 C 13.914062 -2.378906 14.078125 -2.84375 14.078125 -3.46875 C 14.078125 -3.957031 14.0625 -4.492188 14.03125 -5.078125 C 14.007812 -5.660156 13.941406 -6.394531 13.828125 -7.28125 L 15.390625 -7.390625 C 15.472656 -6.234375 15.566406 -5.28125 15.671875 -4.53125 C 15.785156 -3.789062 15.945312 -3.207031 16.15625 -2.78125 C 16.363281 -2.363281 16.644531 -2.066406 17 -1.890625 C 17.351562 -1.722656 17.820312 -1.640625 18.40625 -1.640625 C 18.707031 -1.640625 18.925781 -1.554688 19.0625 -1.390625 C 19.195312 -1.234375 19.265625 -1.039062 19.265625 -0.8125 C 19.265625 -0.582031 19.164062 -0.367188 18.96875 -0.171875 C 18.769531 0.015625 18.507812 0.109375 18.1875 0.109375 C 17.394531 0.109375 16.738281 -0.0664062 16.21875 -0.421875 C 15.695312 -0.785156 15.3125 -1.238281 15.0625 -1.78125 C 14.78125 -1.019531 14.347656 -0.515625 13.765625 -0.265625 C 13.191406 -0.015625 12.554688 0.109375 11.859375 0.109375 C 11.128906 0.109375 10.550781 0.00390625 10.125 -0.203125 C 9.707031 -0.410156 9.398438 -0.726562 9.203125 -1.15625 C 8.859375 -0.644531 8.445312 -0.304688 7.96875 -0.140625 C 7.488281 0.0234375 6.816406 0.109375 5.953125 0.109375 C 5.648438 0.109375 5.332031 0.0703125 5 0 C 4.664062 -0.0703125 4.351562 -0.210938 4.0625 -0.421875 C 3.78125 -0.628906 3.5625 -0.9375 3.40625 -1.34375 C 3.03125 -0.71875 2.566406 -0.316406 2.015625 -0.140625 C 1.472656 0.0234375 0.800781 0.109375 0 0.109375 Z M 9.234375 -11.671875 C 8.929688 -11.671875 8.675781 -11.773438 8.46875 -11.984375 C 8.257812 -12.191406 8.15625 -12.4375 8.15625 -12.71875 C 8.15625 -13.007812 8.257812 -13.257812 8.46875 -13.46875 C 8.675781 -13.6875 8.929688 -13.796875 9.234375 -13.796875 C 9.515625 -13.796875 9.757812 -13.6875 9.96875 -13.46875 C 10.175781 -13.257812 10.28125 -13.007812 10.28125 -12.71875 C 10.28125 -12.4375 10.175781 -12.191406 9.96875 -11.984375 C 9.757812 -11.773438 9.515625 -11.671875 9.234375 -11.671875 Z M 7.765625 -9.3125 C 7.472656 -9.3125 7.222656 -9.414062 7.015625 -9.625 C 6.804688 -9.832031 6.703125 -10.082031 6.703125 -10.375 C 6.703125 -10.65625 6.804688 -10.898438 7.015625 -11.109375 C 7.222656 -11.328125 7.472656 -11.4375 7.765625 -11.4375 C 8.054688 -11.4375 8.304688 -11.328125 8.515625 -11.109375 C 8.722656 -10.898438 8.828125 -10.65625 8.828125 -10.375 C 8.828125 -10.082031 8.722656 -9.832031 8.515625 -9.625 C 8.304688 -9.414062 8.054688 -9.3125 7.765625 -9.3125 Z M 10.6875 -9.3125 C 10.382812 -9.3125 10.128906 -9.414062 9.921875 -9.625 C 9.710938 -9.832031 9.609375 -10.082031 9.609375 -10.375 C 9.609375 -10.65625 9.710938 -10.898438 9.921875 -11.109375 C 10.128906 -11.328125 10.382812 -11.4375 10.6875 -11.4375 C 10.96875 -11.4375 11.210938 -11.328125 11.421875 -11.109375 C 11.628906 -10.898438 11.734375 -10.65625 11.734375 -10.375 C 11.734375 -10.082031 11.628906 -9.832031 11.421875 -9.625 C 11.210938 -9.414062 10.96875 -9.3125 10.6875 -9.3125 Z M 10.6875 -9.3125 "/></g></g></g><g fill="#ffffff" fill-opacity="1"><g transform="translate(198.837845, 16.753419)"><g><path d="M 0 0.109375 L 0.1875 -1.640625 C 1 -1.640625 1.566406 -1.71875 1.890625 -1.875 C 2.222656 -2.039062 2.414062 -2.316406 2.46875 -2.703125 C 2.519531 -3.097656 2.53125 -3.660156 2.5 -4.390625 L 2.09375 -15.28125 L 3.828125 -15.28125 L 4.265625 -4.578125 C 4.304688 -3.566406 4.234375 -2.710938 4.046875 -2.015625 C 3.867188 -1.316406 3.46875 -0.785156 2.84375 -0.421875 C 2.226562 -0.0664062 1.28125 0.109375 0 0.109375 Z M 0 0.109375 "/></g></g></g><g fill="#ffffff" fill-opacity="1"><g transform="translate(204.403607, 16.753419)"><g><path d="M 1.96875 0 L 1.546875 -15.28125 L 3.28125 -15.28125 L 3.703125 0 Z M 1.96875 0 "/></g></g></g><g fill="#ffffff" fill-opacity="1"><g transform="translate(209.498413, 16.753419)"><g/></g></g><g fill="#ffffff" fill-opacity="1"><g transform="translate(216.783856, 16.753419)"><g><path d="M 10.40625 0.109375 C 9.476562 0.109375 8.679688 -0.046875 8.015625 -0.359375 C 7.347656 -0.671875 6.878906 -1.25 6.609375 -2.09375 C 5.835938 -1.90625 5.097656 -1.828125 4.390625 -1.859375 C 3.691406 -1.898438 3.054688 -2.039062 2.484375 -2.28125 C 1.910156 -2.519531 1.457031 -2.847656 1.125 -3.265625 C 0.800781 -3.679688 0.640625 -4.1875 0.640625 -4.78125 C 0.640625 -5.539062 0.878906 -6.238281 1.359375 -6.875 C 1.847656 -7.507812 2.503906 -8.046875 3.328125 -8.484375 C 4.160156 -8.929688 5.078125 -9.242188 6.078125 -9.421875 L 6.015625 -11.046875 L 7.75 -11.046875 L 8.09375 -3.984375 C 8.125 -3.304688 8.238281 -2.800781 8.4375 -2.46875 C 8.644531 -2.132812 8.929688 -1.910156 9.296875 -1.796875 C 9.660156 -1.691406 10.101562 -1.640625 10.625 -1.640625 C 10.914062 -1.640625 11.128906 -1.554688 11.265625 -1.390625 C 11.398438 -1.234375 11.46875 -1.039062 11.46875 -0.8125 C 11.46875 -0.582031 11.367188 -0.367188 11.171875 -0.171875 C 10.972656 0.015625 10.71875 0.109375 10.40625 0.109375 Z M 2.328125 -5.046875 C 2.328125 -4.722656 2.457031 -4.453125 2.71875 -4.234375 C 2.988281 -4.023438 3.328125 -3.867188 3.734375 -3.765625 C 4.148438 -3.671875 4.59375 -3.625 5.0625 -3.625 C 5.53125 -3.625 5.960938 -3.65625 6.359375 -3.71875 L 6.171875 -7.640625 C 5.347656 -7.554688 4.648438 -7.375 4.078125 -7.09375 C 3.515625 -6.8125 3.082031 -6.488281 2.78125 -6.125 C 2.476562 -5.769531 2.328125 -5.410156 2.328125 -5.046875 Z M 6.71875 -13.5 C 6.414062 -13.5 6.160156 -13.601562 5.953125 -13.8125 C 5.742188 -14.019531 5.640625 -14.269531 5.640625 -14.5625 C 5.640625 -14.84375 5.742188 -15.085938 5.953125 -15.296875 C 6.160156 -15.515625 6.414062 -15.625 6.71875 -15.625 C 7 -15.625 7.242188 -15.515625 7.453125 -15.296875 C 7.660156 -15.085938 7.765625 -14.84375 7.765625 -14.5625 C 7.765625 -14.269531 7.660156 -14.019531 7.453125 -13.8125 C 7.242188 -13.601562 7 -13.5 6.71875 -13.5 Z M 3.78125 -13.5 C 3.476562 -13.5 3.222656 -13.601562 3.015625 -13.8125 C 2.816406 -14.019531 2.71875 -14.269531 2.71875 -14.5625 C 2.71875 -14.84375 2.816406 -15.085938 3.015625 -15.296875 C 3.222656 -15.515625 3.476562 -15.625 3.78125 -15.625 C 4.070312 -15.625 4.316406 -15.515625 4.515625 -15.296875 C 4.722656 -15.085938 4.828125 -14.84375 4.828125 -14.5625 C 4.828125 -14.269531 4.722656 -14.019531 4.515625 -13.8125 C 4.316406 -13.601562 4.070312 -13.5 3.78125 -13.5 Z M 3.78125 -13.5 "/></g></g></g><g fill="#ffffff" fill-opacity="1"><g transform="translate(227.187539, 16.753419)"><g><path d="M 0 0.109375 L 0.21875 -1.640625 L 1.859375 -1.640625 C 3.046875 -1.640625 3.921875 -1.703125 4.484375 -1.828125 C 5.054688 -1.960938 5.429688 -2.132812 5.609375 -2.34375 C 5.796875 -2.550781 5.890625 -2.773438 5.890625 -3.015625 C 5.890625 -3.359375 5.757812 -3.738281 5.5 -4.15625 C 5.238281 -4.570312 4.910156 -4.992188 4.515625 -5.421875 C 4.117188 -5.859375 3.691406 -6.289062 3.234375 -6.71875 C 2.785156 -7.144531 2.363281 -7.535156 1.96875 -7.890625 C 1.570312 -8.253906 1.242188 -8.566406 0.984375 -8.828125 C 0.722656 -9.085938 0.59375 -9.273438 0.59375 -9.390625 C 0.59375 -9.722656 0.628906 -10.03125 0.703125 -10.3125 C 0.773438 -10.601562 0.890625 -10.828125 1.046875 -10.984375 C 1.429688 -11.398438 2 -11.832031 2.75 -12.28125 C 3.5 -12.726562 4.359375 -13.191406 5.328125 -13.671875 C 6.296875 -14.148438 7.289062 -14.640625 8.3125 -15.140625 L 9.03125 -13.546875 C 7.78125 -12.921875 6.550781 -12.316406 5.34375 -11.734375 C 4.132812 -11.148438 3.082031 -10.539062 2.1875 -9.90625 C 2.96875 -9.238281 3.703125 -8.585938 4.390625 -7.953125 C 5.078125 -7.328125 5.710938 -6.65625 6.296875 -5.9375 C 6.878906 -5.21875 7.414062 -4.398438 7.90625 -3.484375 C 8.195312 -2.929688 8.539062 -2.523438 8.9375 -2.265625 C 9.34375 -2.015625 9.738281 -1.847656 10.125 -1.765625 C 10.507812 -1.679688 10.832031 -1.640625 11.09375 -1.640625 C 11.382812 -1.640625 11.597656 -1.554688 11.734375 -1.390625 C 11.867188 -1.234375 11.9375 -1.039062 11.9375 -0.8125 C 11.9375 -0.582031 11.835938 -0.367188 11.640625 -0.171875 C 11.441406 0.015625 11.1875 0.109375 10.875 0.109375 C 10.53125 0.109375 10.132812 0.0625 9.6875 -0.03125 C 9.238281 -0.125 8.785156 -0.300781 8.328125 -0.5625 C 7.867188 -0.832031 7.46875 -1.222656 7.125 -1.734375 C 6.84375 -1.316406 6.488281 -0.972656 6.0625 -0.703125 C 5.632812 -0.429688 5.078125 -0.226562 4.390625 -0.09375 C 3.703125 0.0390625 2.832031 0.109375 1.78125 0.109375 Z M 0 0.109375 "/></g></g></g><g fill="#ffffff" fill-opacity="1"><g transform="translate(238.062175, 16.753419)"><g><path d="M 0 0.109375 L 0.21875 -1.640625 C 0.8125 -1.640625 1.28125 -1.691406 1.625 -1.796875 C 1.96875 -1.910156 2.226562 -2.117188 2.40625 -2.421875 C 2.582031 -2.734375 2.734375 -3.179688 2.859375 -3.765625 C 2.992188 -4.347656 3.15625 -5.113281 3.34375 -6.0625 L 5.015625 -5.734375 C 4.921875 -5.347656 4.820312 -4.90625 4.71875 -4.40625 C 4.613281 -3.90625 4.5625 -3.484375 4.5625 -3.140625 C 4.5625 -2.859375 4.625 -2.601562 4.75 -2.375 C 4.875 -2.144531 5.144531 -1.960938 5.5625 -1.828125 C 5.988281 -1.703125 6.65625 -1.640625 7.5625 -1.640625 C 7.851562 -1.640625 8.066406 -1.554688 8.203125 -1.390625 C 8.335938 -1.234375 8.40625 -1.039062 8.40625 -0.8125 C 8.40625 -0.582031 8.304688 -0.367188 8.109375 -0.171875 C 7.910156 0.015625 7.65625 0.109375 7.34375 0.109375 C 6.21875 0.109375 5.382812 -0.0078125 4.84375 -0.25 C 4.300781 -0.5 3.925781 -0.863281 3.71875 -1.34375 C 3.289062 -0.75 2.796875 -0.359375 2.234375 -0.171875 C 1.679688 0.015625 0.9375 0.109375 0 0.109375 Z M 3.640625 4.09375 C 3.335938 4.09375 3.082031 3.988281 2.875 3.78125 C 2.675781 3.570312 2.578125 3.320312 2.578125 3.03125 C 2.578125 2.75 2.675781 2.5 2.875 2.28125 C 3.082031 2.070312 3.335938 1.96875 3.640625 1.96875 C 3.929688 1.96875 4.175781 2.070312 4.375 2.28125 C 4.582031 2.5 4.6875 2.75 4.6875 3.03125 C 4.6875 3.320312 4.582031 3.570312 4.375 3.78125 C 4.175781 3.988281 3.929688 4.09375 3.640625 4.09375 Z M 3.640625 4.09375 "/></g></g></g><g fill="#ffffff" fill-opacity="1"><g transform="translate(245.404699, 16.753419)"><g><path d="M 0 0.109375 L 0.21875 -1.640625 C 0.675781 -1.640625 1.046875 -1.671875 1.328125 -1.734375 C 1.609375 -1.804688 1.84375 -1.972656 2.03125 -2.234375 C 2.226562 -2.503906 2.410156 -2.921875 2.578125 -3.484375 C 2.753906 -4.054688 2.957031 -4.859375 3.1875 -5.890625 L 4.796875 -5.4375 C 4.710938 -5.0625 4.613281 -4.625 4.5 -4.125 C 4.382812 -3.625 4.328125 -3.175781 4.328125 -2.78125 C 4.328125 -2.425781 4.460938 -2.144531 4.734375 -1.9375 C 5.003906 -1.738281 5.492188 -1.640625 6.203125 -1.640625 C 6.628906 -1.640625 6.976562 -1.675781 7.25 -1.75 C 7.519531 -1.820312 7.742188 -1.992188 7.921875 -2.265625 C 8.109375 -2.535156 8.269531 -2.96875 8.40625 -3.5625 C 8.550781 -4.15625 8.703125 -4.976562 8.859375 -6.03125 L 10.484375 -5.734375 C 10.441406 -5.472656 10.390625 -5.15625 10.328125 -4.78125 C 10.265625 -4.414062 10.210938 -4.050781 10.171875 -3.6875 C 10.128906 -3.320312 10.109375 -3.019531 10.109375 -2.78125 C 10.109375 -2.582031 10.148438 -2.394531 10.234375 -2.21875 C 10.328125 -2.039062 10.515625 -1.898438 10.796875 -1.796875 C 11.078125 -1.691406 11.492188 -1.640625 12.046875 -1.640625 C 12.660156 -1.640625 13.148438 -1.757812 13.515625 -2 C 13.890625 -2.25 14.078125 -2.742188 14.078125 -3.484375 C 14.078125 -4.015625 13.953125 -4.691406 13.703125 -5.515625 C 13.460938 -6.347656 13.179688 -7.171875 12.859375 -7.984375 L 14.59375 -8.625 C 14.769531 -8.15625 14.941406 -7.628906 15.109375 -7.046875 C 15.285156 -6.472656 15.429688 -5.898438 15.546875 -5.328125 C 15.660156 -4.753906 15.71875 -4.253906 15.71875 -3.828125 C 15.71875 -2.503906 15.390625 -1.515625 14.734375 -0.859375 C 14.078125 -0.210938 13.175781 0.109375 12.03125 0.109375 C 11.25 0.109375 10.628906 0.00390625 10.171875 -0.203125 C 9.722656 -0.410156 9.398438 -0.734375 9.203125 -1.171875 C 8.859375 -0.648438 8.445312 -0.304688 7.96875 -0.140625 C 7.488281 0.0234375 6.816406 0.109375 5.953125 0.109375 C 5.648438 0.109375 5.332031 0.0703125 5 0 C 4.664062 -0.0703125 4.351562 -0.210938 4.0625 -0.421875 C 3.78125 -0.628906 3.5625 -0.9375 3.40625 -1.34375 C 3.03125 -0.71875 2.566406 -0.316406 2.015625 -0.140625 C 1.472656 0.0234375 0.800781 0.109375 0 0.109375 Z M 9.234375 -11.671875 C 8.929688 -11.671875 8.675781 -11.773438 8.46875 -11.984375 C 8.257812 -12.191406 8.15625 -12.4375 8.15625 -12.71875 C 8.15625 -13.007812 8.257812 -13.257812 8.46875 -13.46875 C 8.675781 -13.6875 8.929688 -13.796875 9.234375 -13.796875 C 9.515625 -13.796875 9.757812 -13.6875 9.96875 -13.46875 C 10.175781 -13.257812 10.28125 -13.007812 10.28125 -12.71875 C 10.28125 -12.4375 10.175781 -12.191406 9.96875 -11.984375 C 9.757812 -11.773438 9.515625 -11.671875 9.234375 -11.671875 Z M 7.765625 -9.3125 C 7.472656 -9.3125 7.222656 -9.414062 7.015625 -9.625 C 6.804688 -9.832031 6.703125 -10.082031 6.703125 -10.375 C 6.703125 -10.65625 6.804688 -10.898438 7.015625 -11.109375 C 7.222656 -11.328125 7.472656 -11.4375 7.765625 -11.4375 C 8.054688 -11.4375 8.304688 -11.328125 8.515625 -11.109375 C 8.722656 -10.898438 8.828125 -10.65625 8.828125 -10.375 C 8.828125 -10.082031 8.722656 -9.832031 8.515625 -9.625 C 8.304688 -9.414062 8.054688 -9.3125 7.765625 -9.3125 Z M 10.6875 -9.3125 C 10.382812 -9.3125 10.128906 -9.414062 9.921875 -9.625 C 9.710938 -9.832031 9.609375 -10.082031 9.609375 -10.375 C 9.609375 -10.65625 9.710938 -10.898438 9.921875 -11.109375 C 10.128906 -11.328125 10.382812 -11.4375 10.6875 -11.4375 C 10.96875 -11.4375 11.210938 -11.328125 11.421875 -11.109375 C 11.628906 -10.898438 11.734375 -10.65625 11.734375 -10.375 C 11.734375 -10.082031 11.628906 -9.832031 11.421875 -9.625 C 11.210938 -9.414062 10.96875 -9.3125 10.6875 -9.3125 Z M 10.6875 -9.3125 "/></g></g></g></g></g><g clip-path="url(#bf5ea3ca02)"><path fill="#ffffff" d="M 330.101562 52.328125 L 330.636719 52.328125 L 330.636719 52.863281 C 330.28125 53.222656 330.101562 53.582031 330.101562 53.9375 C 329.742188 53.9375 329.027344 54.117188 327.953125 54.476562 L 325.804688 54.476562 C 325.804688 54.117188 324.011719 52.863281 320.429688 50.714844 C 316.847656 48.207031 313.625 46.238281 310.757812 44.804688 C 307.535156 43.730469 304.671875 42.476562 302.164062 41.042969 C 299.65625 39.613281 296.96875 37.820312 294.105469 35.671875 C 290.878906 33.523438 288.195312 32.089844 286.042969 31.375 C 283.539062 30.65625 281.566406 29.222656 280.132812 27.074219 L 277.984375 23.851562 L 277.984375 23.3125 L 277.449219 23.3125 L 277.449219 22.777344 L 276.910156 22.777344 L 276.910156 22.238281 L 276.375 22.238281 L 276.375 21.703125 L 275.300781 21.703125 L 275.300781 21.164062 L 274.761719 21.164062 L 274.761719 20.628906 L 274.222656 20.628906 L 274.761719 26 C 275.121094 29.222656 275.65625 31.195312 276.375 31.910156 C 277.449219 32.269531 278.703125 32.804688 280.132812 33.523438 C 281.925781 34.238281 283.179688 35.492188 283.894531 37.285156 C 284.96875 39.074219 286.042969 40.148438 287.121094 40.507812 C 287.835938 40.863281 288.371094 41.042969 288.730469 41.042969 L 289.269531 41.042969 L 289.804688 41.582031 L 290.34375 42.117188 L 290.878906 42.117188 L 290.878906 42.65625 L 291.417969 42.65625 L 291.417969 43.191406 L 290.34375 43.191406 L 288.195312 43.730469 C 286.761719 44.089844 285.507812 44.269531 284.433594 44.269531 C 283.359375 44.269531 281.386719 44.445312 278.523438 44.804688 L 274.761719 45.34375 L 273.6875 44.269531 L 273.148438 44.269531 L 273.148438 43.191406 C 273.148438 42.476562 273.6875 41.761719 274.761719 41.042969 L 276.375 39.96875 L 276.375 38.894531 L 275.835938 38.894531 L 275.300781 38.359375 C 274.941406 38 273.867188 37.460938 272.074219 36.746094 C 270.285156 36.03125 269.03125 34.058594 268.316406 30.835938 L 266.703125 26.539062 L 266.703125 26 L 266.164062 26 L 265.628906 25.464844 L 264.554688 25.464844 L 264.554688 26.539062 L 264.015625 27.074219 L 263.480469 28.148438 L 260.792969 37.820312 C 259 44.625 256.671875 50 253.808594 53.9375 C 251.300781 57.519531 248.792969 61.28125 246.285156 65.222656 C 244.136719 68.804688 242.703125 71.488281 241.988281 73.28125 C 241.273438 74.714844 240.914062 75.96875 240.914062 77.042969 L 240.914062 78.652344 L 239.839844 79.726562 L 238.765625 79.726562 L 238.765625 77.042969 C 238.765625 75.25 239.480469 72.5625 240.914062 68.984375 C 242.347656 65.042969 244.316406 61.101562 246.824219 57.164062 C 249.332031 53.222656 251.300781 49.28125 252.734375 45.34375 L 254.882812 38.894531 L 254.882812 35.671875 L 251.660156 35.671875 L 251.121094 36.207031 L 250.585938 36.746094 L 250.046875 36.746094 L 250.046875 37.285156 L 249.511719 37.285156 L 247.898438 41.042969 C 246.824219 43.550781 244.851562 48.566406 241.988281 56.085938 C 239.121094 63.609375 235.71875 70.953125 231.78125 78.117188 C 227.839844 84.921875 223.71875 90.832031 219.421875 95.847656 C 215.484375 100.144531 211.902344 103.367188 208.675781 105.515625 C 205.453125 107.667969 201.871094 109.457031 197.929688 110.890625 C 194.347656 112.324219 192.378906 113.21875 192.019531 113.578125 L 191.484375 114.113281 L 190.410156 114.113281 L 190.410156 114.652344 L 189.871094 114.652344 L 189.871094 115.1875 L 188.261719 115.1875 L 188.261719 115.726562 L 188.261719 114.113281 L 188.796875 114.113281 L 188.796875 113.578125 L 189.335938 113.578125 L 189.335938 113.039062 L 189.871094 113.039062 L 189.871094 112.5 L 190.410156 112.5 L 190.410156 111.964844 L 190.945312 111.964844 L 190.945312 111.425781 C 191.304688 111.425781 194.886719 109.097656 201.691406 104.441406 C 208.855469 99.429688 213.332031 96.023438 215.125 94.234375 C 217.273438 92.445312 219.78125 89.039062 222.644531 84.027344 C 225.511719 79.011719 228.019531 74.355469 230.167969 70.058594 C 231.601562 66.117188 231.0625 62.714844 228.554688 59.847656 C 225.691406 56.625 223.363281 55.011719 221.570312 55.011719 C 220.140625 55.011719 218.527344 55.371094 216.734375 56.085938 C 214.945312 56.804688 213.511719 58.238281 212.4375 60.386719 C 211.363281 62.535156 209.394531 68.265625 206.527344 77.578125 L 202.230469 91.011719 L 201.691406 91.546875 L 201.15625 92.621094 L 201.15625 94.234375 L 200.617188 94.234375 L 200.617188 94.773438 L 200.082031 94.773438 L 200.082031 92.621094 L 200.617188 91.011719 L 201.15625 89.398438 L 201.15625 87.789062 L 200.617188 87.789062 L 200.617188 88.324219 L 200.082031 88.324219 L 200.082031 88.863281 L 199.542969 89.398438 L 199.007812 89.9375 L 199.007812 90.472656 L 198.46875 90.472656 L 198.46875 91.011719 L 197.929688 91.011719 L 195.78125 94.234375 C 193.992188 96.742188 193.097656 97.996094 193.097656 97.996094 L 192.558594 97.996094 L 192.558594 98.53125 L 192.019531 98.53125 L 192.019531 99.070312 L 189.871094 99.070312 L 188.796875 100.144531 L 187.722656 100.144531 L 187.722656 99.605469 L 188.261719 99.605469 L 188.261719 98.53125 L 188.796875 98.53125 L 188.796875 97.996094 L 189.335938 97.996094 L 189.335938 96.921875 L 189.871094 96.382812 C 190.230469 96.023438 192.019531 92.800781 195.246094 86.710938 C 198.46875 80.625 200.4375 76.503906 201.15625 74.355469 L 202.230469 71.667969 L 202.230469 69.519531 L 201.691406 69.519531 L 201.691406 68.984375 L 200.617188 68.984375 L 200.617188 69.519531 L 200.082031 69.519531 L 200.082031 70.59375 L 199.542969 70.59375 L 199.542969 71.132812 L 199.007812 71.132812 L 199.007812 72.207031 L 189.335938 89.398438 C 182.886719 100.859375 179.304688 107.128906 178.589844 108.203125 L 177.515625 109.816406 L 177.515625 110.351562 L 176.976562 110.351562 L 176.976562 110.890625 L 176.441406 110.890625 L 176.441406 111.964844 L 175.902344 111.964844 L 175.902344 112.5 L 175.367188 112.5 L 175.367188 113.578125 L 174.828125 113.578125 L 174.828125 114.113281 L 172.140625 116.261719 L 168.917969 119.488281 L 168.382812 119.488281 L 168.382812 120.023438 L 167.84375 120.023438 L 167.84375 120.5625 L 167.308594 120.5625 L 167.308594 121.097656 L 166.769531 121.097656 L 166.769531 121.636719 L 166.230469 121.636719 L 165.15625 122.710938 L 164.621094 122.710938 L 164.082031 123.246094 L 163.546875 123.246094 L 163.546875 122.171875 L 164.621094 122.171875 L 164.621094 121.097656 L 165.695312 120.023438 L 165.695312 119.488281 L 166.230469 119.488281 L 166.230469 118.949219 C 166.589844 118.949219 167.84375 117.335938 169.992188 114.113281 C 172.140625 110.53125 174.828125 105.515625 178.050781 99.070312 L 182.886719 89.9375 L 183.960938 88.863281 L 183.960938 87.789062 L 184.5 87.789062 L 184.5 87.25 L 185.035156 87.25 L 185.035156 86.710938 C 185.035156 86.355469 187.542969 81.160156 192.558594 71.132812 C 197.574219 61.101562 200.617188 55.371094 201.691406 53.9375 C 203.125 52.507812 204.378906 51.789062 205.453125 51.789062 C 206.886719 51.789062 208.140625 50.894531 209.214844 49.101562 C 210.289062 47.671875 211.902344 45.34375 214.050781 42.117188 C 216.199219 38.894531 217.632812 36.925781 218.347656 36.207031 L 219.960938 35.671875 L 221.035156 35.671875 L 222.644531 36.207031 C 223.363281 36.925781 225.152344 39.074219 228.019531 42.65625 C 230.167969 46.238281 231.601562 48.566406 232.316406 49.640625 C 233.035156 50.355469 233.570312 50.714844 233.929688 50.714844 L 234.464844 50.714844 L 234.464844 51.253906 L 235.003906 51.789062 L 235.539062 52.328125 L 235.539062 52.863281 L 237.691406 52.863281 L 237.691406 51.253906 L 241.449219 43.191406 C 243.957031 37.820312 245.929688 34.238281 247.359375 32.449219 C 249.152344 31.015625 250.941406 29.402344 252.734375 27.613281 C 254.882812 25.820312 257.75 22.417969 261.328125 17.402344 C 264.910156 12.390625 267.0625 9.523438 267.777344 8.808594 C 268.851562 8.089844 270.285156 7.375 272.074219 6.660156 C 273.867188 6.660156 276.015625 7.554688 278.523438 9.34375 C 280.671875 11.136719 283.179688 13.105469 286.042969 15.253906 C 288.195312 17.761719 290.523438 20.628906 293.027344 23.851562 C 295.535156 27.433594 298.042969 30.296875 300.550781 32.449219 C 303.417969 34.597656 307.714844 37.460938 313.445312 41.042969 C 319.175781 44.625 323.296875 47.132812 325.804688 48.566406 C 327.953125 50.714844 329.207031 51.789062 329.5625 51.789062 C 329.921875 51.789062 330.101562 51.96875 330.101562 52.328125 Z M 330.101562 52.328125 " fill-opacity="1" fill-rule="evenodd"/></g></svg>