<?xml version="1.0" encoding="UTF-8"?>
<svg xmlns="http://www.w3.org/2000/svg" xmlns:xlink="http://www.w3.org/1999/xlink" width="1128px" height="191px" viewBox="163 0 681 143" version="1.1">
<defs>
<clipPath id="clip1">
  <path d="M 163.125 6.648438 L 329.855469 6.648438 L 329.855469 122.835938 L 163.125 122.835938 Z M 163.125 6.648438 "/>
</clipPath>
</defs>
<g id="surface1">
<path style=" stroke:none;fill-rule:nonzero;fill:rgb(100%,100%,100%);fill-opacity:1;" d="M 268.820312 128.875 C 267.292969 128.875 265.949219 128.601562 264.796875 128.0625 C 263.644531 127.511719 262.742188 126.738281 262.101562 125.738281 C 261.464844 124.730469 261.148438 123.566406 261.148438 122.246094 L 261.148438 121.339844 C 261.148438 121.226562 261.1875 121.132812 261.273438 121.058594 C 261.355469 120.976562 261.453125 120.933594 261.570312 120.933594 L 264.6875 120.933594 C 264.800781 120.933594 264.898438 120.976562 264.984375 121.058594 C 265.066406 121.132812 265.109375 121.226562 265.109375 121.339844 L 265.109375 122.042969 C 265.109375 123.03125 265.453125 123.835938 266.136719 124.460938 C 266.832031 125.082031 267.773438 125.394531 268.957031 125.394531 C 270.039062 125.394531 270.863281 125.121094 271.4375 124.570312 C 272.019531 124.019531 272.308594 123.289062 272.308594 122.386719 C 272.308594 121.761719 272.148438 121.226562 271.828125 120.777344 C 271.503906 120.320312 271.046875 119.90625 270.457031 119.53125 C 269.871094 119.148438 268.964844 118.632812 267.742188 117.984375 C 266.328125 117.25 265.195312 116.589844 264.34375 116.003906 C 263.492188 115.425781 262.769531 114.6875 262.179688 113.789062 C 261.585938 112.886719 261.289062 111.789062 261.289062 110.5 C 261.289062 108.503906 261.953125 106.925781 263.285156 105.773438 C 264.613281 104.617188 266.363281 104.042969 268.539062 104.042969 C 270.035156 104.042969 271.359375 104.332031 272.511719 104.898438 C 273.675781 105.460938 274.570312 106.265625 275.195312 107.300781 C 275.816406 108.34375 276.128906 109.53125 276.128906 110.875 L 276.128906 111.605469 C 276.128906 111.722656 276.085938 111.820312 276.003906 111.902344 C 275.917969 111.976562 275.820312 112.011719 275.707031 112.011719 L 272.589844 112.011719 C 272.472656 112.011719 272.375 111.976562 272.292969 111.902344 C 272.210938 111.820312 272.171875 111.722656 272.171875 111.605469 L 272.171875 110.9375 C 272.171875 109.949219 271.832031 109.132812 271.15625 108.488281 C 270.492188 107.832031 269.597656 107.503906 268.476562 107.503906 C 267.476562 107.503906 266.6875 107.765625 266.105469 108.285156 C 265.535156 108.808594 265.25 109.527344 265.25 110.453125 C 265.25 111.078125 265.398438 111.613281 265.699219 112.058594 C 266 112.496094 266.453125 112.914062 267.058594 113.308594 C 267.667969 113.691406 268.601562 114.195312 269.847656 114.820312 C 271.519531 115.777344 272.746094 116.519531 273.527344 117.050781 C 274.3125 117.582031 274.980469 118.265625 275.523438 119.109375 C 276.058594 119.953125 276.332031 120.988281 276.332031 122.214844 C 276.332031 124.253906 275.648438 125.875 274.289062 127.078125 C 272.925781 128.277344 271.101562 128.875 268.820312 128.875 Z M 268.820312 128.875 "/>
<path style=" stroke:none;fill-rule:nonzero;fill:rgb(100%,100%,100%);fill-opacity:1;" d="M 282.160156 128.59375 C 282.042969 128.59375 281.945312 128.554688 281.863281 128.46875 C 281.777344 128.386719 281.738281 128.289062 281.738281 128.171875 L 281.738281 104.742188 C 281.738281 104.617188 281.777344 104.523438 281.863281 104.449219 C 281.945312 104.367188 282.042969 104.324219 282.160156 104.324219 L 285.339844 104.324219 C 285.464844 104.324219 285.558594 104.367188 285.632812 104.449219 C 285.714844 104.523438 285.757812 104.617188 285.757812 104.742188 L 285.757812 128.171875 C 285.757812 128.289062 285.714844 128.386719 285.632812 128.46875 C 285.558594 128.554688 285.464844 128.59375 285.339844 128.59375 Z M 282.160156 128.59375 "/>
<path style=" stroke:none;fill-rule:nonzero;fill:rgb(100%,100%,100%);fill-opacity:1;" d="M 304.019531 104.742188 C 304.019531 104.617188 304.058594 104.523438 304.144531 104.449219 C 304.226562 104.367188 304.324219 104.324219 304.441406 104.324219 L 307.621094 104.324219 C 307.746094 104.324219 307.84375 104.367188 307.917969 104.449219 C 308 104.523438 308.042969 104.617188 308.042969 104.742188 L 308.042969 128.171875 C 308.042969 128.289062 308 128.386719 307.917969 128.46875 C 307.84375 128.554688 307.746094 128.59375 307.621094 128.59375 L 304.269531 128.59375 C 304.058594 128.59375 303.898438 128.492188 303.785156 128.28125 L 296.226562 112.746094 C 296.183594 112.675781 296.136719 112.648438 296.085938 112.667969 C 296.042969 112.679688 296.023438 112.730469 296.023438 112.824219 L 296.054688 128.171875 C 296.054688 128.289062 296.011719 128.386719 295.929688 128.46875 C 295.84375 128.554688 295.746094 128.59375 295.632812 128.59375 L 292.453125 128.59375 C 292.335938 128.59375 292.238281 128.554688 292.15625 128.46875 C 292.074219 128.386719 292.035156 128.289062 292.035156 128.171875 L 292.035156 104.742188 C 292.035156 104.617188 292.074219 104.523438 292.15625 104.449219 C 292.238281 104.367188 292.335938 104.324219 292.453125 104.324219 L 295.773438 104.324219 C 296 104.324219 296.164062 104.429688 296.257812 104.632812 L 303.847656 120.230469 C 303.898438 120.304688 303.945312 120.335938 303.988281 120.324219 C 304.027344 120.316406 304.050781 120.261719 304.050781 120.171875 Z M 304.019531 104.742188 "/>
<path style=" stroke:none;fill-rule:nonzero;fill:rgb(100%,100%,100%);fill-opacity:1;" d="M 321.519531 128.90625 C 320 128.90625 318.652344 128.59375 317.480469 127.96875 C 316.316406 127.34375 315.414062 126.464844 314.785156 125.316406 C 314.148438 124.175781 313.832031 122.847656 313.832031 121.339844 L 313.832031 111.574219 C 313.832031 110.089844 314.148438 108.777344 314.785156 107.628906 C 315.414062 106.488281 316.316406 105.601562 317.480469 104.976562 C 318.652344 104.355469 320 104.042969 321.519531 104.042969 C 323.066406 104.042969 324.421875 104.355469 325.585938 104.976562 C 326.757812 105.601562 327.667969 106.488281 328.316406 107.628906 C 328.957031 108.777344 329.28125 110.089844 329.28125 111.574219 L 329.28125 121.339844 C 329.28125 122.847656 328.957031 124.175781 328.316406 125.316406 C 327.667969 126.464844 326.757812 127.34375 325.585938 127.96875 C 324.421875 128.59375 323.066406 128.90625 321.519531 128.90625 Z M 321.519531 125.441406 C 322.648438 125.441406 323.558594 125.078125 324.246094 124.351562 C 324.933594 123.625 325.273438 122.679688 325.273438 121.527344 L 325.273438 111.464844 C 325.273438 110.28125 324.933594 109.324219 324.246094 108.597656 C 323.558594 107.871094 322.648438 107.503906 321.519531 107.503906 C 320.414062 107.503906 319.527344 107.871094 318.851562 108.597656 C 318.1875 109.324219 317.855469 110.28125 317.855469 111.464844 L 317.855469 121.527344 C 317.855469 122.679688 318.1875 123.625 318.851562 124.351562 C 319.527344 125.078125 320.414062 125.441406 321.519531 125.441406 Z M 321.519531 125.441406 "/>
<path style=" stroke:none;fill-rule:nonzero;fill:rgb(100%,100%,100%);fill-opacity:1;" d="M 334.34375 119.890625 C 334.226562 119.890625 334.128906 119.851562 334.046875 119.765625 C 333.972656 119.683594 333.9375 119.585938 333.9375 119.46875 L 333.9375 116.832031 C 333.9375 116.71875 333.972656 116.625 334.046875 116.550781 C 334.128906 116.46875 334.226562 116.425781 334.34375 116.425781 L 344.085938 116.425781 C 344.199219 116.425781 344.296875 116.46875 344.378906 116.550781 C 344.460938 116.625 344.503906 116.71875 344.503906 116.832031 L 344.503906 119.46875 C 344.503906 119.585938 344.460938 119.683594 344.378906 119.765625 C 344.296875 119.851562 344.199219 119.890625 344.085938 119.890625 Z M 334.34375 119.890625 "/>
<path style=" stroke:none;fill-rule:nonzero;fill:rgb(100%,100%,100%);fill-opacity:1;" d="M 356.703125 128.875 C 355.195312 128.875 353.871094 128.574219 352.726562 127.96875 C 351.582031 127.367188 350.695312 126.519531 350.0625 125.425781 C 349.425781 124.328125 349.113281 123.054688 349.113281 121.621094 L 349.113281 111.292969 C 349.113281 109.859375 349.425781 108.597656 350.0625 107.503906 C 350.695312 106.40625 351.582031 105.550781 352.726562 104.945312 C 353.871094 104.347656 355.195312 104.042969 356.703125 104.042969 C 358.199219 104.042969 359.523438 104.339844 360.679688 104.929688 C 361.839844 105.515625 362.738281 106.34375 363.375 107.410156 C 364.007812 108.472656 364.324219 109.683594 364.324219 111.046875 L 364.324219 111.839844 C 364.324219 111.957031 364.28125 112.054688 364.199219 112.136719 C 364.117188 112.222656 364.019531 112.261719 363.90625 112.261719 L 360.726562 112.261719 C 360.609375 112.261719 360.511719 112.222656 360.429688 112.136719 C 360.34375 112.054688 360.304688 111.957031 360.304688 111.839844 L 360.304688 111.046875 C 360.304688 110.007812 359.96875 109.15625 359.304688 108.503906 C 358.652344 107.839844 357.78125 107.503906 356.703125 107.503906 C 355.644531 107.503906 354.777344 107.847656 354.117188 108.535156 C 353.460938 109.21875 353.132812 110.117188 353.132812 111.21875 L 353.132812 121.699219 C 353.132812 122.800781 353.46875 123.695312 354.148438 124.382812 C 354.832031 125.058594 355.714844 125.394531 356.796875 125.394531 C 357.863281 125.394531 358.71875 125.09375 359.351562 124.492188 C 359.984375 123.878906 360.304688 123.035156 360.304688 121.964844 L 360.304688 119.234375 C 360.304688 119.121094 360.246094 119.0625 360.132812 119.0625 L 356.984375 119.0625 C 356.859375 119.0625 356.753906 119.023438 356.671875 118.9375 C 356.597656 118.855469 356.5625 118.757812 356.5625 118.640625 L 356.5625 116.113281 C 356.5625 116 356.597656 115.902344 356.671875 115.816406 C 356.753906 115.734375 356.859375 115.695312 356.984375 115.695312 L 363.90625 115.695312 C 364.019531 115.695312 364.117188 115.734375 364.199219 115.816406 C 364.28125 115.902344 364.324219 116 364.324219 116.113281 L 364.324219 121.527344 C 364.324219 123.816406 363.628906 125.613281 362.238281 126.921875 C 360.855469 128.226562 359.011719 128.875 356.703125 128.875 Z M 356.703125 128.875 "/>
<path style=" stroke:none;fill-rule:nonzero;fill:rgb(100%,100%,100%);fill-opacity:1;" d="M 377.5625 128.875 C 376.066406 128.875 374.734375 128.5625 373.570312 127.9375 C 372.417969 127.3125 371.523438 126.433594 370.890625 125.285156 C 370.253906 124.144531 369.9375 122.816406 369.9375 121.308594 L 369.9375 104.742188 C 369.9375 104.617188 369.972656 104.523438 370.046875 104.449219 C 370.128906 104.367188 370.234375 104.324219 370.359375 104.324219 L 373.539062 104.324219 C 373.652344 104.324219 373.75 104.367188 373.835938 104.449219 C 373.917969 104.523438 373.960938 104.617188 373.960938 104.742188 L 373.960938 121.527344 C 373.960938 122.679688 374.289062 123.617188 374.941406 124.335938 C 375.605469 125.042969 376.480469 125.394531 377.5625 125.394531 C 378.640625 125.394531 379.515625 125.042969 380.179688 124.335938 C 380.855469 123.617188 381.195312 122.679688 381.195312 121.527344 L 381.195312 104.742188 C 381.195312 104.617188 381.234375 104.523438 381.320312 104.449219 C 381.402344 104.367188 381.496094 104.324219 381.613281 104.324219 L 384.808594 104.324219 C 384.921875 104.324219 385.015625 104.367188 385.089844 104.449219 C 385.171875 104.523438 385.214844 104.617188 385.214844 104.742188 L 385.214844 121.308594 C 385.214844 122.816406 384.894531 124.144531 384.265625 125.285156 C 383.628906 126.433594 382.738281 127.3125 381.582031 127.9375 C 380.429688 128.5625 379.089844 128.875 377.5625 128.875 Z M 377.5625 128.875 "/>
<path style=" stroke:none;fill-rule:nonzero;fill:rgb(100%,100%,100%);fill-opacity:1;" d="M 391.773438 128.59375 C 391.65625 128.59375 391.558594 128.554688 391.476562 128.46875 C 391.390625 128.386719 391.351562 128.289062 391.351562 128.171875 L 391.351562 104.742188 C 391.351562 104.617188 391.390625 104.523438 391.476562 104.449219 C 391.558594 104.367188 391.65625 104.324219 391.773438 104.324219 L 394.953125 104.324219 C 395.078125 104.324219 395.171875 104.367188 395.246094 104.449219 C 395.328125 104.523438 395.371094 104.617188 395.371094 104.742188 L 395.371094 124.957031 C 395.371094 125.074219 395.425781 125.128906 395.542969 125.128906 L 405.082031 125.128906 C 405.195312 125.128906 405.289062 125.171875 405.363281 125.253906 C 405.445312 125.328125 405.488281 125.421875 405.488281 125.535156 L 405.488281 128.171875 C 405.488281 128.289062 405.445312 128.386719 405.363281 128.46875 C 405.289062 128.554688 405.195312 128.59375 405.082031 128.59375 Z M 391.773438 128.59375 "/>
<path style=" stroke:none;fill-rule:nonzero;fill:rgb(100%,100%,100%);fill-opacity:1;" d="M 424.558594 107.378906 C 424.558594 107.496094 424.515625 107.59375 424.433594 107.675781 C 424.347656 107.75 424.25 107.785156 424.136719 107.785156 L 414.535156 107.785156 C 414.417969 107.785156 414.363281 107.84375 414.363281 107.957031 L 414.363281 114.476562 C 414.363281 114.59375 414.417969 114.648438 414.535156 114.648438 L 420.707031 114.648438 C 420.820312 114.648438 420.917969 114.691406 421.003906 114.773438 C 421.085938 114.859375 421.128906 114.957031 421.128906 115.070312 L 421.128906 117.707031 C 421.128906 117.824219 421.085938 117.921875 421.003906 118 C 420.917969 118.085938 420.820312 118.125 420.707031 118.125 L 414.535156 118.125 C 414.417969 118.125 414.363281 118.183594 414.363281 118.296875 L 414.363281 128.171875 C 414.363281 128.289062 414.320312 128.386719 414.238281 128.46875 C 414.164062 128.554688 414.066406 128.59375 413.941406 128.59375 L 410.761719 128.59375 C 410.644531 128.59375 410.546875 128.554688 410.464844 128.46875 C 410.378906 128.386719 410.339844 128.289062 410.339844 128.171875 L 410.339844 104.742188 C 410.339844 104.617188 410.378906 104.523438 410.464844 104.449219 C 410.546875 104.367188 410.644531 104.324219 410.761719 104.324219 L 424.136719 104.324219 C 424.25 104.324219 424.347656 104.367188 424.433594 104.449219 C 424.515625 104.523438 424.558594 104.617188 424.558594 104.742188 Z M 424.558594 107.378906 "/>
<path style=" stroke:none;fill-rule:nonzero;fill:rgb(89.411765%,67.058825%,33.333334%);fill-opacity:1;" d="M 443.378906 128.5625 C 443.261719 128.5625 443.164062 128.523438 443.082031 128.4375 C 442.996094 128.355469 442.957031 128.257812 442.957031 128.140625 L 442.957031 118.78125 L 442.925781 118.578125 L 436.925781 104.804688 C 436.902344 104.765625 436.894531 104.695312 436.894531 104.601562 C 436.894531 104.417969 437.007812 104.324219 437.238281 104.324219 L 440.636719 104.324219 C 440.886719 104.324219 441.042969 104.429688 441.117188 104.632812 L 444.859375 113.992188 C 444.929688 114.160156 445.003906 114.160156 445.078125 113.992188 L 448.773438 104.632812 C 448.84375 104.429688 449.011719 104.324219 449.269531 104.324219 L 452.699219 104.324219 C 452.855469 104.324219 452.953125 104.371094 452.996094 104.464844 C 453.046875 104.554688 453.050781 104.671875 453.011719 104.804688 L 446.980469 118.578125 L 446.949219 118.78125 L 446.949219 128.140625 C 446.949219 128.257812 446.90625 128.355469 446.824219 128.4375 C 446.738281 128.523438 446.640625 128.5625 446.527344 128.5625 Z M 443.378906 128.5625 "/>
<path style=" stroke:none;fill-rule:nonzero;fill:rgb(89.411765%,67.058825%,33.333334%);fill-opacity:1;" d="M 465.40625 128.90625 C 463.886719 128.90625 462.542969 128.59375 461.371094 127.96875 C 460.203125 127.34375 459.304688 126.464844 458.671875 125.316406 C 458.039062 124.175781 457.722656 122.847656 457.722656 121.339844 L 457.722656 111.574219 C 457.722656 110.089844 458.039062 108.777344 458.671875 107.628906 C 459.304688 106.488281 460.203125 105.601562 461.371094 104.976562 C 462.542969 104.355469 463.886719 104.042969 465.40625 104.042969 C 466.953125 104.042969 468.308594 104.355469 469.476562 104.976562 C 470.648438 105.601562 471.554688 106.488281 472.203125 107.628906 C 472.847656 108.777344 473.167969 110.089844 473.167969 111.574219 L 473.167969 121.339844 C 473.167969 122.847656 472.847656 124.175781 472.203125 125.316406 C 471.554688 126.464844 470.648438 127.34375 469.476562 127.96875 C 468.308594 128.59375 466.953125 128.90625 465.40625 128.90625 Z M 465.40625 125.441406 C 466.535156 125.441406 467.449219 125.078125 468.132812 124.351562 C 468.820312 123.625 469.164062 122.679688 469.164062 121.527344 L 469.164062 111.464844 C 469.164062 110.28125 468.820312 109.324219 468.132812 108.597656 C 467.449219 107.871094 466.535156 107.503906 465.40625 107.503906 C 464.304688 107.503906 463.414062 107.871094 462.742188 108.597656 C 462.074219 109.324219 461.742188 110.28125 461.742188 111.464844 L 461.742188 121.527344 C 461.742188 122.679688 462.074219 123.625 462.742188 124.351562 C 463.414062 125.078125 464.304688 125.441406 465.40625 125.441406 Z M 465.40625 125.441406 "/>
<path style=" stroke:none;fill-rule:nonzero;fill:rgb(89.411765%,67.058825%,33.333334%);fill-opacity:1;" d="M 486.414062 128.875 C 484.917969 128.875 483.585938 128.5625 482.425781 127.9375 C 481.269531 127.3125 480.375 126.433594 479.742188 125.285156 C 479.109375 124.144531 478.792969 122.816406 478.792969 121.308594 L 478.792969 104.742188 C 478.792969 104.617188 478.828125 104.523438 478.902344 104.449219 C 478.984375 104.367188 479.089844 104.324219 479.210938 104.324219 L 482.394531 104.324219 C 482.503906 104.324219 482.601562 104.367188 482.6875 104.449219 C 482.769531 104.523438 482.8125 104.617188 482.8125 104.742188 L 482.8125 121.527344 C 482.8125 122.679688 483.140625 123.617188 483.796875 124.335938 C 484.457031 125.042969 485.332031 125.394531 486.414062 125.394531 C 487.492188 125.394531 488.367188 125.042969 489.03125 124.335938 C 489.707031 123.617188 490.046875 122.679688 490.046875 121.527344 L 490.046875 104.742188 C 490.046875 104.617188 490.085938 104.523438 490.171875 104.449219 C 490.253906 104.367188 490.351562 104.324219 490.46875 104.324219 L 493.664062 104.324219 C 493.777344 104.324219 493.871094 104.367188 493.945312 104.449219 C 494.023438 104.523438 494.066406 104.617188 494.066406 104.742188 L 494.066406 121.308594 C 494.066406 122.816406 493.75 124.144531 493.117188 125.285156 C 492.480469 126.433594 491.589844 127.3125 490.4375 127.9375 C 489.28125 128.5625 487.941406 128.875 486.414062 128.875 Z M 486.414062 128.875 "/>
<path style=" stroke:none;fill-rule:nonzero;fill:rgb(89.411765%,67.058825%,33.333334%);fill-opacity:1;" d="M 514.371094 104.324219 C 514.496094 104.324219 514.59375 104.367188 514.667969 104.449219 C 514.75 104.523438 514.792969 104.617188 514.792969 104.742188 L 514.792969 107.410156 C 514.792969 107.527344 514.75 107.625 514.667969 107.707031 C 514.59375 107.78125 514.496094 107.816406 514.371094 107.816406 L 509.011719 107.816406 C 508.894531 107.816406 508.839844 107.878906 508.839844 108.003906 L 508.839844 128.171875 C 508.839844 128.289062 508.796875 128.386719 508.714844 128.46875 C 508.628906 128.554688 508.53125 128.59375 508.417969 128.59375 L 505.238281 128.59375 C 505.113281 128.59375 505.007812 128.554688 504.925781 128.46875 C 504.851562 128.386719 504.816406 128.289062 504.816406 128.171875 L 504.816406 108.003906 C 504.816406 107.878906 504.757812 107.816406 504.644531 107.816406 L 499.484375 107.816406 C 499.363281 107.816406 499.257812 107.78125 499.175781 107.707031 C 499.101562 107.625 499.066406 107.527344 499.066406 107.410156 L 499.066406 104.742188 C 499.066406 104.617188 499.101562 104.523438 499.175781 104.449219 C 499.257812 104.367188 499.363281 104.324219 499.484375 104.324219 Z M 514.371094 104.324219 "/>
<path style=" stroke:none;fill-rule:nonzero;fill:rgb(89.411765%,67.058825%,33.333334%);fill-opacity:1;" d="M 530.949219 104.742188 C 530.949219 104.617188 530.984375 104.523438 531.058594 104.449219 C 531.140625 104.367188 531.238281 104.324219 531.355469 104.324219 L 534.550781 104.324219 C 534.664062 104.324219 534.761719 104.367188 534.847656 104.449219 C 534.929688 104.523438 534.972656 104.617188 534.972656 104.742188 L 534.972656 128.171875 C 534.972656 128.289062 534.929688 128.386719 534.847656 128.46875 C 534.761719 128.554688 534.664062 128.59375 534.550781 128.59375 L 531.355469 128.59375 C 531.238281 128.59375 531.140625 128.554688 531.058594 128.46875 C 530.984375 128.386719 530.949219 128.289062 530.949219 128.171875 L 530.949219 118.328125 C 530.949219 118.214844 530.890625 118.15625 530.777344 118.15625 L 524.183594 118.15625 C 524.066406 118.15625 524.011719 118.214844 524.011719 118.328125 L 524.011719 128.171875 C 524.011719 128.289062 523.96875 128.386719 523.886719 128.46875 C 523.8125 128.554688 523.714844 128.59375 523.59375 128.59375 L 520.410156 128.59375 C 520.296875 128.59375 520.199219 128.554688 520.117188 128.46875 C 520.03125 128.386719 519.992188 128.289062 519.992188 128.171875 L 519.992188 104.742188 C 519.992188 104.617188 520.03125 104.523438 520.117188 104.449219 C 520.199219 104.367188 520.296875 104.324219 520.410156 104.324219 L 523.59375 104.324219 C 523.714844 104.324219 523.8125 104.367188 523.886719 104.449219 C 523.96875 104.523438 524.011719 104.617188 524.011719 104.742188 L 524.011719 114.476562 C 524.011719 114.59375 524.066406 114.648438 524.183594 114.648438 L 530.777344 114.648438 C 530.890625 114.648438 530.949219 114.59375 530.949219 114.476562 Z M 530.949219 104.742188 "/>
<path style=" stroke:none;fill-rule:nonzero;fill:rgb(89.411765%,67.058825%,33.333334%);fill-opacity:1;" d="M 561.992188 104.742188 C 561.992188 104.617188 562.03125 104.523438 562.117188 104.449219 C 562.199219 104.367188 562.296875 104.324219 562.414062 104.324219 L 565.59375 104.324219 C 565.71875 104.324219 565.816406 104.367188 565.890625 104.449219 C 565.972656 104.523438 566.015625 104.617188 566.015625 104.742188 L 566.015625 128.171875 C 566.015625 128.289062 565.972656 128.386719 565.890625 128.46875 C 565.816406 128.554688 565.71875 128.59375 565.59375 128.59375 L 562.242188 128.59375 C 562.03125 128.59375 561.871094 128.492188 561.757812 128.28125 L 554.199219 112.746094 C 554.15625 112.675781 554.109375 112.648438 554.058594 112.667969 C 554.015625 112.679688 553.996094 112.730469 553.996094 112.824219 L 554.027344 128.171875 C 554.027344 128.289062 553.984375 128.386719 553.902344 128.46875 C 553.816406 128.554688 553.71875 128.59375 553.605469 128.59375 L 550.425781 128.59375 C 550.308594 128.59375 550.210938 128.554688 550.128906 128.46875 C 550.042969 128.386719 550.003906 128.289062 550.003906 128.171875 L 550.003906 104.742188 C 550.003906 104.617188 550.042969 104.523438 550.128906 104.449219 C 550.210938 104.367188 550.308594 104.324219 550.425781 104.324219 L 553.746094 104.324219 C 553.972656 104.324219 554.136719 104.429688 554.230469 104.632812 L 561.820312 120.230469 C 561.871094 120.304688 561.917969 120.335938 561.960938 120.324219 C 562 120.316406 562.023438 120.261719 562.023438 120.171875 Z M 561.992188 104.742188 "/>
<path style=" stroke:none;fill-rule:nonzero;fill:rgb(89.411765%,67.058825%,33.333334%);fill-opacity:1;" d="M 586.566406 107.378906 C 586.566406 107.496094 586.523438 107.59375 586.441406 107.675781 C 586.355469 107.75 586.257812 107.785156 586.148438 107.785156 L 576.511719 107.785156 C 576.394531 107.785156 576.339844 107.84375 576.339844 107.957031 L 576.339844 114.476562 C 576.339844 114.59375 576.394531 114.648438 576.511719 114.648438 L 582.6875 114.648438 C 582.800781 114.648438 582.898438 114.691406 582.980469 114.773438 C 583.0625 114.859375 583.105469 114.957031 583.105469 115.070312 L 583.105469 117.707031 C 583.105469 117.824219 583.0625 117.921875 582.980469 118 C 582.898438 118.085938 582.800781 118.125 582.6875 118.125 L 576.511719 118.125 C 576.394531 118.125 576.339844 118.183594 576.339844 118.296875 L 576.339844 124.957031 C 576.339844 125.074219 576.394531 125.128906 576.511719 125.128906 L 586.148438 125.128906 C 586.257812 125.128906 586.355469 125.171875 586.441406 125.253906 C 586.523438 125.328125 586.566406 125.421875 586.566406 125.535156 L 586.566406 128.171875 C 586.566406 128.289062 586.523438 128.386719 586.441406 128.46875 C 586.355469 128.554688 586.257812 128.59375 586.148438 128.59375 L 572.742188 128.59375 C 572.625 128.59375 572.527344 128.554688 572.445312 128.46875 C 572.359375 128.386719 572.320312 128.289062 572.320312 128.171875 L 572.320312 104.742188 C 572.320312 104.617188 572.359375 104.523438 572.445312 104.449219 C 572.527344 104.367188 572.625 104.324219 572.742188 104.324219 L 586.148438 104.324219 C 586.257812 104.324219 586.355469 104.367188 586.441406 104.449219 C 586.523438 104.523438 586.566406 104.617188 586.566406 104.742188 Z M 586.566406 107.378906 "/>
<path style=" stroke:none;fill-rule:nonzero;fill:rgb(89.411765%,67.058825%,33.333334%);fill-opacity:1;" d="M 606.171875 104.324219 C 606.296875 104.324219 606.394531 104.367188 606.46875 104.449219 C 606.550781 104.523438 606.59375 104.617188 606.59375 104.742188 L 606.59375 107.410156 C 606.59375 107.527344 606.550781 107.625 606.46875 107.707031 C 606.394531 107.78125 606.296875 107.816406 606.171875 107.816406 L 600.8125 107.816406 C 600.695312 107.816406 600.640625 107.878906 600.640625 108.003906 L 600.640625 128.171875 C 600.640625 128.289062 600.597656 128.386719 600.515625 128.46875 C 600.429688 128.554688 600.332031 128.59375 600.21875 128.59375 L 597.039062 128.59375 C 596.914062 128.59375 596.808594 128.554688 596.726562 128.46875 C 596.652344 128.386719 596.617188 128.289062 596.617188 128.171875 L 596.617188 108.003906 C 596.617188 107.878906 596.558594 107.816406 596.445312 107.816406 L 591.285156 107.816406 C 591.164062 107.816406 591.058594 107.78125 590.976562 107.707031 C 590.902344 107.625 590.867188 107.527344 590.867188 107.410156 L 590.867188 104.742188 C 590.867188 104.617188 590.902344 104.523438 590.976562 104.449219 C 591.058594 104.367188 591.164062 104.324219 591.285156 104.324219 Z M 606.171875 104.324219 "/>
<path style=" stroke:none;fill-rule:nonzero;fill:rgb(89.411765%,67.058825%,33.333334%);fill-opacity:1;" d="M 616.375 128.59375 C 616.132812 128.59375 615.984375 128.480469 615.921875 128.25 L 610.453125 104.773438 L 610.453125 104.632812 C 610.453125 104.429688 610.574219 104.324219 610.824219 104.324219 L 614.144531 104.324219 C 614.402344 104.324219 614.554688 104.449219 614.597656 104.695312 L 617.824219 119.859375 C 617.84375 119.921875 617.875 119.953125 617.917969 119.953125 C 617.96875 119.953125 618.003906 119.914062 618.027344 119.828125 L 621.019531 104.695312 C 621.039062 104.449219 621.183594 104.324219 621.457031 104.324219 L 624.480469 104.324219 C 624.730469 104.324219 624.878906 104.449219 624.933594 104.695312 L 628.160156 119.859375 C 628.179688 119.953125 628.210938 120 628.253906 120 C 628.304688 120 628.339844 119.953125 628.363281 119.859375 L 631.402344 104.695312 C 631.453125 104.449219 631.605469 104.324219 631.855469 104.324219 L 635.050781 104.324219 C 635.367188 104.324219 635.492188 104.476562 635.421875 104.773438 L 630.265625 128.21875 C 630.222656 128.46875 630.070312 128.59375 629.8125 128.59375 L 626.695312 128.59375 C 626.445312 128.59375 626.292969 128.46875 626.242188 128.21875 L 623.0625 112.574219 C 623.039062 112.503906 623.003906 112.464844 622.953125 112.464844 C 622.910156 112.464844 622.875 112.503906 622.84375 112.574219 L 619.835938 128.21875 C 619.8125 128.46875 619.664062 128.59375 619.382812 128.59375 Z M 616.375 128.59375 "/>
<path style=" stroke:none;fill-rule:nonzero;fill:rgb(89.411765%,67.058825%,33.333334%);fill-opacity:1;" d="M 647.585938 128.90625 C 646.066406 128.90625 644.722656 128.59375 643.550781 127.96875 C 642.386719 127.34375 641.484375 126.464844 640.851562 125.316406 C 640.21875 124.175781 639.902344 122.847656 639.902344 121.339844 L 639.902344 111.574219 C 639.902344 110.089844 640.21875 108.777344 640.851562 107.628906 C 641.484375 106.488281 642.386719 105.601562 643.550781 104.976562 C 644.722656 104.355469 646.066406 104.042969 647.585938 104.042969 C 649.132812 104.042969 650.492188 104.355469 651.65625 104.976562 C 652.828125 105.601562 653.738281 106.488281 654.382812 107.628906 C 655.027344 108.777344 655.351562 110.089844 655.351562 111.574219 L 655.351562 121.339844 C 655.351562 122.847656 655.027344 124.175781 654.382812 125.316406 C 653.738281 126.464844 652.828125 127.34375 651.65625 127.96875 C 650.492188 128.59375 649.132812 128.90625 647.585938 128.90625 Z M 647.585938 125.441406 C 648.71875 125.441406 649.628906 125.078125 650.316406 124.351562 C 651 123.625 651.34375 122.679688 651.34375 121.527344 L 651.34375 111.464844 C 651.34375 110.28125 651 109.324219 650.316406 108.597656 C 649.628906 107.871094 648.71875 107.503906 647.585938 107.503906 C 646.484375 107.503906 645.597656 107.871094 644.921875 108.597656 C 644.253906 109.324219 643.925781 110.28125 643.925781 111.464844 L 643.925781 121.527344 C 643.925781 122.679688 644.253906 123.625 644.921875 124.351562 C 645.597656 125.078125 646.484375 125.441406 647.585938 125.441406 Z M 647.585938 125.441406 "/>
<path style=" stroke:none;fill-rule:nonzero;fill:rgb(89.411765%,67.058825%,33.333334%);fill-opacity:1;" d="M 672.757812 128.59375 C 672.496094 128.59375 672.335938 128.480469 672.273438 128.25 L 668.53125 118.296875 C 668.476562 118.203125 668.414062 118.15625 668.34375 118.15625 L 665.367188 118.15625 C 665.25 118.15625 665.195312 118.214844 665.195312 118.328125 L 665.195312 128.171875 C 665.195312 128.289062 665.152344 128.386719 665.070312 128.46875 C 664.996094 128.554688 664.902344 128.59375 664.777344 128.59375 L 661.597656 128.59375 C 661.480469 128.59375 661.382812 128.554688 661.300781 128.46875 C 661.214844 128.386719 661.175781 128.289062 661.175781 128.171875 L 661.175781 104.742188 C 661.175781 104.617188 661.214844 104.523438 661.300781 104.449219 C 661.382812 104.367188 661.480469 104.324219 661.597656 104.324219 L 669.59375 104.324219 C 670.910156 104.324219 672.078125 104.617188 673.101562 105.210938 C 674.117188 105.796875 674.898438 106.628906 675.453125 107.707031 C 676.015625 108.78125 676.296875 110.007812 676.296875 111.386719 C 676.296875 112.898438 675.945312 114.207031 675.25 115.320312 C 674.554688 116.421875 673.605469 117.207031 672.414062 117.675781 C 672.289062 117.71875 672.25 117.796875 672.304688 117.910156 L 676.390625 128.109375 C 676.410156 128.152344 676.421875 128.21875 676.421875 128.3125 C 676.421875 128.5 676.304688 128.59375 676.078125 128.59375 Z M 665.367188 107.785156 C 665.25 107.785156 665.195312 107.84375 665.195312 107.957031 L 665.195312 114.867188 C 665.195312 114.984375 665.25 115.039062 665.367188 115.039062 L 669.015625 115.039062 C 669.980469 115.039062 670.765625 114.710938 671.371094 114.054688 C 671.96875 113.394531 672.273438 112.519531 672.273438 111.433594 C 672.273438 110.324219 671.96875 109.4375 671.371094 108.785156 C 670.765625 108.121094 669.980469 107.785156 669.015625 107.785156 Z M 665.367188 107.785156 "/>
<path style=" stroke:none;fill-rule:nonzero;fill:rgb(89.411765%,67.058825%,33.333334%);fill-opacity:1;" d="M 682.113281 128.59375 C 681.996094 128.59375 681.898438 128.554688 681.816406 128.46875 C 681.730469 128.386719 681.691406 128.289062 681.691406 128.171875 L 681.691406 104.742188 C 681.691406 104.617188 681.730469 104.523438 681.816406 104.449219 C 681.898438 104.367188 681.996094 104.324219 682.113281 104.324219 L 685.292969 104.324219 C 685.417969 104.324219 685.515625 104.367188 685.585938 104.449219 C 685.667969 104.523438 685.710938 104.617188 685.710938 104.742188 L 685.710938 114.726562 C 685.710938 114.789062 685.730469 114.835938 685.773438 114.867188 C 685.824219 114.890625 685.871094 114.863281 685.914062 114.789062 L 693.023438 104.601562 C 693.136719 104.417969 693.296875 104.324219 693.507812 104.324219 L 697.015625 104.324219 C 697.167969 104.324219 697.277344 104.378906 697.339844 104.480469 C 697.402344 104.582031 697.386719 104.703125 697.292969 104.835938 L 690.730469 114.585938 C 690.707031 114.660156 690.707031 114.738281 690.730469 114.820312 L 697.777344 128.109375 C 697.816406 128.203125 697.839844 128.273438 697.839844 128.3125 C 697.839844 128.5 697.722656 128.59375 697.496094 128.59375 L 693.957031 128.59375 C 693.730469 128.59375 693.558594 128.492188 693.445312 128.28125 L 687.972656 117.953125 C 687.941406 117.886719 687.902344 117.847656 687.863281 117.847656 C 687.820312 117.847656 687.773438 117.871094 687.722656 117.910156 L 685.789062 120.574219 C 685.734375 120.667969 685.710938 120.742188 685.710938 120.792969 L 685.710938 128.171875 C 685.710938 128.289062 685.667969 128.386719 685.585938 128.46875 C 685.515625 128.554688 685.417969 128.59375 685.292969 128.59375 Z M 682.113281 128.59375 "/>
<path style=" stroke:none;fill-rule:nonzero;fill:rgb(100%,100%,100%);fill-opacity:1;" d="M 272.027344 79.980469 L 272.027344 73.957031 L 278.550781 73.957031 L 278.550781 79.980469 Z M 263.773438 79.980469 L 263.773438 73.957031 L 270.277344 73.957031 L 270.277344 79.980469 Z M 272.027344 72.292969 L 272.027344 68.242188 L 270.277344 68.242188 L 270.277344 72.292969 L 262.113281 72.292969 L 262.113281 83.054688 L 263.773438 83.054688 L 263.773438 81.640625 L 270.277344 81.640625 L 270.277344 89.011719 L 272.027344 89.011719 L 272.027344 81.640625 L 278.550781 81.640625 L 278.550781 82.941406 L 280.277344 82.941406 L 280.277344 72.292969 Z M 272.027344 72.292969 "/>
<path style=" stroke:none;fill-rule:nonzero;fill:rgb(100%,100%,100%);fill-opacity:1;" d="M 289.503906 77.34375 C 288.6875 76.660156 287.074219 75.730469 285.777344 75.160156 L 284.847656 76.320312 C 286.140625 76.933594 287.730469 77.933594 288.550781 78.664062 Z M 286.984375 88.648438 C 287.960938 86.53125 289.09375 83.664062 289.9375 81.300781 L 288.644531 80.347656 C 287.710938 82.941406 286.414062 85.941406 285.507812 87.714844 Z M 286.050781 69.726562 C 287.414062 70.359375 289.117188 71.40625 289.9375 72.132812 L 290.9375 70.835938 C 290.074219 70.132812 288.347656 69.132812 287.007812 68.5625 Z M 305.078125 72.359375 L 305.078125 70.816406 L 294.6875 70.816406 C 294.984375 70.109375 295.28125 69.382812 295.53125 68.652344 L 293.871094 68.242188 C 293.050781 70.882812 291.667969 73.523438 290.050781 75.25 C 290.484375 75.457031 291.1875 75.910156 291.53125 76.183594 C 292.367188 75.160156 293.234375 73.839844 293.960938 72.359375 Z M 295.894531 81.414062 C 296.894531 82.257812 298.054688 83.460938 298.578125 84.234375 L 299.621094 83.527344 C 299.050781 82.710938 297.871094 81.574219 296.871094 80.800781 Z M 293.484375 84.234375 C 293.644531 83.191406 293.828125 81.984375 293.984375 80.734375 L 302.1875 80.734375 C 302.101562 82.1875 301.988281 83.324219 301.875 84.234375 Z M 302.417969 76.023438 C 302.371094 77.207031 302.324219 78.230469 302.257812 79.183594 L 299.03125 79.183594 L 299.988281 78.527344 C 299.484375 77.796875 298.371094 76.726562 297.414062 76.023438 L 296.484375 76.636719 C 297.4375 77.367188 298.507812 78.4375 298.984375 79.183594 L 294.210938 79.183594 C 294.347656 78.117188 294.484375 77.046875 294.621094 76.023438 Z M 305.644531 80.734375 L 305.644531 79.183594 L 303.847656 79.183594 C 303.894531 78.050781 303.960938 76.773438 304.03125 75.339844 C 304.03125 75.136719 304.054688 74.542969 304.054688 74.542969 L 293.1875 74.542969 C 293.050781 75.957031 292.847656 77.570312 292.640625 79.183594 L 290.324219 79.183594 L 290.324219 80.734375 L 292.414062 80.734375 C 292.167969 82.597656 291.871094 84.394531 291.597656 85.734375 L 301.644531 85.734375 C 301.488281 86.464844 301.328125 86.921875 301.121094 87.125 C 300.917969 87.398438 300.6875 87.445312 300.28125 87.445312 C 299.871094 87.445312 298.804688 87.421875 297.644531 87.332031 C 297.871094 87.738281 298.03125 88.328125 298.078125 88.761719 C 299.167969 88.832031 300.304688 88.875 300.941406 88.808594 C 301.625 88.738281 302.101562 88.558594 302.507812 88.011719 C 302.828125 87.628906 303.054688 86.964844 303.28125 85.734375 L 305.011719 85.734375 L 305.011719 84.234375 L 303.488281 84.234375 C 303.578125 83.300781 303.671875 82.144531 303.785156 80.734375 Z M 305.644531 80.734375 "/>
<path style=" stroke:none;fill-rule:nonzero;fill:rgb(100%,100%,100%);fill-opacity:1;" d="M 319.011719 77.207031 L 320.5625 77.207031 L 320.5625 71.773438 L 323.035156 71.773438 L 323.035156 77.207031 L 324.582031 77.207031 L 324.582031 71.773438 L 329.445312 71.773438 L 329.445312 70.335938 L 323.152344 70.335938 C 322.921875 69.609375 322.535156 68.675781 322.105469 67.96875 L 320.578125 68.378906 C 320.898438 68.972656 321.195312 69.703125 321.398438 70.335938 L 314.988281 70.335938 L 314.988281 71.773438 L 319.011719 71.773438 Z M 325.378906 73.179688 C 326.492188 74.207031 327.742188 75.660156 328.265625 76.660156 L 329.539062 75.867188 C 328.992188 74.863281 327.742188 73.5 326.605469 72.472656 Z M 310.804688 88.398438 C 311.625 86.328125 312.53125 83.527344 313.195312 81.207031 L 311.832031 80.253906 C 311.078125 82.757812 310.058594 85.710938 309.304688 87.445312 Z M 312.601562 78.300781 C 312.105469 77.296875 310.988281 75.867188 310.035156 74.816406 L 308.714844 75.570312 C 309.648438 76.636719 310.714844 78.164062 311.191406 79.117188 Z M 309.667969 69.382812 C 310.648438 70.496094 311.785156 72.0625 312.285156 73.066406 L 313.695312 72.15625 C 313.148438 71.15625 311.96875 69.65625 310.988281 68.585938 Z M 316.832031 72.496094 C 316.195312 73.75 315.125 74.976562 313.96875 75.867188 C 314.304688 76.046875 314.921875 76.5 315.171875 76.75 C 316.285156 75.796875 317.511719 74.339844 318.261719 72.90625 Z M 317.398438 83.757812 C 317.535156 83.253906 317.671875 82.710938 317.808594 82.1875 L 327.765625 82.1875 L 327.765625 77.890625 L 315.332031 77.890625 L 315.332031 79.207031 L 326.171875 79.207031 L 326.171875 80.871094 L 316.46875 80.871094 C 316.195312 82.257812 315.738281 83.9375 315.332031 85.101562 L 326.789062 85.101562 C 326.46875 86.511719 326.128906 87.195312 325.742188 87.492188 C 325.558594 87.648438 325.335938 87.667969 324.925781 87.667969 C 324.46875 87.667969 323.289062 87.648438 322.128906 87.535156 C 322.375 87.941406 322.558594 88.535156 322.582031 88.96875 C 323.8125 89.058594 324.945312 89.058594 325.515625 89.011719 C 326.171875 88.992188 326.605469 88.898438 327.015625 88.535156 C 327.671875 88.035156 328.128906 86.898438 328.585938 84.464844 C 328.652344 84.234375 328.699219 83.757812 328.699219 83.757812 Z M 317.398438 83.757812 "/>
<path style=" stroke:none;fill-rule:nonzero;fill:rgb(100%,100%,100%);fill-opacity:1;" d="M 338.039062 84.097656 L 338.039062 82.460938 L 348.429688 82.460938 L 348.429688 84.097656 Z M 348.429688 79.617188 L 348.429688 81.253906 L 338.039062 81.253906 L 338.039062 79.617188 Z M 350.113281 78.324219 L 336.378906 78.324219 L 336.378906 89.082031 L 338.039062 89.082031 L 338.039062 85.328125 L 348.429688 85.328125 L 348.429688 87.171875 C 348.429688 87.511719 348.316406 87.605469 347.929688 87.628906 C 347.585938 87.628906 346.199219 87.628906 344.816406 87.605469 C 345.042969 88.011719 345.292969 88.558594 345.382812 88.992188 C 347.246094 88.992188 348.476562 88.992188 349.179688 88.738281 C 349.882812 88.511719 350.113281 88.101562 350.113281 87.171875 Z M 343.949219 75.570312 L 343.949219 73.910156 L 350.929688 73.910156 L 350.929688 72.609375 L 343.949219 72.609375 L 343.949219 71.109375 L 351.886719 71.109375 L 351.886719 69.769531 L 343.949219 69.769531 L 343.949219 68.242188 L 342.265625 68.242188 L 342.265625 69.769531 L 334.675781 69.769531 L 334.675781 71.109375 L 342.265625 71.109375 L 342.265625 72.609375 L 335.449219 72.609375 L 335.449219 73.910156 L 342.265625 73.910156 L 342.265625 75.570312 L 333.222656 75.570312 L 333.222656 76.910156 L 353.089844 76.910156 L 353.089844 75.570312 Z M 343.949219 75.570312 "/>
<path style=" stroke:none;fill-rule:nonzero;fill:rgb(100%,100%,100%);fill-opacity:1;" d="M 362.339844 82.1875 L 362.339844 77.683594 L 367.433594 77.683594 L 367.433594 82.1875 Z M 377.367188 82.1875 L 369.136719 82.1875 L 369.136719 77.683594 L 375.796875 77.683594 L 375.796875 76.09375 L 369.136719 76.09375 L 369.136719 72.632812 L 376.320312 72.632812 L 376.320312 70.996094 L 362.773438 70.996094 C 363.136719 70.222656 363.5 69.40625 363.820312 68.609375 L 362.117188 68.199219 C 361.042969 71.246094 359.132812 74.183594 357 76.046875 C 357.429688 76.277344 358.136719 76.839844 358.453125 77.113281 C 359.679688 75.933594 360.886719 74.382812 361.910156 72.632812 L 367.433594 72.632812 L 367.433594 76.09375 L 360.660156 76.09375 L 360.660156 82.1875 L 356.933594 82.1875 L 356.933594 83.824219 L 367.433594 83.824219 L 367.433594 89.035156 L 369.136719 89.035156 L 369.136719 83.824219 L 377.367188 83.824219 Z M 377.367188 82.1875 "/>
<path style=" stroke:none;fill-rule:nonzero;fill:rgb(100%,100%,100%);fill-opacity:1;" d="M 391.257812 82.574219 C 390.710938 81.597656 389.917969 80.371094 389.027344 79.09375 C 389.644531 77.230469 390.121094 75.160156 390.484375 72.953125 L 388.941406 72.792969 C 388.667969 74.476562 388.347656 76.046875 387.914062 77.546875 C 387.054688 76.390625 386.140625 75.203125 385.257812 74.183594 L 384.207031 75.113281 C 385.234375 76.367188 386.347656 77.84375 387.34375 79.277344 C 386.484375 81.6875 385.28125 83.710938 383.710938 85.238281 C 384.070312 85.460938 384.777344 85.941406 385.027344 86.167969 C 386.390625 84.714844 387.503906 82.917969 388.417969 80.78125 C 389.097656 81.847656 389.710938 82.847656 390.144531 83.664062 Z M 397.871094 83.371094 C 397.324219 82.164062 396.464844 80.664062 395.464844 79.140625 C 396.074219 77.273438 396.53125 75.226562 396.875 73 L 395.351562 72.839844 C 395.101562 74.5 394.804688 76.070312 394.371094 77.546875 C 393.554688 76.414062 392.6875 75.273438 391.828125 74.269531 L 390.734375 75.113281 C 391.757812 76.390625 392.847656 77.867188 393.828125 79.296875 C 392.917969 81.800781 391.710938 83.894531 390.03125 85.421875 C 390.417969 85.621094 391.074219 86.101562 391.371094 86.351562 C 392.800781 84.875 393.914062 83.054688 394.828125 80.894531 C 395.597656 82.164062 396.234375 83.371094 396.691406 84.347656 Z M 400.464844 69.632812 L 381.847656 69.632812 L 381.847656 88.992188 L 383.527344 88.992188 L 383.527344 71.226562 L 398.804688 71.226562 L 398.804688 86.785156 C 398.804688 87.171875 398.625 87.308594 398.214844 87.332031 C 397.78125 87.332031 396.304688 87.355469 394.804688 87.285156 C 395.03125 87.761719 395.351562 88.488281 395.441406 88.96875 C 397.484375 88.992188 398.714844 88.945312 399.441406 88.671875 C 400.167969 88.375 400.464844 87.851562 400.464844 86.785156 Z M 400.464844 69.632812 "/>
<path style=" stroke:none;fill-rule:nonzero;fill:rgb(100%,100%,100%);fill-opacity:1;" d="M 405.125 87.78125 C 407.21875 87.101562 409.988281 86.257812 412.648438 85.460938 L 412.375 83.984375 C 409.535156 84.804688 406.648438 85.644531 404.761719 86.101562 Z M 422.308594 82.050781 L 422.308594 86.191406 L 415.898438 86.191406 L 415.898438 82.050781 Z M 414.328125 88.808594 L 415.898438 88.808594 L 415.898438 87.691406 L 422.308594 87.691406 L 422.308594 88.785156 L 423.945312 88.785156 L 423.945312 80.527344 L 414.328125 80.527344 Z M 416.445312 71.953125 L 422.398438 71.953125 C 421.582031 73.410156 420.425781 74.636719 419.082031 75.707031 C 417.898438 74.703125 416.945312 73.546875 416.285156 72.222656 Z M 423.652344 70.359375 L 423.332031 70.40625 L 417.308594 70.40625 C 417.625 69.769531 417.945312 69.0625 418.21875 68.402344 L 416.695312 67.949219 C 415.738281 70.449219 414.148438 72.839844 412.398438 74.429688 L 412.648438 74 L 411.171875 73.113281 C 410.761719 73.886719 410.308594 74.679688 409.808594 75.457031 L 406.945312 75.75 C 408.261719 73.863281 409.601562 71.429688 410.605469 69.109375 L 409.007812 68.335938 C 408.078125 71.042969 406.398438 73.910156 405.894531 74.65625 C 405.398438 75.433594 404.988281 75.933594 404.601562 76.046875 C 404.804688 76.5 405.054688 77.320312 405.148438 77.683594 C 405.464844 77.523438 406.007812 77.386719 408.808594 77 C 407.804688 78.4375 406.898438 79.59375 406.464844 80.003906 C 405.78125 80.847656 405.238281 81.390625 404.761719 81.480469 C 404.941406 81.9375 405.214844 82.757812 405.308594 83.101562 C 405.78125 82.804688 406.535156 82.574219 412.128906 81.207031 C 412.058594 80.847656 412.035156 80.164062 412.082031 79.730469 L 407.917969 80.644531 C 409.441406 78.886719 410.964844 76.773438 412.28125 74.613281 C 412.601562 74.929688 413.082031 75.59375 413.308594 75.886719 C 414.011719 75.226562 414.71875 74.453125 415.355469 73.566406 C 416.035156 74.65625 416.878906 75.707031 417.875 76.613281 C 416.171875 77.730469 414.238281 78.597656 412.265625 79.160156 C 412.511719 79.527344 412.851562 80.277344 412.988281 80.734375 C 415.128906 80.003906 417.261719 78.980469 419.125 77.640625 C 420.785156 78.910156 422.785156 79.914062 424.902344 80.597656 C 425.015625 80.140625 425.289062 79.457031 425.582031 79.046875 C 423.652344 78.550781 421.855469 77.730469 420.355469 76.703125 C 422.152344 75.136719 423.675781 73.25 424.628906 70.996094 Z M 423.652344 70.359375 "/>
<path style=" stroke:none;fill-rule:nonzero;fill:rgb(100%,100%,100%);fill-opacity:1;" d="M 434.703125 89.109375 C 434.546875 89.109375 434.46875 89.03125 434.46875 88.875 L 434.46875 70.234375 C 434.46875 70.078125 434.546875 70 434.703125 70 L 435.855469 70 C 436.011719 70 436.089844 70.078125 436.089844 70.234375 L 436.089844 88.875 C 436.089844 89.03125 436.011719 89.109375 435.855469 89.109375 Z M 434.703125 89.109375 "/>
<path style=" stroke:none;fill-rule:nonzero;fill:rgb(100%,100%,100%);fill-opacity:1;" d="M 447.667969 82.625 C 447.667969 82.117188 447.734375 81.546875 447.871094 80.925781 C 448.015625 80.292969 448.25 79.597656 448.574219 78.851562 L 450.101562 79.441406 C 449.871094 80.046875 449.699219 80.597656 449.585938 81.097656 C 449.46875 81.59375 449.414062 82.058594 449.414062 82.484375 C 449.414062 83.273438 449.640625 83.910156 450.101562 84.402344 C 450.570312 84.902344 451.179688 85.265625 451.941406 85.496094 C 452.707031 85.722656 453.550781 85.835938 454.464844 85.835938 C 455.558594 85.835938 456.554688 85.714844 457.457031 85.464844 C 458.363281 85.214844 459.082031 84.875 459.625 84.449219 C 460.164062 84.019531 460.4375 83.546875 460.4375 83.03125 C 460.4375 82.664062 460.148438 82.351562 459.578125 82.078125 C 459.015625 81.808594 458.222656 81.527344 457.195312 81.238281 L 457.597656 79.472656 C 459.0625 80.058594 460.210938 80.453125 461.042969 80.660156 C 461.886719 80.871094 462.523438 80.972656 462.960938 80.972656 C 463.261719 80.972656 463.480469 81.058594 463.617188 81.222656 C 463.75 81.375 463.820312 81.570312 463.820312 81.796875 C 463.820312 82.027344 463.714844 82.242188 463.507812 82.4375 C 463.308594 82.625 463.054688 82.71875 462.742188 82.71875 L 461.964844 82.71875 C 461.972656 82.84375 461.988281 82.941406 462.011719 83.015625 C 462.03125 83.097656 462.042969 83.207031 462.042969 83.34375 C 462.042969 84.035156 461.71875 84.707031 461.074219 85.355469 C 460.441406 85.996094 459.519531 86.527344 458.316406 86.945312 C 457.109375 87.359375 455.667969 87.570312 453.996094 87.570312 C 452.851562 87.570312 451.804688 87.386719 450.847656 87.023438 C 449.890625 86.667969 449.121094 86.121094 448.542969 85.386719 C 447.957031 84.65625 447.667969 83.734375 447.667969 82.625 Z M 455.527344 91.609375 C 455.222656 91.609375 454.96875 91.503906 454.761719 91.296875 C 454.550781 91.085938 454.449219 90.84375 454.449219 90.5625 C 454.449219 90.269531 454.550781 90.019531 454.761719 89.800781 C 454.96875 89.589844 455.222656 89.488281 455.527344 89.488281 C 455.804688 89.488281 456.046875 89.589844 456.257812 89.800781 C 456.464844 90.019531 456.570312 90.269531 456.570312 90.5625 C 456.570312 90.84375 456.464844 91.085938 456.257812 91.296875 C 456.046875 91.503906 455.804688 91.609375 455.527344 91.609375 Z M 452.59375 91.609375 C 452.292969 91.609375 452.039062 91.503906 451.832031 91.296875 C 451.632812 91.085938 451.535156 90.84375 451.535156 90.5625 C 451.535156 90.269531 451.632812 90.019531 451.832031 89.800781 C 452.039062 89.589844 452.292969 89.488281 452.59375 89.488281 C 452.882812 89.488281 453.128906 89.589844 453.328125 89.800781 C 453.535156 90.019531 453.640625 90.269531 453.640625 90.5625 C 453.640625 90.84375 453.535156 91.085938 453.328125 91.296875 C 453.128906 91.503906 452.882812 91.609375 452.59375 91.609375 Z M 452.59375 91.609375 "/>
<path style=" stroke:none;fill-rule:nonzero;fill:rgb(100%,100%,100%);fill-opacity:1;" d="M 462.75 82.71875 L 462.964844 80.972656 C 463.558594 80.972656 464.027344 80.921875 464.371094 80.816406 C 464.710938 80.703125 464.96875 80.496094 465.148438 80.191406 C 465.324219 79.878906 465.476562 79.433594 465.601562 78.851562 C 465.734375 78.269531 465.898438 77.503906 466.085938 76.558594 L 467.753906 76.882812 C 467.660156 77.269531 467.558594 77.710938 467.457031 78.210938 C 467.351562 78.710938 467.300781 79.128906 467.300781 79.472656 C 467.300781 79.753906 467.363281 80.011719 467.488281 80.238281 C 467.613281 80.46875 467.878906 80.652344 468.296875 80.785156 C 468.722656 80.910156 469.390625 80.972656 470.292969 80.972656 C 470.582031 80.972656 470.796875 81.058594 470.933594 81.222656 C 471.0625 81.375 471.132812 81.570312 471.132812 81.796875 C 471.132812 82.027344 471.035156 82.242188 470.839844 82.4375 C 470.640625 82.625 470.386719 82.71875 470.074219 82.71875 C 468.953125 82.71875 468.117188 82.601562 467.582031 82.359375 C 467.039062 82.109375 466.664062 81.746094 466.457031 81.269531 C 466.03125 81.859375 465.539062 82.25 464.976562 82.4375 C 464.425781 82.625 463.683594 82.71875 462.75 82.71875 Z M 466.738281 74.375 C 466.433594 74.375 466.179688 74.273438 465.976562 74.0625 C 465.777344 73.855469 465.679688 73.605469 465.679688 73.3125 C 465.679688 73.03125 465.777344 72.789062 465.976562 72.578125 C 466.179688 72.359375 466.433594 72.253906 466.738281 72.253906 C 467.027344 72.253906 467.273438 72.359375 467.472656 72.578125 C 467.679688 72.789062 467.78125 73.03125 467.78125 73.3125 C 467.78125 73.605469 467.679688 73.855469 467.472656 74.0625 C 467.273438 74.273438 467.027344 74.375 466.738281 74.375 Z M 466.738281 74.375 "/>
<path style=" stroke:none;fill-rule:nonzero;fill:rgb(100%,100%,100%);fill-opacity:1;" d="M 470.074219 82.71875 L 470.292969 80.972656 C 470.996094 80.972656 471.546875 80.921875 471.945312 80.816406 C 472.347656 80.703125 472.652344 80.496094 472.863281 80.191406 C 473.070312 79.878906 473.238281 79.433594 473.363281 78.851562 C 473.488281 78.269531 473.644531 77.503906 473.828125 76.558594 L 475.496094 76.882812 C 475.414062 77.269531 475.316406 77.710938 475.203125 78.210938 C 475.097656 78.710938 475.046875 79.128906 475.046875 79.472656 C 475.046875 79.683594 475.0625 79.878906 475.09375 80.066406 C 475.125 80.253906 475.226562 80.410156 475.40625 80.535156 C 475.589844 80.660156 475.902344 80.765625 476.339844 80.847656 C 476.785156 80.933594 477.421875 80.972656 478.257812 80.972656 C 478.546875 80.972656 478.761719 81.058594 478.894531 81.222656 C 479.039062 81.375 479.113281 81.570312 479.113281 81.796875 C 479.113281 82.027344 479.007812 82.242188 478.800781 82.4375 C 478.605469 82.625 478.351562 82.71875 478.039062 82.71875 C 477.113281 82.71875 476.390625 82.664062 475.871094 82.5625 C 475.351562 82.449219 474.96875 82.292969 474.71875 82.09375 C 474.46875 81.886719 474.285156 81.621094 474.171875 81.296875 C 473.757812 81.890625 473.246094 82.277344 472.644531 82.453125 C 472.042969 82.628906 471.183594 82.71875 470.074219 82.71875 Z M 475.453125 86.757812 C 475.148438 86.757812 474.894531 86.652344 474.6875 86.445312 C 474.476562 86.234375 474.375 85.992188 474.375 85.714844 C 474.375 85.421875 474.476562 85.167969 474.6875 84.949219 C 474.894531 84.738281 475.148438 84.636719 475.453125 84.636719 C 475.730469 84.636719 475.972656 84.738281 476.183594 84.949219 C 476.390625 85.167969 476.496094 85.421875 476.496094 85.714844 C 476.496094 85.992188 476.390625 86.234375 476.183594 86.445312 C 475.972656 86.652344 475.730469 86.757812 475.453125 86.757812 Z M 472.519531 86.757812 C 472.214844 86.757812 471.964844 86.652344 471.757812 86.445312 C 471.558594 86.234375 471.460938 85.992188 471.460938 85.714844 C 471.460938 85.421875 471.558594 85.167969 471.757812 84.949219 C 471.964844 84.738281 472.214844 84.636719 472.519531 84.636719 C 472.808594 84.636719 473.054688 84.738281 473.253906 84.949219 C 473.460938 85.167969 473.566406 85.421875 473.566406 85.714844 C 473.566406 85.992188 473.460938 86.234375 473.253906 86.445312 C 473.054688 86.652344 472.808594 86.757812 472.519531 86.757812 Z M 472.519531 86.757812 "/>
<path style=" stroke:none;fill-rule:nonzero;fill:rgb(100%,100%,100%);fill-opacity:1;" d="M 488.375 83 C 486.847656 83 485.613281 82.929688 484.679688 82.796875 C 483.753906 82.660156 483.046875 82.453125 482.558594 82.171875 C 482.082031 81.890625 481.75 81.539062 481.5625 81.113281 C 481.21875 81.609375 480.859375 81.976562 480.488281 82.203125 C 480.113281 82.421875 479.714844 82.5625 479.300781 82.625 C 478.898438 82.6875 478.476562 82.71875 478.039062 82.71875 L 478.257812 80.972656 C 478.917969 80.972656 479.429688 80.84375 479.785156 80.582031 C 480.148438 80.3125 480.429688 79.871094 480.625 79.253906 C 480.832031 78.644531 481.066406 77.800781 481.328125 76.730469 L 482.886719 77.132812 C 482.738281 77.632812 482.625 78.085938 482.542969 78.492188 C 482.46875 78.898438 482.433594 79.191406 482.433594 79.378906 C 482.433594 79.777344 482.542969 80.109375 482.761719 80.378906 C 482.988281 80.640625 483.453125 80.839844 484.148438 80.972656 C 484.605469 80.253906 485.148438 79.53125 485.769531 78.804688 C 486.394531 78.066406 487.074219 77.390625 487.8125 76.777344 C 488.5625 76.164062 489.332031 75.667969 490.136719 75.292969 C 490.945312 74.910156 491.761719 74.714844 492.582031 74.714844 C 493.363281 74.714844 494.03125 74.878906 494.59375 75.199219 C 495.164062 75.523438 495.597656 75.957031 495.902344 76.496094 C 496.203125 77.035156 496.355469 77.648438 496.355469 78.335938 C 496.355469 79.175781 496.105469 79.953125 495.605469 80.660156 C 495.117188 81.355469 494.289062 81.921875 493.128906 82.359375 C 491.964844 82.785156 490.378906 83 488.375 83 Z M 492.457031 76.480469 C 491.8125 76.480469 491.164062 76.644531 490.507812 76.960938 C 489.863281 77.273438 489.25 77.679688 488.671875 78.179688 C 488.085938 78.679688 487.5625 79.199219 487.097656 79.738281 C 486.628906 80.269531 486.238281 80.75 485.925781 81.175781 C 486.675781 81.21875 487.617188 81.238281 488.765625 81.238281 C 490.640625 81.238281 492.105469 81.011719 493.144531 80.550781 C 494.191406 80.082031 494.71875 79.402344 494.71875 78.507812 C 494.71875 78.195312 494.640625 77.890625 494.484375 77.585938 C 494.328125 77.273438 494.078125 77.015625 493.738281 76.808594 C 493.402344 76.589844 492.976562 76.480469 492.457031 76.480469 Z M 498.304688 82.71875 C 497.929688 82.71875 497.460938 82.679688 496.902344 82.609375 C 496.339844 82.527344 495.765625 82.386719 495.1875 82.1875 C 494.613281 81.980469 494.128906 81.699219 493.738281 81.34375 L 495.480469 80.472656 C 495.980469 80.671875 496.496094 80.808594 497.027344 80.878906 C 497.5625 80.941406 498.0625 80.972656 498.523438 80.972656 C 498.808594 80.972656 499.023438 81.058594 499.160156 81.222656 C 499.304688 81.375 499.378906 81.570312 499.378906 81.796875 C 499.378906 82.027344 499.273438 82.242188 499.066406 82.4375 C 498.867188 82.625 498.617188 82.71875 498.304688 82.71875 Z M 498.304688 82.71875 "/>
<path style=" stroke:none;fill-rule:nonzero;fill:rgb(100%,100%,100%);fill-opacity:1;" d="M 498.304688 82.71875 L 498.492188 80.972656 C 499.304688 80.972656 499.867188 80.894531 500.191406 80.738281 C 500.523438 80.574219 500.714844 80.296875 500.769531 79.910156 C 500.820312 79.515625 500.832031 78.957031 500.800781 78.226562 L 500.394531 67.355469 L 502.125 67.355469 L 502.5625 78.039062 C 502.601562 79.046875 502.53125 79.902344 502.34375 80.597656 C 502.164062 81.292969 501.765625 81.824219 501.144531 82.1875 C 500.527344 82.542969 499.585938 82.71875 498.304688 82.71875 Z M 498.304688 82.71875 "/>
<path style=" stroke:none;fill-rule:nonzero;fill:rgb(100%,100%,100%);fill-opacity:1;" d="M 505.824219 82.609375 L 505.402344 67.355469 L 507.132812 67.355469 L 507.554688 82.609375 Z M 505.824219 82.609375 "/>
<path style=" stroke:none;fill-rule:nonzero;fill:rgb(100%,100%,100%);fill-opacity:1;" d="M 516.847656 82.625 C 516.847656 82.117188 516.914062 81.546875 517.050781 80.925781 C 517.195312 80.292969 517.429688 79.597656 517.753906 78.851562 L 519.28125 79.441406 C 519.050781 80.046875 518.878906 80.597656 518.765625 81.097656 C 518.648438 81.59375 518.59375 82.058594 518.59375 82.484375 C 518.59375 83.273438 518.820312 83.910156 519.28125 84.402344 C 519.75 84.902344 520.359375 85.265625 521.121094 85.496094 C 521.886719 85.722656 522.730469 85.835938 523.644531 85.835938 C 524.738281 85.835938 525.734375 85.714844 526.636719 85.464844 C 527.542969 85.214844 528.261719 84.875 528.804688 84.449219 C 529.34375 84.019531 529.617188 83.546875 529.617188 83.03125 C 529.617188 82.664062 529.328125 82.351562 528.757812 82.078125 C 528.195312 81.808594 527.402344 81.527344 526.375 81.238281 L 526.777344 79.472656 C 528.242188 80.058594 529.390625 80.453125 530.222656 80.660156 C 531.066406 80.871094 531.703125 80.972656 532.140625 80.972656 C 532.441406 80.972656 532.660156 81.058594 532.796875 81.222656 C 532.929688 81.375 533 81.570312 533 81.796875 C 533 82.027344 532.894531 82.242188 532.6875 82.4375 C 532.488281 82.625 532.234375 82.71875 531.921875 82.71875 L 531.144531 82.71875 C 531.152344 82.84375 531.167969 82.941406 531.191406 83.015625 C 531.210938 83.097656 531.222656 83.207031 531.222656 83.34375 C 531.222656 84.035156 530.898438 84.707031 530.253906 85.355469 C 529.621094 85.996094 528.699219 86.527344 527.496094 86.945312 C 526.289062 87.359375 524.847656 87.570312 523.175781 87.570312 C 522.03125 87.570312 520.984375 87.386719 520.027344 87.023438 C 519.070312 86.667969 518.300781 86.121094 517.722656 85.386719 C 517.136719 84.65625 516.847656 83.734375 516.847656 82.625 Z M 524.707031 91.609375 C 524.402344 91.609375 524.148438 91.503906 523.941406 91.296875 C 523.730469 91.085938 523.628906 90.84375 523.628906 90.5625 C 523.628906 90.269531 523.730469 90.019531 523.941406 89.800781 C 524.148438 89.589844 524.402344 89.488281 524.707031 89.488281 C 524.984375 89.488281 525.226562 89.589844 525.4375 89.800781 C 525.644531 90.019531 525.75 90.269531 525.75 90.5625 C 525.75 90.84375 525.644531 91.085938 525.4375 91.296875 C 525.226562 91.503906 524.984375 91.609375 524.707031 91.609375 Z M 521.773438 91.609375 C 521.472656 91.609375 521.21875 91.503906 521.011719 91.296875 C 520.8125 91.085938 520.714844 90.84375 520.714844 90.5625 C 520.714844 90.269531 520.8125 90.019531 521.011719 89.800781 C 521.21875 89.589844 521.472656 89.488281 521.773438 89.488281 C 522.0625 89.488281 522.308594 89.589844 522.507812 89.800781 C 522.714844 90.019531 522.820312 90.269531 522.820312 90.5625 C 522.820312 90.84375 522.714844 91.085938 522.507812 91.296875 C 522.308594 91.503906 522.0625 91.609375 521.773438 91.609375 Z M 521.773438 91.609375 "/>
<path style=" stroke:none;fill-rule:nonzero;fill:rgb(100%,100%,100%);fill-opacity:1;" d="M 531.929688 82.71875 L 532.113281 80.972656 C 533.582031 80.972656 535.003906 80.753906 536.386719 80.316406 C 537.765625 79.878906 539.027344 79.261719 540.175781 78.460938 C 539.613281 77.984375 538.929688 77.59375 538.132812 77.289062 C 537.328125 76.988281 536.441406 76.835938 535.464844 76.835938 C 535.113281 76.835938 534.800781 76.859375 534.53125 76.898438 C 534.257812 76.929688 533.929688 76.988281 533.550781 77.070312 L 533.207031 75.449219 C 534.003906 75.210938 534.757812 75.089844 535.464844 75.089844 C 536.214844 75.089844 536.886719 75.179688 537.476562 75.355469 C 538.078125 75.535156 538.621094 75.753906 539.113281 76.011719 C 539.601562 76.261719 540.066406 76.519531 540.5 76.777344 C 540.9375 77.035156 541.359375 77.253906 541.765625 77.429688 C 542.175781 77.609375 542.609375 77.695312 543.058594 77.695312 L 543.511719 77.695312 L 543.648438 79.238281 C 543.214844 79.238281 542.785156 79.285156 542.371094 79.378906 C 542.640625 80.027344 543.027344 80.453125 543.527344 80.660156 C 544.023438 80.871094 544.761719 80.972656 545.738281 80.972656 C 546.039062 80.972656 546.257812 81.058594 546.394531 81.222656 C 546.527344 81.375 546.597656 81.570312 546.597656 81.796875 C 546.597656 82.027344 546.496094 82.242188 546.300781 82.4375 C 546.101562 82.625 545.847656 82.71875 545.535156 82.71875 C 544.765625 82.71875 544.074219 82.648438 543.464844 82.515625 C 542.859375 82.382812 542.34375 82.109375 541.917969 81.703125 C 541.492188 81.296875 541.179688 80.691406 540.984375 79.878906 C 540.441406 80.128906 539.894531 80.417969 539.332031 80.738281 C 538.769531 81.0625 538.148438 81.371094 537.460938 81.671875 C 536.777344 81.964844 535.980469 82.214844 535.078125 82.421875 C 534.179688 82.617188 533.132812 82.71875 531.929688 82.71875 Z M 537.492188 86.585938 C 537.1875 86.585938 536.933594 86.480469 536.730469 86.273438 C 536.53125 86.0625 536.433594 85.8125 536.433594 85.527344 C 536.433594 85.246094 536.53125 84.996094 536.730469 84.777344 C 536.933594 84.566406 537.1875 84.464844 537.492188 84.464844 C 537.78125 84.464844 538.027344 84.566406 538.226562 84.777344 C 538.433594 84.996094 538.539062 85.246094 538.539062 85.527344 C 538.539062 85.8125 538.433594 86.0625 538.226562 86.273438 C 538.027344 86.480469 537.78125 86.585938 537.492188 86.585938 Z M 537.492188 86.585938 "/>
<path style=" stroke:none;fill-rule:nonzero;fill:rgb(100%,100%,100%);fill-opacity:1;" d="M 545.53125 82.71875 L 545.75 80.972656 C 546.457031 80.972656 547.003906 80.921875 547.402344 80.816406 C 547.808594 80.703125 548.113281 80.496094 548.320312 80.191406 C 548.527344 79.878906 548.695312 79.433594 548.820312 78.851562 C 548.945312 78.269531 549.101562 77.503906 549.289062 76.558594 L 550.957031 76.882812 C 550.871094 77.269531 550.773438 77.710938 550.660156 78.210938 C 550.554688 78.710938 550.503906 79.128906 550.503906 79.472656 C 550.503906 79.683594 550.519531 79.878906 550.550781 80.066406 C 550.582031 80.253906 550.683594 80.410156 550.863281 80.535156 C 551.050781 80.660156 551.363281 80.765625 551.796875 80.847656 C 552.242188 80.933594 552.882812 80.972656 553.714844 80.972656 C 554.003906 80.972656 554.21875 81.058594 554.355469 81.222656 C 554.5 81.375 554.574219 81.570312 554.574219 81.796875 C 554.574219 82.027344 554.46875 82.242188 554.261719 82.4375 C 554.0625 82.625 553.808594 82.71875 553.496094 82.71875 C 552.570312 82.71875 551.847656 82.664062 551.332031 82.5625 C 550.808594 82.449219 550.425781 82.292969 550.175781 82.09375 C 549.925781 81.886719 549.746094 81.621094 549.632812 81.296875 C 549.214844 81.890625 548.703125 82.277344 548.105469 82.453125 C 547.5 82.628906 546.640625 82.71875 545.53125 82.71875 Z M 550.910156 86.757812 C 550.605469 86.757812 550.351562 86.652344 550.144531 86.445312 C 549.933594 86.234375 549.835938 85.992188 549.835938 85.714844 C 549.835938 85.421875 549.933594 85.167969 550.144531 84.949219 C 550.351562 84.738281 550.605469 84.636719 550.910156 84.636719 C 551.191406 84.636719 551.433594 84.738281 551.640625 84.949219 C 551.847656 85.167969 551.953125 85.421875 551.953125 85.714844 C 551.953125 85.992188 551.847656 86.234375 551.640625 86.445312 C 551.433594 86.652344 551.191406 86.757812 550.910156 86.757812 Z M 547.980469 86.757812 C 547.675781 86.757812 547.421875 86.652344 547.214844 86.445312 C 547.015625 86.234375 546.917969 85.992188 546.917969 85.714844 C 546.917969 85.421875 547.015625 85.167969 547.214844 84.949219 C 547.421875 84.738281 547.675781 84.636719 547.980469 84.636719 C 548.265625 84.636719 548.511719 84.738281 548.710938 84.949219 C 548.917969 85.167969 549.023438 85.421875 549.023438 85.714844 C 549.023438 85.992188 548.917969 86.234375 548.710938 86.445312 C 548.511719 86.652344 548.265625 86.757812 547.980469 86.757812 Z M 547.980469 86.757812 "/>
<path style=" stroke:none;fill-rule:nonzero;fill:rgb(100%,100%,100%);fill-opacity:1;" d="M 553.496094 82.71875 L 553.683594 80.972656 C 554.496094 80.972656 555.058594 80.894531 555.382812 80.738281 C 555.714844 80.574219 555.90625 80.296875 555.960938 79.910156 C 556.011719 79.515625 556.023438 78.957031 555.992188 78.226562 L 555.632812 67.355469 L 557.410156 67.355469 L 557.753906 78.179688 C 557.761719 78.910156 557.871094 79.472656 558.082031 79.878906 C 558.296875 80.285156 558.582031 80.574219 558.9375 80.738281 C 559.300781 80.894531 559.695312 80.972656 560.121094 80.972656 C 560.410156 80.972656 560.625 81.058594 560.761719 81.222656 C 560.894531 81.375 560.964844 81.570312 560.964844 81.796875 C 560.964844 82.027344 560.863281 82.242188 560.667969 82.4375 C 560.46875 82.625 560.214844 82.71875 559.902344 82.71875 C 559.175781 82.71875 558.597656 82.578125 558.175781 82.296875 C 557.746094 82.015625 557.441406 81.679688 557.253906 81.28125 C 556.972656 81.75 556.539062 82.109375 555.945312 82.359375 C 555.351562 82.601562 554.535156 82.71875 553.496094 82.71875 Z M 553.496094 82.71875 "/>
<path style=" stroke:none;fill-rule:nonzero;fill:rgb(100%,100%,100%);fill-opacity:1;" d="M 559.90625 82.71875 L 560.089844 80.972656 C 561.558594 80.972656 562.980469 80.753906 564.363281 80.316406 C 565.742188 79.878906 567.003906 79.261719 568.152344 78.460938 C 567.589844 77.984375 566.90625 77.59375 566.109375 77.289062 C 565.304688 76.988281 564.417969 76.835938 563.441406 76.835938 C 563.089844 76.835938 562.777344 76.859375 562.507812 76.898438 C 562.234375 76.929688 561.90625 76.988281 561.527344 77.070312 L 561.183594 75.449219 C 561.980469 75.210938 562.734375 75.089844 563.441406 75.089844 C 564.191406 75.089844 564.863281 75.179688 565.453125 75.355469 C 566.054688 75.535156 566.597656 75.753906 567.089844 76.011719 C 567.578125 76.261719 568.042969 76.519531 568.476562 76.777344 C 568.914062 77.035156 569.335938 77.253906 569.742188 77.429688 C 570.152344 77.609375 570.585938 77.695312 571.035156 77.695312 L 571.488281 77.695312 L 571.625 79.238281 C 571.191406 79.238281 570.761719 79.285156 570.347656 79.378906 C 570.617188 80.027344 571.003906 80.453125 571.5 80.660156 C 572 80.871094 572.738281 80.972656 573.714844 80.972656 C 574.015625 80.972656 574.234375 81.058594 574.371094 81.222656 C 574.503906 81.375 574.574219 81.570312 574.574219 81.796875 C 574.574219 82.027344 574.472656 82.242188 574.277344 82.4375 C 574.078125 82.625 573.824219 82.71875 573.511719 82.71875 C 572.742188 82.71875 572.050781 82.648438 571.441406 82.515625 C 570.835938 82.382812 570.320312 82.109375 569.894531 81.703125 C 569.46875 81.296875 569.15625 80.691406 568.960938 79.878906 C 568.417969 80.128906 567.871094 80.417969 567.308594 80.738281 C 566.746094 81.0625 566.125 81.371094 565.4375 81.671875 C 564.753906 81.964844 563.957031 82.214844 563.054688 82.421875 C 562.15625 82.617188 561.109375 82.71875 559.90625 82.71875 Z M 563.257812 72.890625 C 562.953125 72.890625 562.699219 72.789062 562.492188 72.578125 C 562.292969 72.371094 562.195312 72.125 562.195312 71.832031 C 562.195312 71.550781 562.292969 71.308594 562.492188 71.097656 C 562.699219 70.878906 562.953125 70.769531 563.257812 70.769531 C 563.542969 70.769531 563.789062 70.878906 563.988281 71.097656 C 564.195312 71.308594 564.300781 71.550781 564.300781 71.832031 C 564.300781 72.125 564.195312 72.371094 563.988281 72.578125 C 563.789062 72.789062 563.542969 72.890625 563.257812 72.890625 Z M 563.257812 72.890625 "/>
<path style=" stroke:none;fill-rule:nonzero;fill:rgb(100%,100%,100%);fill-opacity:1;" d="M 573.507812 82.71875 L 573.695312 80.972656 C 574.507812 80.972656 575.070312 80.894531 575.394531 80.738281 C 575.726562 80.574219 575.917969 80.296875 575.972656 79.910156 C 576.023438 79.515625 576.035156 78.957031 576.003906 78.226562 L 575.597656 67.355469 L 577.328125 67.355469 L 577.765625 78.039062 C 577.804688 79.046875 577.734375 79.902344 577.546875 80.597656 C 577.367188 81.292969 576.96875 81.824219 576.34375 82.1875 C 575.730469 82.542969 574.785156 82.71875 573.507812 82.71875 Z M 573.507812 82.71875 "/>
<path style=" stroke:none;fill-rule:nonzero;fill:rgb(100%,100%,100%);fill-opacity:1;" d="M 581.023438 82.609375 L 580.605469 67.355469 L 582.335938 67.355469 L 582.753906 82.609375 Z M 581.023438 82.609375 "/>
<path style=" stroke:none;fill-rule:nonzero;fill:rgb(100%,100%,100%);fill-opacity:1;" d="M 599.734375 83.0625 C 597.199219 83.0625 595.28125 82.726562 593.984375 82.0625 C 592.695312 81.398438 592.050781 80.285156 592.050781 78.726562 C 592.050781 78.195312 592.113281 77.632812 592.238281 77.039062 C 592.371094 76.449219 592.507812 75.894531 592.644531 75.371094 L 594.25 75.777344 C 594.164062 76.089844 594.066406 76.492188 593.953125 76.976562 C 593.847656 77.457031 593.796875 77.875 593.796875 78.226562 C 593.796875 78.96875 593.984375 79.5625 594.359375 80.019531 C 594.738281 80.46875 595.402344 80.796875 596.335938 81.003906 C 597.28125 81.203125 598.601562 81.296875 600.296875 81.296875 C 603.609375 81.296875 606.035156 81.125 607.5625 80.769531 C 609.097656 80.40625 609.867188 79.730469 609.867188 78.742188 C 609.867188 78.210938 609.761719 77.585938 609.554688 76.867188 C 609.359375 76.152344 609.105469 75.386719 608.792969 74.574219 L 610.445312 74 C 610.714844 74.695312 610.964844 75.445312 611.191406 76.246094 C 611.429688 77.035156 611.550781 77.753906 611.550781 78.398438 C 611.550781 79.238281 611.355469 79.957031 610.976562 80.550781 C 610.589844 81.144531 609.945312 81.625 609.042969 82 C 608.144531 82.367188 606.941406 82.628906 605.425781 82.796875 C 603.90625 82.972656 602.011719 83.0625 599.734375 83.0625 Z M 601.792969 87.132812 C 601.488281 87.132812 601.234375 87.027344 601.03125 86.820312 C 600.832031 86.609375 600.734375 86.359375 600.734375 86.070312 C 600.734375 85.789062 600.832031 85.542969 601.03125 85.324219 C 601.234375 85.113281 601.488281 85.011719 601.792969 85.011719 C 602.082031 85.011719 602.328125 85.113281 602.527344 85.324219 C 602.734375 85.542969 602.839844 85.789062 602.839844 86.070312 C 602.839844 86.359375 602.734375 86.609375 602.527344 86.820312 C 602.328125 87.027344 602.082031 87.132812 601.792969 87.132812 Z M 601.792969 87.132812 "/>
<path style=" stroke:none;fill-rule:nonzero;fill:rgb(100%,100%,100%);fill-opacity:1;" d="M 618.839844 82.71875 C 617.683594 82.71875 616.804688 82.59375 616.203125 82.34375 C 615.613281 82.085938 615.199219 81.683594 614.972656 81.144531 C 614.742188 80.59375 614.613281 79.890625 614.582031 79.039062 L 614.160156 67.355469 L 615.90625 67.355469 L 616.328125 78.351562 C 616.359375 79.058594 616.425781 79.597656 616.53125 79.972656 C 616.644531 80.347656 616.890625 80.609375 617.265625 80.753906 C 617.636719 80.902344 618.230469 80.972656 619.039062 80.972656 C 619.339844 80.972656 619.558594 81.058594 619.695312 81.222656 C 619.828125 81.375 619.898438 81.570312 619.898438 81.796875 C 619.898438 82.027344 619.796875 82.242188 619.601562 82.4375 C 619.402344 82.625 619.148438 82.71875 618.839844 82.71875 Z M 618.839844 82.71875 "/>
<path style=" stroke:none;fill-rule:nonzero;fill:rgb(100%,100%,100%);fill-opacity:1;" d="M 618.832031 82.71875 L 619.050781 80.972656 C 619.644531 80.972656 620.113281 80.921875 620.453125 80.816406 C 620.796875 80.703125 621.054688 80.496094 621.234375 80.191406 C 621.410156 79.878906 621.5625 79.433594 621.6875 78.851562 C 621.816406 78.269531 621.980469 77.503906 622.167969 76.558594 L 623.835938 76.882812 C 623.742188 77.269531 623.640625 77.710938 623.539062 78.210938 C 623.4375 78.710938 623.386719 79.128906 623.386719 79.472656 C 623.386719 79.753906 623.445312 80.011719 623.570312 80.238281 C 623.695312 80.46875 623.964844 80.652344 624.382812 80.785156 C 624.808594 80.910156 625.472656 80.972656 626.378906 80.972656 C 626.667969 80.972656 626.878906 81.058594 627.015625 81.222656 C 627.148438 81.375 627.21875 81.570312 627.21875 81.796875 C 627.21875 82.027344 627.117188 82.242188 626.921875 82.4375 C 626.726562 82.625 626.472656 82.71875 626.160156 82.71875 C 625.039062 82.71875 624.203125 82.601562 623.664062 82.359375 C 623.125 82.109375 622.75 81.746094 622.542969 81.269531 C 622.113281 81.859375 621.625 82.25 621.0625 82.4375 C 620.507812 82.625 619.769531 82.71875 618.832031 82.71875 Z M 622.464844 86.695312 C 622.160156 86.695312 621.90625 86.589844 621.703125 86.382812 C 621.503906 86.171875 621.40625 85.921875 621.40625 85.636719 C 621.40625 85.355469 621.503906 85.105469 621.703125 84.886719 C 621.90625 84.675781 622.160156 84.574219 622.464844 84.574219 C 622.753906 84.574219 623 84.675781 623.199219 84.886719 C 623.40625 85.105469 623.507812 85.355469 623.507812 85.636719 C 623.507812 85.921875 623.40625 86.171875 623.199219 86.382812 C 623 86.589844 622.753906 86.695312 622.464844 86.695312 Z M 622.464844 86.695312 "/>
<path style=" stroke:none;fill-rule:nonzero;fill:rgb(100%,100%,100%);fill-opacity:1;" d="M 626.160156 82.71875 L 626.375 80.972656 C 626.832031 80.972656 627.203125 80.941406 627.484375 80.878906 C 627.765625 80.808594 627.996094 80.640625 628.183594 80.378906 C 628.378906 80.109375 628.5625 79.691406 628.730469 79.128906 C 628.90625 78.5625 629.109375 77.757812 629.339844 76.730469 L 630.945312 77.179688 C 630.859375 77.554688 630.761719 77.992188 630.648438 78.492188 C 630.53125 78.992188 630.476562 79.4375 630.476562 79.832031 C 630.476562 80.1875 630.609375 80.46875 630.882812 80.675781 C 631.152344 80.875 631.636719 80.972656 632.347656 80.972656 C 632.773438 80.972656 633.117188 80.9375 633.390625 80.863281 C 633.660156 80.792969 633.882812 80.621094 634.0625 80.347656 C 634.25 80.078125 634.410156 79.644531 634.542969 79.050781 C 634.6875 78.460938 634.839844 77.640625 634.996094 76.589844 L 636.617188 76.882812 C 636.574219 77.144531 636.523438 77.460938 636.460938 77.835938 C 636.398438 78.203125 636.34375 78.566406 636.304688 78.929688 C 636.261719 79.292969 636.242188 79.59375 636.242188 79.832031 C 636.242188 80.03125 636.28125 80.21875 636.367188 80.394531 C 636.460938 80.574219 636.648438 80.714844 636.929688 80.816406 C 637.210938 80.921875 637.625 80.972656 638.175781 80.972656 C 638.894531 80.972656 639.40625 80.828125 639.71875 80.535156 C 640.039062 80.234375 640.203125 79.769531 640.203125 79.144531 C 640.203125 78.660156 640.1875 78.125 640.15625 77.539062 C 640.132812 76.957031 640.066406 76.226562 639.953125 75.339844 L 641.511719 75.230469 C 641.59375 76.386719 641.6875 77.335938 641.792969 78.085938 C 641.90625 78.828125 642.066406 79.40625 642.277344 79.832031 C 642.484375 80.25 642.761719 80.546875 643.117188 80.722656 C 643.46875 80.890625 643.9375 80.972656 644.519531 80.972656 C 644.820312 80.972656 645.039062 81.058594 645.175781 81.222656 C 645.308594 81.375 645.378906 81.570312 645.378906 81.796875 C 645.378906 82.027344 645.277344 82.242188 645.082031 82.4375 C 644.882812 82.625 644.621094 82.71875 644.304688 82.71875 C 643.511719 82.71875 642.855469 82.542969 642.339844 82.1875 C 641.816406 81.824219 641.433594 81.371094 641.183594 80.832031 C 640.90625 81.589844 640.472656 82.09375 639.890625 82.34375 C 639.320312 82.59375 638.683594 82.71875 637.988281 82.71875 C 637.261719 82.71875 636.683594 82.613281 636.257812 82.40625 C 635.84375 82.199219 635.535156 81.882812 635.339844 81.453125 C 634.996094 81.964844 634.582031 82.304688 634.109375 82.46875 C 633.628906 82.632812 632.957031 82.71875 632.097656 82.71875 C 631.792969 82.71875 631.476562 82.679688 631.148438 82.609375 C 630.8125 82.539062 630.5 82.398438 630.210938 82.1875 C 629.929688 81.980469 629.710938 81.671875 629.554688 81.269531 C 629.183594 81.890625 628.71875 82.292969 628.167969 82.46875 C 627.628906 82.632812 626.957031 82.71875 626.160156 82.71875 Z M 635.371094 70.957031 C 635.066406 70.957031 634.8125 70.855469 634.605469 70.644531 C 634.398438 70.4375 634.296875 70.191406 634.296875 69.914062 C 634.296875 69.625 634.398438 69.375 634.605469 69.164062 C 634.8125 68.945312 635.066406 68.835938 635.371094 68.835938 C 635.652344 68.835938 635.894531 68.945312 636.105469 69.164062 C 636.308594 69.375 636.414062 69.625 636.414062 69.914062 C 636.414062 70.191406 636.308594 70.4375 636.105469 70.644531 C 635.894531 70.855469 635.652344 70.957031 635.371094 70.957031 Z M 633.90625 73.3125 C 633.613281 73.3125 633.363281 73.210938 633.15625 73 C 632.945312 72.792969 632.84375 72.542969 632.84375 72.253906 C 632.84375 71.972656 632.945312 71.730469 633.15625 71.519531 C 633.363281 71.300781 633.613281 71.191406 633.90625 71.191406 C 634.195312 71.191406 634.445312 71.300781 634.652344 71.519531 C 634.859375 71.730469 634.964844 71.972656 634.964844 72.253906 C 634.964844 72.542969 634.859375 72.792969 634.652344 73 C 634.445312 73.210938 634.195312 73.3125 633.90625 73.3125 Z M 636.820312 73.3125 C 636.515625 73.3125 636.261719 73.210938 636.058594 73 C 635.847656 72.792969 635.746094 72.542969 635.746094 72.253906 C 635.746094 71.972656 635.847656 71.730469 636.058594 71.519531 C 636.261719 71.300781 636.515625 71.191406 636.820312 71.191406 C 637.101562 71.191406 637.34375 71.300781 637.554688 71.519531 C 637.757812 71.730469 637.863281 71.972656 637.863281 72.253906 C 637.863281 72.542969 637.757812 72.792969 637.554688 73 C 637.34375 73.210938 637.101562 73.3125 636.820312 73.3125 Z M 636.820312 73.3125 "/>
<path style=" stroke:none;fill-rule:nonzero;fill:rgb(100%,100%,100%);fill-opacity:1;" d="M 644.3125 82.71875 L 644.5 80.972656 C 645.308594 80.972656 645.875 80.894531 646.195312 80.738281 C 646.527344 80.574219 646.71875 80.296875 646.773438 79.910156 C 646.824219 79.515625 646.835938 78.957031 646.804688 78.226562 L 646.398438 67.355469 L 648.128906 67.355469 L 648.566406 78.039062 C 648.605469 79.046875 648.535156 79.902344 648.347656 80.597656 C 648.167969 81.292969 647.773438 81.824219 647.148438 82.1875 C 646.53125 82.542969 645.589844 82.71875 644.3125 82.71875 Z M 644.3125 82.71875 "/>
<path style=" stroke:none;fill-rule:nonzero;fill:rgb(100%,100%,100%);fill-opacity:1;" d="M 651.828125 82.609375 L 651.40625 67.355469 L 653.136719 67.355469 L 653.558594 82.609375 Z M 651.828125 82.609375 "/>
<path style=" stroke:none;fill-rule:nonzero;fill:rgb(100%,100%,100%);fill-opacity:1;" d="M 672.597656 82.71875 C 671.667969 82.71875 670.875 82.5625 670.210938 82.25 C 669.542969 81.9375 669.078125 81.359375 668.808594 80.519531 C 668.035156 80.707031 667.300781 80.785156 666.59375 80.753906 C 665.898438 80.714844 665.261719 80.574219 664.691406 80.332031 C 664.121094 80.09375 663.667969 79.765625 663.335938 79.347656 C 663.011719 78.9375 662.855469 78.429688 662.855469 77.835938 C 662.855469 77.078125 663.089844 76.382812 663.570312 75.746094 C 664.058594 75.113281 664.710938 74.574219 665.535156 74.140625 C 666.363281 73.695312 667.28125 73.382812 668.277344 73.203125 L 668.214844 71.582031 L 669.945312 71.582031 L 670.289062 78.632812 C 670.320312 79.308594 670.433594 79.8125 670.632812 80.144531 C 670.839844 80.480469 671.125 80.703125 671.488281 80.816406 C 671.851562 80.921875 672.292969 80.972656 672.816406 80.972656 C 673.101562 80.972656 673.316406 81.058594 673.453125 81.222656 C 673.585938 81.375 673.65625 81.570312 673.65625 81.796875 C 673.65625 82.027344 673.554688 82.242188 673.359375 82.4375 C 673.160156 82.625 672.90625 82.71875 672.597656 82.71875 Z M 664.539062 77.570312 C 664.539062 77.894531 664.664062 78.164062 664.925781 78.382812 C 665.195312 78.59375 665.535156 78.75 665.941406 78.851562 C 666.351562 78.945312 666.796875 78.992188 667.265625 78.992188 C 667.734375 78.992188 668.160156 78.960938 668.558594 78.898438 L 668.371094 74.980469 C 667.550781 75.066406 666.851562 75.246094 666.28125 75.527344 C 665.722656 75.808594 665.289062 76.132812 664.988281 76.496094 C 664.683594 76.847656 664.539062 77.207031 664.539062 77.570312 Z M 668.917969 69.132812 C 668.613281 69.132812 668.359375 69.03125 668.152344 68.820312 C 667.941406 68.613281 667.84375 68.363281 667.84375 68.070312 C 667.84375 67.792969 667.941406 67.550781 668.152344 67.339844 C 668.359375 67.121094 668.613281 67.011719 668.917969 67.011719 C 669.199219 67.011719 669.441406 67.121094 669.648438 67.339844 C 669.855469 67.550781 669.960938 67.792969 669.960938 68.070312 C 669.960938 68.363281 669.855469 68.613281 669.648438 68.820312 C 669.441406 69.03125 669.199219 69.132812 668.917969 69.132812 Z M 665.988281 69.132812 C 665.683594 69.132812 665.429688 69.03125 665.222656 68.820312 C 665.023438 68.613281 664.925781 68.363281 664.925781 68.070312 C 664.925781 67.792969 665.023438 67.550781 665.222656 67.339844 C 665.429688 67.121094 665.683594 67.011719 665.988281 67.011719 C 666.273438 67.011719 666.519531 67.121094 666.71875 67.339844 C 666.925781 67.550781 667.03125 67.792969 667.03125 68.070312 C 667.03125 68.363281 666.925781 68.613281 666.71875 68.820312 C 666.519531 69.03125 666.273438 69.132812 665.988281 69.132812 Z M 665.988281 69.132812 "/>
<path style=" stroke:none;fill-rule:nonzero;fill:rgb(100%,100%,100%);fill-opacity:1;" d="M 672.59375 82.71875 L 672.8125 80.972656 L 674.449219 80.972656 C 675.632812 80.972656 676.507812 80.910156 677.066406 80.785156 C 677.636719 80.652344 678.011719 80.480469 678.191406 80.269531 C 678.375 80.0625 678.46875 79.839844 678.46875 79.597656 C 678.46875 79.253906 678.339844 78.878906 678.082031 78.460938 C 677.820312 78.046875 677.492188 77.625 677.097656 77.195312 C 676.703125 76.761719 676.277344 76.332031 675.820312 75.902344 C 675.371094 75.476562 674.953125 75.085938 674.558594 74.730469 C 674.160156 74.371094 673.832031 74.058594 673.574219 73.796875 C 673.316406 73.539062 673.1875 73.351562 673.1875 73.234375 C 673.1875 72.902344 673.222656 72.59375 673.296875 72.316406 C 673.367188 72.027344 673.480469 71.800781 673.636719 71.644531 C 674.019531 71.230469 674.589844 70.796875 675.335938 70.347656 C 676.085938 69.90625 676.941406 69.441406 677.910156 68.960938 C 678.875 68.484375 679.867188 67.992188 680.886719 67.496094 L 681.605469 69.085938 C 680.355469 69.710938 679.128906 70.3125 677.925781 70.894531 C 676.714844 71.480469 675.667969 72.089844 674.777344 72.71875 C 675.554688 73.386719 676.289062 74.039062 676.972656 74.667969 C 677.660156 75.292969 678.292969 75.964844 678.875 76.683594 C 679.457031 77.398438 679.992188 78.21875 680.480469 79.128906 C 680.769531 79.683594 681.113281 80.089844 681.511719 80.347656 C 681.914062 80.597656 682.308594 80.765625 682.695312 80.847656 C 683.078125 80.933594 683.398438 80.972656 683.660156 80.972656 C 683.949219 80.972656 684.164062 81.058594 684.300781 81.222656 C 684.433594 81.375 684.503906 81.570312 684.503906 81.796875 C 684.503906 82.027344 684.402344 82.242188 684.207031 82.4375 C 684.007812 82.625 683.753906 82.71875 683.441406 82.71875 C 683.101562 82.71875 682.703125 82.671875 682.257812 82.578125 C 681.808594 82.484375 681.359375 82.308594 680.902344 82.046875 C 680.441406 81.777344 680.042969 81.386719 679.703125 80.878906 C 679.421875 81.292969 679.066406 81.636719 678.640625 81.90625 C 678.214844 82.179688 677.660156 82.382812 676.972656 82.515625 C 676.289062 82.648438 675.417969 82.71875 674.371094 82.71875 Z M 672.59375 82.71875 "/>
<path style=" stroke:none;fill-rule:nonzero;fill:rgb(100%,100%,100%);fill-opacity:1;" d="M 683.441406 82.71875 L 683.660156 80.972656 C 684.253906 80.972656 684.722656 80.921875 685.0625 80.816406 C 685.40625 80.703125 685.664062 80.496094 685.84375 80.191406 C 686.019531 79.878906 686.171875 79.433594 686.296875 78.851562 C 686.429688 78.269531 686.589844 77.503906 686.777344 76.558594 L 688.445312 76.882812 C 688.351562 77.269531 688.25 77.710938 688.148438 78.210938 C 688.046875 78.710938 687.996094 79.128906 687.996094 79.472656 C 687.996094 79.753906 688.058594 80.011719 688.179688 80.238281 C 688.304688 80.46875 688.574219 80.652344 688.992188 80.785156 C 689.417969 80.910156 690.082031 80.972656 690.988281 80.972656 C 691.277344 80.972656 691.488281 81.058594 691.625 81.222656 C 691.757812 81.375 691.828125 81.570312 691.828125 81.796875 C 691.828125 82.027344 691.726562 82.242188 691.53125 82.4375 C 691.335938 82.625 691.082031 82.71875 690.769531 82.71875 C 689.648438 82.71875 688.8125 82.601562 688.273438 82.359375 C 687.734375 82.109375 687.359375 81.746094 687.152344 81.269531 C 686.722656 81.859375 686.234375 82.25 685.671875 82.4375 C 685.117188 82.625 684.378906 82.71875 683.441406 82.71875 Z M 687.074219 86.695312 C 686.769531 86.695312 686.515625 86.589844 686.3125 86.382812 C 686.113281 86.171875 686.015625 85.921875 686.015625 85.636719 C 686.015625 85.355469 686.113281 85.105469 686.3125 84.886719 C 686.515625 84.675781 686.769531 84.574219 687.074219 84.574219 C 687.363281 84.574219 687.609375 84.675781 687.808594 84.886719 C 688.015625 85.105469 688.117188 85.355469 688.117188 85.636719 C 688.117188 85.921875 688.015625 86.171875 687.808594 86.382812 C 687.609375 86.589844 687.363281 86.695312 687.074219 86.695312 Z M 687.074219 86.695312 "/>
<path style=" stroke:none;fill-rule:nonzero;fill:rgb(100%,100%,100%);fill-opacity:1;" d="M 690.769531 82.71875 L 690.984375 80.972656 C 691.441406 80.972656 691.8125 80.941406 692.09375 80.878906 C 692.375 80.808594 692.605469 80.640625 692.792969 80.378906 C 692.988281 80.109375 693.171875 79.691406 693.339844 79.128906 C 693.515625 78.5625 693.71875 77.757812 693.949219 76.730469 L 695.554688 77.179688 C 695.46875 77.554688 695.371094 77.992188 695.257812 78.492188 C 695.140625 78.992188 695.085938 79.4375 695.085938 79.832031 C 695.085938 80.1875 695.21875 80.46875 695.492188 80.675781 C 695.761719 80.875 696.246094 80.972656 696.957031 80.972656 C 697.382812 80.972656 697.726562 80.9375 698 80.863281 C 698.269531 80.792969 698.492188 80.621094 698.671875 80.347656 C 698.859375 80.078125 699.019531 79.644531 699.152344 79.050781 C 699.296875 78.460938 699.449219 77.640625 699.605469 76.589844 L 701.226562 76.882812 C 701.183594 77.144531 701.132812 77.460938 701.070312 77.835938 C 701.007812 78.203125 700.953125 78.566406 700.914062 78.929688 C 700.871094 79.292969 700.851562 79.59375 700.851562 79.832031 C 700.851562 80.03125 700.890625 80.21875 700.976562 80.394531 C 701.070312 80.574219 701.257812 80.714844 701.539062 80.816406 C 701.820312 80.921875 702.234375 80.972656 702.785156 80.972656 C 703.398438 80.972656 703.886719 80.855469 704.25 80.613281 C 704.625 80.363281 704.8125 79.871094 704.8125 79.128906 C 704.8125 78.601562 704.6875 77.925781 704.4375 77.101562 C 704.195312 76.273438 703.917969 75.449219 703.597656 74.636719 L 705.328125 74 C 705.503906 74.46875 705.675781 74.992188 705.839844 75.574219 C 706.015625 76.148438 706.160156 76.722656 706.277344 77.289062 C 706.390625 77.863281 706.449219 78.363281 706.449219 78.789062 C 706.449219 80.109375 706.121094 81.097656 705.46875 81.75 C 704.8125 82.398438 703.914062 82.71875 702.769531 82.71875 C 701.992188 82.71875 701.371094 82.613281 700.914062 82.40625 C 700.46875 82.199219 700.144531 81.875 699.949219 81.4375 C 699.605469 81.960938 699.191406 82.304688 698.71875 82.46875 C 698.238281 82.632812 697.566406 82.71875 696.707031 82.71875 C 696.402344 82.71875 696.085938 82.679688 695.757812 82.609375 C 695.421875 82.539062 695.109375 82.398438 694.820312 82.1875 C 694.539062 81.980469 694.320312 81.671875 694.164062 81.269531 C 693.792969 81.890625 693.328125 82.292969 692.777344 82.46875 C 692.238281 82.632812 691.566406 82.71875 690.769531 82.71875 Z M 699.980469 70.957031 C 699.675781 70.957031 699.421875 70.855469 699.214844 70.644531 C 699.007812 70.4375 698.90625 70.191406 698.90625 69.914062 C 698.90625 69.625 699.007812 69.375 699.214844 69.164062 C 699.421875 68.945312 699.675781 68.835938 699.980469 68.835938 C 700.261719 68.835938 700.503906 68.945312 700.714844 69.164062 C 700.917969 69.375 701.023438 69.625 701.023438 69.914062 C 701.023438 70.191406 700.917969 70.4375 700.714844 70.644531 C 700.503906 70.855469 700.261719 70.957031 699.980469 70.957031 Z M 698.515625 73.3125 C 698.222656 73.3125 697.972656 73.210938 697.765625 73 C 697.554688 72.792969 697.457031 72.542969 697.457031 72.253906 C 697.457031 71.972656 697.554688 71.730469 697.765625 71.519531 C 697.972656 71.300781 698.222656 71.191406 698.515625 71.191406 C 698.804688 71.191406 699.054688 71.300781 699.261719 71.519531 C 699.46875 71.730469 699.574219 71.972656 699.574219 72.253906 C 699.574219 72.542969 699.46875 72.792969 699.261719 73 C 699.054688 73.210938 698.804688 73.3125 698.515625 73.3125 Z M 701.429688 73.3125 C 701.125 73.3125 700.871094 73.210938 700.667969 73 C 700.457031 72.792969 700.355469 72.542969 700.355469 72.253906 C 700.355469 71.972656 700.457031 71.730469 700.667969 71.519531 C 700.871094 71.300781 701.125 71.191406 701.429688 71.191406 C 701.710938 71.191406 701.953125 71.300781 702.164062 71.519531 C 702.371094 71.730469 702.472656 71.972656 702.472656 72.253906 C 702.472656 72.542969 702.371094 72.792969 702.164062 73 C 701.953125 73.210938 701.710938 73.3125 701.429688 73.3125 Z M 701.429688 73.3125 "/>
<g clip-path="url(#clip1)" clip-rule="nonzero">
<path style=" stroke:none;fill-rule:evenodd;fill:rgb(100%,100%,100%);fill-opacity:1;" d="M 329.320312 52.238281 L 329.855469 52.238281 L 329.855469 52.769531 C 329.5 53.128906 329.320312 53.488281 329.320312 53.84375 C 328.960938 53.84375 328.25 54.023438 327.179688 54.382812 L 325.035156 54.382812 C 325.035156 54.023438 323.246094 52.769531 319.671875 50.625 C 316.097656 48.121094 312.882812 46.15625 310.023438 44.726562 C 306.808594 43.652344 303.953125 42.402344 301.449219 40.972656 C 298.949219 39.542969 296.265625 37.753906 293.410156 35.609375 C 290.191406 33.464844 287.515625 32.035156 285.367188 31.320312 C 282.867188 30.601562 280.902344 29.171875 279.46875 27.027344 L 277.328125 23.808594 L 277.328125 23.273438 L 276.792969 23.273438 L 276.792969 22.738281 L 276.253906 22.738281 L 276.253906 22.199219 L 275.722656 22.199219 L 275.722656 21.664062 L 274.648438 21.664062 L 274.648438 21.128906 L 274.113281 21.128906 L 274.113281 20.59375 L 273.574219 20.59375 L 274.113281 25.953125 C 274.46875 29.171875 275.003906 31.140625 275.722656 31.855469 C 276.792969 32.214844 278.042969 32.746094 279.46875 33.464844 C 281.257812 34.179688 282.511719 35.429688 283.222656 37.21875 C 284.296875 39.007812 285.367188 40.078125 286.441406 40.4375 C 287.15625 40.792969 287.6875 40.972656 288.046875 40.972656 L 288.585938 40.972656 L 289.65625 42.042969 L 290.191406 42.042969 L 290.191406 42.582031 L 290.730469 42.582031 L 290.730469 43.117188 L 289.65625 43.117188 L 287.515625 43.652344 C 286.082031 44.011719 284.832031 44.191406 283.761719 44.191406 C 282.691406 44.191406 280.722656 44.367188 277.863281 44.726562 L 274.113281 45.265625 L 273.039062 44.191406 L 272.503906 44.191406 L 272.503906 43.117188 C 272.503906 42.402344 273.039062 41.6875 274.113281 40.972656 L 275.722656 39.898438 L 275.722656 38.828125 L 275.183594 38.828125 L 274.648438 38.292969 C 274.292969 37.933594 273.21875 37.394531 271.429688 36.683594 C 269.644531 35.96875 268.394531 34 267.683594 30.78125 L 266.074219 26.492188 L 266.074219 25.953125 L 265.535156 25.953125 L 265 25.421875 L 263.929688 25.421875 L 263.929688 26.492188 L 263.390625 27.027344 L 262.859375 28.097656 L 260.175781 37.753906 C 258.386719 44.546875 256.066406 49.914062 253.207031 53.84375 C 250.707031 57.417969 248.203125 61.175781 245.703125 65.109375 C 243.558594 68.683594 242.128906 71.363281 241.417969 73.152344 C 240.703125 74.585938 240.34375 75.835938 240.34375 76.910156 L 240.34375 78.515625 L 239.273438 79.585938 L 238.199219 79.585938 L 238.199219 76.910156 C 238.199219 75.117188 238.914062 72.4375 240.34375 68.863281 C 241.773438 64.929688 243.738281 60.996094 246.242188 57.0625 C 248.742188 53.128906 250.707031 49.195312 252.136719 45.265625 L 254.28125 38.828125 L 254.28125 35.609375 L 251.066406 35.609375 L 250.527344 36.144531 L 249.992188 36.683594 L 249.457031 36.683594 L 249.457031 37.21875 L 248.921875 37.21875 L 247.3125 40.972656 C 246.242188 43.476562 244.273438 48.480469 241.417969 55.988281 C 238.554688 63.5 235.160156 70.828125 231.234375 77.980469 C 227.300781 84.773438 223.191406 90.671875 218.902344 95.679688 C 214.976562 99.96875 211.402344 103.1875 208.183594 105.332031 C 204.96875 107.480469 201.394531 109.265625 197.460938 110.695312 C 193.886719 112.128906 191.925781 113.019531 191.566406 113.378906 L 191.03125 113.914062 L 189.960938 113.914062 L 189.960938 114.453125 L 189.421875 114.453125 L 189.421875 114.988281 L 187.816406 114.988281 L 187.816406 115.523438 L 187.816406 113.914062 L 188.351562 113.914062 L 188.351562 113.378906 L 188.886719 113.378906 L 188.886719 112.839844 L 189.421875 112.839844 L 189.421875 112.304688 L 189.960938 112.304688 L 189.960938 111.769531 L 190.492188 111.769531 L 190.492188 111.230469 C 190.851562 111.230469 194.425781 108.90625 201.214844 104.257812 C 208.363281 99.257812 212.828125 95.855469 214.617188 94.070312 C 216.761719 92.285156 219.261719 88.882812 222.117188 83.878906 C 224.980469 78.875 227.480469 74.226562 229.625 69.9375 C 231.054688 66 230.515625 62.605469 228.015625 59.742188 C 225.15625 56.527344 222.835938 54.914062 221.046875 54.914062 C 219.621094 54.914062 218.011719 55.273438 216.222656 55.988281 C 214.4375 56.707031 213.007812 58.136719 211.933594 60.28125 C 210.863281 62.425781 208.898438 68.148438 206.039062 77.441406 L 201.753906 90.851562 L 201.214844 91.386719 L 200.679688 92.460938 L 200.679688 94.070312 L 200.144531 94.070312 L 200.144531 94.609375 L 199.609375 94.609375 L 199.609375 92.460938 L 200.679688 89.242188 L 200.679688 87.636719 L 200.144531 87.636719 L 200.144531 88.171875 L 199.609375 88.171875 L 199.609375 88.707031 L 199.070312 89.242188 L 198.539062 89.78125 L 198.539062 90.316406 L 198 90.316406 L 198 90.851562 L 197.460938 90.851562 L 195.320312 94.070312 C 193.535156 96.574219 192.640625 97.824219 192.640625 97.824219 L 192.101562 97.824219 L 192.101562 98.359375 L 191.566406 98.359375 L 191.566406 98.898438 L 189.421875 98.898438 L 188.351562 99.96875 L 187.277344 99.96875 L 187.277344 99.429688 L 187.816406 99.429688 L 187.816406 98.359375 L 188.351562 98.359375 L 188.351562 97.824219 L 188.886719 97.824219 L 188.886719 96.753906 L 189.421875 96.214844 C 189.78125 95.855469 191.566406 92.640625 194.785156 86.558594 C 198 80.484375 199.964844 76.371094 200.679688 74.226562 L 201.753906 71.542969 L 201.753906 69.398438 L 201.214844 69.398438 L 201.214844 68.863281 L 200.144531 68.863281 L 200.144531 69.398438 L 199.609375 69.398438 L 199.609375 70.46875 L 199.070312 70.46875 L 199.070312 71.007812 L 198.539062 71.007812 L 198.539062 72.082031 L 188.886719 89.242188 C 182.453125 100.683594 178.878906 106.941406 178.167969 108.015625 L 177.097656 109.625 L 177.097656 110.160156 L 176.558594 110.160156 L 176.558594 110.695312 L 176.023438 110.695312 L 176.023438 111.769531 L 175.488281 111.769531 L 175.488281 112.304688 L 174.953125 112.304688 L 174.953125 113.378906 L 174.414062 113.378906 L 174.414062 113.914062 L 171.734375 116.058594 L 168.519531 119.28125 L 167.984375 119.28125 L 167.984375 119.8125 L 167.445312 119.8125 L 167.445312 120.351562 L 166.914062 120.351562 L 166.914062 120.886719 L 166.375 120.886719 L 166.375 121.425781 L 165.835938 121.425781 L 164.765625 122.496094 L 164.230469 122.496094 L 163.695312 123.03125 L 163.160156 123.03125 L 163.160156 121.957031 L 164.230469 121.957031 L 164.230469 120.886719 L 165.304688 119.8125 L 165.304688 119.28125 L 165.835938 119.28125 L 165.835938 118.742188 C 166.195312 118.742188 167.445312 117.132812 169.589844 113.914062 C 171.734375 110.339844 174.414062 105.332031 177.628906 98.898438 L 182.453125 89.78125 L 183.527344 88.707031 L 183.527344 87.636719 L 184.0625 87.636719 L 184.0625 87.097656 L 184.597656 87.097656 L 184.597656 86.558594 C 184.597656 86.203125 187.097656 81.019531 192.101562 71.007812 C 197.105469 60.996094 200.144531 55.273438 201.214844 53.84375 C 202.644531 52.417969 203.894531 51.699219 204.96875 51.699219 C 206.398438 51.699219 207.648438 50.804688 208.71875 49.015625 C 209.792969 47.589844 211.402344 45.265625 213.542969 42.042969 C 215.6875 38.828125 217.117188 36.863281 217.832031 36.144531 L 219.441406 35.609375 L 220.511719 35.609375 L 222.117188 36.144531 C 222.835938 36.863281 224.621094 39.007812 227.480469 42.582031 C 229.625 46.15625 231.054688 48.480469 231.765625 49.554688 C 232.484375 50.269531 233.019531 50.625 233.375 50.625 L 233.910156 50.625 L 233.910156 51.164062 L 234.449219 51.699219 L 234.980469 52.238281 L 234.980469 52.769531 L 237.128906 52.769531 L 237.128906 51.164062 L 240.878906 43.117188 C 243.378906 37.753906 245.347656 34.179688 246.773438 32.394531 C 248.5625 30.960938 250.347656 29.351562 252.136719 27.566406 C 254.28125 25.773438 257.140625 22.378906 260.710938 17.371094 C 264.285156 12.367188 266.429688 9.507812 267.144531 8.792969 C 268.214844 8.074219 269.644531 7.363281 271.429688 6.648438 C 273.21875 6.648438 275.363281 7.542969 277.863281 9.328125 C 280.007812 11.117188 282.511719 13.082031 285.367188 15.226562 C 287.515625 17.730469 289.835938 20.59375 292.335938 23.808594 C 294.835938 27.386719 297.339844 30.242188 299.839844 32.394531 C 302.699219 34.539062 306.988281 37.394531 312.703125 40.972656 C 318.421875 44.546875 322.53125 47.050781 325.035156 48.480469 C 327.179688 50.625 328.429688 51.699219 328.785156 51.699219 C 329.140625 51.699219 329.320312 51.878906 329.320312 52.238281 Z M 329.320312 52.238281 "/>
</g>
</g>
</svg>
